{
.appVersion = "3108";
.formatVersion = 3;
axes = (
{
name = Weight;
tag = wght;
}
);
customParameters = (
{
name = "Variable Font Origin";
value = m01;
}
);
date = "2022-02-21 08:08:28 +0000";
familyName = "QLD Beginners";
fontMaster = (
{
axesValues = (
300
);
guides = (
{
pos = (632,650);
},
{
pos = (416,175);
},
{
pos = (170,367);
},
{
pos = (127,568);
}
);
iconName = Light;
id = m01;
metricValues = (
{
over = 4;
pos = 700;
},
{
over = 4;
pos = 650;
},
{
over = 4;
pos = 350;
},
{
over = -4;
},
{
over = -4;
pos = -300;
},
{
over = -16;
pos = 10;
}
);
name = "QLD Beginners Light";
stemValues = (
45,
50
);
userData = {
GSCornerRadius = 15;
};
visible = 1;
},
{
axesValues = (
800
);
guides = (
{
pos = (632,650);
},
{
pos = (416,175);
},
{
pos = (170,367);
},
{
pos = (127,568);
}
);
iconName = Bold_SemiExtended;
id = m002;
metricValues = (
{
over = 4;
pos = 700;
},
{
over = 4;
pos = 650;
},
{
over = 4;
pos = 350;
},
{
over = -4;
},
{
over = -4;
pos = -300;
},
{
over = -16;
pos = 10;
}
);
name = "QLD Beginners Heavy";
stemValues = (
90,
100
);
userData = {
GSCornerRadius = 15;
GSOffsetHorizontal = 25;
GSOffsetKeepCompatible = 1;
GSOffsetVertical = 22;
};
}
);
glyphs = (
{
glyphname = A;
lastChange = "2022-02-24 10:08:29 +0000";
layers = (
{
layerId = m01;
name = "QBeginners Light";
shapes = (
{
closed = 1;
nodes = (
(44,0,o),
(49,7,o),
(58,25,cs),
(367,619,ls),
(375,635,o),
(367,650,o),
(346,650,cs),
(324,650,o),
(323,639,o),
(316,625,cs),
(7,32,ls),
(-3,12,o),
(9,0,o),
(24,0,cs)
);
},
{
closed = 1;
nodes = (
(373,305,l),
(368,350,l),
(199,350,l),
(177,305,l)
);
},
{
closed = 1;
nodes = (
(417,0,o),
(423,11,o),
(422,26,cs),
(370,631,l),
(323,613,l),
(373,24,ls),
(374,14,o),
(377,0,o),
(399,0,c)
);
}
);
visible = 1;
width = 479;
},
{
layerId = m002;
name = "QBeginners Light";
shapes = (
{
closed = 1;
nodes = (
(62,-2,o),
(76,8,o),
(89,33,cs),
(380,591,ls),
(397,624,o),
(374,653,o),
(338,653,cs),
(304,653,o),
(296,636,o),
(287,616,c),
(-3,60,ls),
(-22,24,o),
(5,-2,o),
(35,-2,cs)
);
},
{
closed = 1;
nodes = (
(390,280,l),
(382,367,l),
(184,367,l),
(141,280,l)
);
},
{
closed = 1;
nodes = (
(416,-2,o),
(437,15,o),
(434,46,cs),
(385,620,l),
(292,585,l),
(338,40,ls),
(340,16,o),
(357,-2,o),
(388,-2,cs)
);
}
);
width = 479;
}
);
unicode = 65;
},
{
glyphname = B;
lastChange = "2022-02-23 23:01:33 +0000";
layers = (
{
layerId = m01;
shapes = (
{
closed = 1;
nodes = (
(321,0,o),
(419,31,o),
(439,144,cs),
(461,270,o),
(290,374,o),
(111,374,c),
(104,324,l),
(272,324,o),
(404,239,o),
(389,151,cs),
(374,66,o),
(263,50,o),
(63,50,c),
(55,0,l)
);
},
{
closed = 1;
nodes = (
(68,0,o),
(76,9,o),
(80,29,cs),
(184,619,ls),
(188,641,o),
(182,650,o),
(163,650,cs),
(146,650,o),
(138,643,o),
(134,623,cs),
(30,31,ls),
(27,14,o),
(37,0,o),
(54,0,cs)
);
},
{
closed = 1;
nodes = (
(393,324,o),
(474,367,o),
(493,475,cs),
(514,593,o),
(375,650,o),
(168,650,c),
(159,600,l),
(342,600,o),
(459,565,o),
(443,477,cs),
(430,405,o),
(362,376,o),
(127,376,c),
(119,324,l)
);
}
);
width = 484;
},
{
layerId = m002;
shapes = (
{
closed = 1;
nodes = (
(334,-4,o),
(431,26,o),
(453,151,cs),
(478,292,o),
(285,402,o),
(98,392,c),
(84,301,l),
(249,310,o),
(369,238,o),
(356,165,cs),
(345,99,o),
(274,88,o),
(72,89,c),
(57,-2,l)
);
},
{
closed = 1;
nodes = (
(89,-2,o),
(110,10,o),
(116,43,cs),
(214,598,ls),
(222,642,o),
(193,653,o),
(169,653,cs),
(145,653,o),
(123,642,o),
(117,609,cs),
(19,53,ls),
(14,23,o),
(36,-2,o),
(66,-2,cs)
);
},
{
closed = 1;
nodes = (
(390,299,o),
(483,344,o),
(504,462,cs),
(528,597,o),
(375,657,o),
(161,653,c),
(143,562,l),
(331,565,o),
(420,540,o),
(407,472,cs),
(397,413,o),
(347,394,o),
(113,395,c),
(100,302,l)
);
}
);
width = 484;
}
);
metricLeft = N;
metricRight = O;
unicode = 66;
},
{
glyphname = C;
lastChange = "2022-02-23 22:31:21 +0000";
layers = (
{
layerId = m01;
shapes = (
{
closed = 1;
nodes = (
(258,-4,o),
(340,46,o),
(422,169,cs),
(443,200,o),
(444,206,o),
(444,212,cs),
(444,224,o),
(434,232,o),
(422,232,cs),
(406,232,o),
(398,223,o),
(381,198,cs),
(303,87,o),
(239,46,o),
(177,46,cs),
(114,46,o),
(109,89,o),
(109,127,cs),
(109,200,o),
(128,310,o),
(135,349,cs),
(158,468,o),
(201,600,o),
(438,600,cs),
(492,600,o),
(498,601,o),
(508,607,cs),
(519,613,o),
(521,635,o),
(510,642,cs),
(501,648,o),
(492,650,o),
(439,650,cs),
(166,650,o),
(110,498,o),
(82,338,cs),
(78,318,o),
(58,203,o),
(58,138,cs),
(58,70,o),
(80,-4,o),
(178,-4,cs)
);
}
);
width = 478;
},
{
layerId = m002;
shapes = (
{
closed = 1;
nodes = (
(271,-6,o),
(355,47,o),
(435,166,cs),
(459,201,o),
(460,210,o),
(460,219,cs),
(460,243,o),
(438,259,o),
(414,259,cs),
(391,259,o),
(376,249,o),
(354,219,cs),
(283,116,o),
(234,85,o),
(184,85,cs),
(147,85,o),
(145,104,o),
(145,139,cs),
(145,205,o),
(163,308,o),
(169,343,cs),
(190,454,o),
(225,561,o),
(429,561,cs),
(484,561,o),
(494,563,o),
(508,571,cs),
(534,587,o),
(536,623,o),
(511,641,cs),
(498,650,o),
(486,652,o),
(430,652,cs),
(154,652,o),
(97,494,o),
(69,341,cs),
(66,321,o),
(47,212,o),
(47,149,cs),
(47,80,o),
(72,-6,o),
(185,-6,cs)
);
}
);
width = 478;
}
);
metricLeft = O;
metricRight = O;
unicode = 67;
},
{
glyphname = D;
lastChange = "2022-02-23 23:02:00 +0000";
layers = (
{
layerId = m01;
shapes = (
{
closed = 1;
nodes = (
(116,0,ls),
(308,0,o),
(499,150,o),
(499,373,cs),
(499,543,o),
(388,650,o),
(199,650,cs),
(165,650,l),
(160,600,l),
(203,600,ls),
(362,600,o),
(449,511,o),
(449,372,cs),
(449,177,o),
(278,50,o),
(116,50,cs),
(63,50,l),
(53,0,l)
);
},
{
closed = 1;
nodes = (
(74,0,o),
(78,15,o),
(80,25,cs),
(184,619,ls),
(187,637,o),
(185,650,o),
(164,650,cs),
(142,650,o),
(137,639,o),
(134,623,cs),
(29,27,ls),
(26,12,o),
(34,0,o),
(52,0,cs)
);
}
);
width = 510;
},
{
layerId = m002;
shapes = (
{
closed = 1;
nodes = (
(125,-2,ls),
(318,-2,o),
(510,148,o),
(510,370,cs),
(510,542,o),
(395,653,o),
(203,653,cs),
(165,653,l),
(156,562,l),
(207,562,ls),
(345,562,o),
(413,492,o),
(413,369,cs),
(413,196,o),
(268,89,o),
(125,89,cs),
(77,89,l),
(59,-2,l)
);
},
{
closed = 1;
nodes = (
(92,-2,o),
(110,13,o),
(116,39,c),
(214,597,ls),
(221,638,o),
(198,653,o),
(170,653,cs),
(138,653,o),
(122,636,o),
(117,609,cs),
(18,49,ls),
(13,21,o),
(33,-2,o),
(65,-2,cs)
);
}
);
width = 510;
}
);
metricLeft = N;
metricRight = O;
unicode = 68;
},
{
glyphname = E;
lastChange = "2022-02-23 23:02:24 +0000";
layers = (
{
layerId = m01;
shapes = (
{
closed = 1;
nodes = (
(74,0,o),
(78,15,o),
(80,25,c),
(184,619,l),
(187,637,o),
(185,650,o),
(164,650,cs),
(142,650,o),
(137,639,o),
(134,623,c),
(29,27,l),
(26,12,o),
(34,0,o),
(52,0,cs)
);
},
{
closed = 1;
nodes = (
(380,0,ls),
(400,0,o),
(406,14,o),
(406,26,cs),
(406,38,o),
(400,50,o),
(380,50,cs),
(61,50,l),
(53,0,l)
);
},
{
closed = 1;
nodes = (
(406,305,ls),
(426,305,o),
(432,315,o),
(432,327,cs),
(432,339,o),
(426,350,o),
(406,350,cs),
(109,350,l),
(101,305,l)
);
},
{
closed = 1;
nodes = (
(488,600,ls),
(508,600,o),
(514,613,o),
(514,625,cs),
(514,637,o),
(508,650,o),
(488,650,cs),
(165,650,l),
(156,600,l)
);
}
);
width = 490;
},
{
layerId = m002;
shapes = (
{
closed = 1;
nodes = (
(97,-2,o),
(112,18,o),
(116,40,cs),
(214,597,ls),
(221,638,o),
(198,653,o),
(170,653,cs),
(139,653,o),
(122,637,o),
(117,609,cs),
(19,49,ls),
(14,21,o),
(33,-2,o),
(65,-2,cs)
);
},
{
closed = 1;
nodes = (
(373,-2,ls),
(403,-2,o),
(423,18,o),
(423,44,cs),
(423,68,o),
(405,89,o),
(373,89,cs),
(75,89,l),
(60,-2,l)
);
},
{
closed = 1;
nodes = (
(398,280,ls),
(430,280,o),
(447,299,o),
(447,323,cs),
(447,349,o),
(428,367,o),
(398,367,cs),
(98,367,l),
(82,280,l)
);
},
{
closed = 1;
nodes = (
(475,562,ls),
(505,562,o),
(524,581,o),
(524,607,cs),
(524,632,o),
(506,653,o),
(475,653,cs),
(166,653,l),
(151,562,l)
);
}
);
width = 490;
}
);
metricLeft = N;
metricRight = N;
unicode = 69;
},
{
glyphname = F;
lastChange = "2022-02-23 23:02:39 +0000";
layers = (
{
layerId = m01;
shapes = (
{
closed = 1;
nodes = (
(74,0,o),
(78,15,o),
(80,25,cs),
(184,619,ls),
(187,637,o),
(185,650,o),
(164,650,cs),
(142,650,o),
(137,639,o),
(134,623,cs),
(29,27,ls),
(26,12,o),
(34,0,o),
(52,0,cs)
);
},
{
closed = 1;
nodes = (
(405,305,ls),
(425,305,o),
(431,315,o),
(431,327,cs),
(431,339,o),
(425,350,o),
(405,350,cs),
(116,350,l),
(109,305,l)
);
},
{
closed = 1;
nodes = (
(488,600,ls),
(508,600,o),
(514,613,o),
(514,625,cs),
(514,637,o),
(508,650,o),
(488,650,cs),
(165,650,l),
(158,600,l)
);
}
);
width = 490;
},
{
layerId = m002;
shapes = (
{
closed = 1;
nodes = (
(97,-2,o),
(112,18,o),
(116,40,cs),
(214,597,ls),
(221,638,o),
(198,653,o),
(170,653,cs),
(139,653,o),
(122,637,o),
(117,609,cs),
(19,49,ls),
(14,21,o),
(33,-2,o),
(65,-2,cs)
);
},
{
closed = 1;
nodes = (
(397,280,ls),
(429,280,o),
(446,299,o),
(446,323,cs),
(446,349,o),
(427,367,o),
(397,367,cs),
(103,367,l),
(91,280,l)
);
},
{
closed = 1;
nodes = (
(475,562,ls),
(505,562,o),
(524,581,o),
(524,607,cs),
(524,632,o),
(506,653,o),
(475,653,cs),
(166,653,l),
(154,562,l)
);
}
);
width = 490;
}
);
metricLeft = N;
metricRight = N;
unicode = 70;
},
{
glyphname = G;
lastChange = "2022-02-23 23:01:08 +0000";
layers = (
{
layerId = m01;
shapes = (
{
closed = 1;
nodes = (
(244,-4,o),
(343,134,o),
(435,275,c),
(447,350,l),
(423,350,o),
(420,343,o),
(362,255,cs),
(325,199,o),
(222,46,o),
(153,46,cs),
(117,46,o),
(108,89,o),
(108,135,cs),
(108,200,o),
(126,310,o),
(137,364,cs),
(158,468,o),
(201,600,o),
(438,600,cs),
(494,600,ls),
(509,600,o),
(519,613,o),
(519,626,cs),
(519,638,o),
(510,650,o),
(498,650,cs),
(439,650,ls),
(166,650,o),
(110,498,o),
(82,338,cs),
(78,318,o),
(58,203,o),
(58,140,cs),
(58,70,o),
(83,-4,o),
(150,-4,cs)
);
},
{
closed = 1;
nodes = (
(407,-1,o),
(412,16,o),
(414,27,cs),
(466,323,ls),
(467,330,o),
(467,338,o),
(465,342,cs),
(462,347,o),
(456,350,o),
(448,350,c),
(438,350,o),
(430,348,o),
(425,343,cs),
(420,339,o),
(417,332,o),
(415,323,cs),
(363,27,ls),
(361,15,o),
(364,1,o),
(384,0,cs)
);
}
);
width = 495;
},
{
layerId = m002;
shapes = (
{
closed = 1;
nodes = (
(265,-6,o),
(343,138,o),
(429,271,c),
(445,370,l),
(405,369,o),
(395,361,o),
(337,271,cs),
(302,217,o),
(212,85,o),
(161,85,cs),
(148,85,o),
(144,105,o),
(144,146,cs),
(144,205,o),
(161,308,o),
(171,358,cs),
(190,454,o),
(225,561,o),
(429,561,cs),
(482,561,ls),
(509,561,o),
(530,583,o),
(530,608,cs),
(530,632,o),
(510,652,o),
(485,652,cs),
(430,652,ls),
(154,652,o),
(97,494,o),
(69,341,cs),
(66,321,o),
(47,212,o),
(47,151,cs),
(47,79,o),
(74,-6,o),
(158,-6,cs)
);
},
{
closed = 1;
nodes = (
(411,-5,o),
(427,18,o),
(431,42,cs),
(480,320,l),
(481,331,o),
(481,340,o),
(478,348,cs),
(473,362,o),
(456,370,o),
(438,370,cs),
(421,370,o),
(407,366,o),
(399,357,cs),
(390,349,o),
(384,339,o),
(382,327,cs),
(334,49,ls),
(329,18,o),
(347,-1,o),
(377,-3,cs)
);
}
);
width = 495;
}
);
metricLeft = O;
metricRight = N;
unicode = 71;
},
{
glyphname = H;
lastChange = "2022-02-23 22:43:16 +0000";
layers = (
{
layerId = m01;
shapes = (
{
closed = 1;
nodes = (
(74,0,o),
(78,15,o),
(80,25,cs),
(184,619,ls),
(187,637,o),
(181,650,o),
(164,650,cs),
(145,650,o),
(137,639,o),
(134,623,cs),
(29,27,ls),
(26,12,o),
(34,0,o),
(52,0,cs)
);
},
{
closed = 1;
nodes = (
(497,305,l),
(505,350,l),
(121,350,l),
(113,305,l)
);
},
{
closed = 1;
nodes = (
(474,0,o),
(480,13,o),
(482,22,cs),
(587,621,ls),
(590,638,o),
(584,650,o),
(564,650,cs),
(546,650,o),
(539,638,o),
(537,628,cs),
(432,27,ls),
(430,15,o),
(432,0,o),
(455,0,cs)
);
}
);
width = 564;
},
{
layerId = m002;
shapes = (
{
closed = 1;
nodes = (
(101,-2,o),
(116,20,o),
(119,40,cs),
(216,597,ls),
(222,632,o),
(202,653,o),
(173,653,cs),
(146,653,o),
(124,637,o),
(119,609,cs),
(21,49,ls),
(16,21,o),
(35,-2,o),
(67,-2,cs)
);
},
{
closed = 1;
nodes = (
(508,280,l),
(522,367,l),
(110,367,l),
(96,280,l)
);
},
{
closed = 1;
nodes = (
(475,-2,o),
(493,17,o),
(497,37,cs),
(595,599,ls),
(601,631,o),
(580,653,o),
(549,653,cs),
(521,653,o),
(502,635,o),
(498,613,cs),
(400,49,ls),
(395,20,o),
(413,-2,o),
(446,-2,cs)
);
}
);
width = 564;
}
);
metricLeft = N;
metricRight = N;
unicode = 72;
},
{
glyphname = I;
lastChange = "2022-02-23 22:31:21 +0000";
layers = (
{
layerId = m01;
shapes = (
{
closed = 1;
nodes = (
(127,25,l),
(231,619,l),
(180,620,l),
(76,25,l)
);
},
{
closed = 1;
nodes = (
(144,0,ls),
(164,0,o),
(170,11,o),
(170,23,cs),
(170,35,o),
(164,45,o),
(144,45,cs),
(55,45,ls),
(35,45,o),
(29,35,o),
(29,23,cs),
(29,11,o),
(35,0,o),
(55,0,cs)
);
},
{
closed = 1;
nodes = (
(252,605,ls),
(272,605,o),
(278,616,o),
(278,628,cs),
(278,640,o),
(272,650,o),
(252,650,cs),
(163,650,ls),
(143,650,o),
(137,640,o),
(137,628,cs),
(137,616,o),
(143,605,o),
(163,605,cs)
);
}
);
width = 254;
},
{
layerId = m002;
shapes = (
{
closed = 1;
nodes = (
(150,21,l),
(255,622,l),
(157,624,l),
(52,21,l)
);
},
{
closed = 1;
nodes = (
(145,-2,ls),
(176,-2,o),
(194,17,o),
(194,41,cs),
(194,65,o),
(176,84,o),
(145,84,cs),
(61,84,ls),
(29,84,o),
(11,65,o),
(11,41,cs),
(11,17,o),
(29,-2,o),
(61,-2,cs)
);
},
{
closed = 1;
nodes = (
(246,566,ls),
(278,566,o),
(296,586,o),
(296,610,cs),
(296,634,o),
(278,653,o),
(246,653,cs),
(162,653,ls),
(131,653,o),
(113,634,o),
(113,610,cs),
(113,586,o),
(131,566,o),
(162,566,cs)
);
}
);
width = 254;
}
);
metricLeft = N;
metricRight = N;
unicode = 73;
},
{
glyphname = J;
lastChange = "2022-02-23 22:31:21 +0000";
layers = (
{
layerId = m01;
shapes = (
{
closed = 1;
nodes = (
(60,0,o),
(150,5,o),
(169,7,cs),
(239,16,o),
(276,46,o),
(301,86,cs),
(335,140,o),
(343,211,o),
(358,296,c),
(416,621,l),
(365,621,l),
(308,301,l),
(296,232,o),
(287,161,o),
(258,113,cs),
(240,82,o),
(214,63,o),
(173,58,cs),
(146,55,o),
(53,51,o),
(29,51,cs),
(17,51,o),
(4,39,o),
(4,25,cs),
(4,10,o),
(17,0,o),
(29,0,cs)
);
},
{
closed = 1;
nodes = (
(523,600,ls),
(543,600,o),
(549,613,o),
(549,625,cs),
(549,637,o),
(543,650,o),
(523,650,cs),
(259,650,ls),
(239,650,o),
(233,637,o),
(233,625,cs),
(233,613,o),
(239,600,o),
(259,600,cs)
);
}
);
width = 500;
},
{
layerId = m002;
shapes = (
{
closed = 1;
nodes = (
(74,-2,o),
(160,2,o),
(178,4,cs),
(254,14,o),
(295,48,o),
(321,88,cs),
(355,145,o),
(364,215,o),
(378,294,cs),
(437,625,l),
(339,625,l),
(281,306,ls),
(270,241,o),
(262,178,o),
(237,137,cs),
(222,111,o),
(207,100,o),
(176,96,cs),
(152,93,o),
(65,89,o),
(44,89,cs),
(20,89,o),
(-5,69,o),
(-5,43,cs),
(-5,16,o),
(20,-2,o),
(44,-2,cs)
);
},
{
closed = 1;
nodes = (
(508,562,ls),
(540,562,o),
(558,583,o),
(558,607,cs),
(558,633,o),
(538,653,o),
(508,653,cs),
(260,653,ls),
(229,653,o),
(211,632,o),
(211,607,cs),
(211,581,o),
(230,562,o),
(260,562,cs)
);
}
);
width = 500;
}
);
metricLeft = T;
metricRight = T;
unicode = 74;
},
{
glyphname = K;
lastChange = "2022-02-23 22:33:46 +0000";
layers = (
{
layerId = m01;
shapes = (
{
closed = 1;
nodes = (
(477,599,ls),
(489,609,o),
(494,619,o),
(496,628,cs),
(497,640,o),
(489,650,o),
(476,650,cs),
(468,651,o),
(457,647,o),
(445,637,cs),
(108,360,l),
(108,353,l),
(170,346,l)
);
},
{
closed = 1;
nodes = (
(375,0,o),
(385,6,o),
(388,17,cs),
(390,24,o),
(389,32,o),
(382,42,cs),
(170,348,l),
(108,354,l),
(108,345,l),
(335,19,ls),
(342,9,o),
(352,0,o),
(365,0,cs)
);
},
{
closed = 1;
nodes = (
(74,0,o),
(79,18,o),
(81,31,cs),
(185,619,ls),
(188,637,o),
(184,650,o),
(165,650,cs),
(145,650,o),
(138,639,o),
(135,623,cs),
(30,32,ls),
(27,17,o),
(35,0,o),
(53,0,cs)
);
}
);
width = 471;
},
{
layerId = m002;
shapes = (
{
closed = 1;
nodes = (
(480,566,ls),
(494,578,o),
(504,592,o),
(507,607,c),
(509,630,o),
(492,653,o),
(463,653,cs),
(452,653,o),
(434,648,o),
(418,635,cs),
(92,368,l),
(92,326,l),
(185,323,l)
);
},
{
closed = 1;
nodes = (
(379,-2,o),
(401,10,o),
(405,31,cs),
(408,44,o),
(405,57,o),
(396,71,cs),
(191,367,l),
(92,382,l),
(92,338,l),
(310,25,ls),
(321,9,o),
(340,-2,o),
(359,-2,cs)
);
},
{
closed = 1;
nodes = (
(97,-2,o),
(113,19,o),
(117,45,cs),
(215,597,ls),
(221,636,o),
(198,653,o),
(171,653,cs),
(142,653,o),
(124,637,o),
(118,609,cs),
(19,54,ls),
(14,24,o),
(34,-2,o),
(66,-2,cs)
);
}
);
width = 471;
}
);
metricLeft = N;
metricRight = N;
unicode = 75;
},
{
glyphname = L;
lastChange = "2022-02-24 10:12:11 +0000";
layers = (
{
layerId = m01;
shapes = (
{
closed = 1;
nodes = (
(74,0,o),
(77,15,o),
(79,25,cs),
(184,619,ls),
(187,637,o),
(184,650,o),
(164,650,cs),
(144,650,o),
(137,639,o),
(134,623,cs),
(29,27,ls),
(26,12,o),
(34,0,o),
(52,0,cs)
);
},
{
closed = 1;
nodes = (
(380,0,ls),
(398,0,o),
(406,14,o),
(406,26,cs),
(406,38,o),
(398,50,o),
(380,50,cs),
(53,50,l),
(53,0,l)
);
}
);
width = 488;
},
{
layerId = m002;
shapes = (
{
closed = 1;
nodes = (
(96,0,o),
(107,18,o),
(112,39,c),
(211,597,ls),
(218,639,o),
(192,650,o),
(167,650,cs),
(138,650,o),
(119,637,o),
(114,609,cs),
(15,49,ls),
(10,21,o),
(30,0,o),
(62,0,cs)
);
},
{
closed = 1;
nodes = (
(370,0,ls),
(400,0,o),
(420,22,o),
(420,46,cs),
(420,70,o),
(400,91,o),
(370,91,cs),
(55,91,l),
(55,0,l)
);
}
);
width = 488;
}
);
metricLeft = N;
metricRight = N;
unicode = 76;
},
{
glyphname = M;
lastChange = "2022-02-24 10:13:40 +0000";
layers = (
{
layerId = m01;
shapes = (
{
closed = 1;
nodes = (
(37,0,o),
(49,7,o),
(59,25,cs),
(368,619,ls),
(373,628,o),
(371,637,o),
(365,643,cs),
(361,647,o),
(354,650,o),
(345,650,cs),
(327,650,o),
(322,639,o),
(315,625,cs),
(9,38,ls),
(3,26,o),
(3,16,o),
(7,10,cs),
(11,4,o),
(18,0,o),
(26,0,cs)
);
},
{
closed = 1;
nodes = (
(415,0,o),
(421,11,o),
(420,26,cs),
(371,631,l),
(325,584,l),
(370,24,ls),
(371,14,o),
(375,0,o),
(397,0,c)
);
},
{
closed = 1;
nodes = (
(421,9,o),
(425,17,o),
(429,24,cs),
(722,586,l),
(706,648,l),
(695,644,o),
(691,635,o),
(685,624,cs),
(392,61,l),
(411,3,l)
);
},
{
closed = 1;
nodes = (
(786,0,o),
(794,11,o),
(793,26,cs),
(744,622,ls),
(743,638,o),
(736,649,o),
(714,649,cs),
(693,649,o),
(694,626,o),
(695,608,cs),
(743,24,ls),
(744,14,o),
(749,0,o),
(770,0,c)
);
}
);
width = 850;
},
{
layerId = m002;
shapes = (
{
closed = 1;
nodes = (
(66,-2,o),
(87,7,o),
(101,33,cs),
(392,591,ls),
(402,609,o),
(399,626,o),
(385,640,cs),
(377,648,o),
(363,650,o),
(348,650,cs),
(320,650,o),
(309,638,o),
(298,617,cs),
(9,64,l),
(1,46,o),
(1,32,o),
(8,19,cs),
(15,6,o),
(33,-2,o),
(48,-2,cs)
);
},
{
closed = 1;
nodes = (
(428,-2,o),
(446,18,o),
(444,46,cs),
(397,621,l),
(306,528,l),
(347,40,ls),
(349,16,o),
(366,-2,o),
(397,-2,cs)
);
},
{
closed = 1;
nodes = (
(434,4,o),
(441,18,o),
(449,31,c),
(729,568,l),
(707,650,l),
(667,650,o),
(657,638,o),
(646,616,cs),
(365,79,l),
(394,-9,l)
);
},
{
closed = 1;
nodes = (
(777,-2,o),
(796,18,o),
(794,46,cs),
(748,606,ls),
(746,635,o),
(726,650,o),
(695,650,cs),
(657,650,o),
(649,621,o),
(652,589,cs),
(697,40,ls),
(699,17,o),
(717,-2,o),
(748,-2,cs)
);
}
);
width = 850;
}
);
metricLeft = A;
metricRight = A;
unicode = 77;
},
{
glyphname = N;
lastChange = "2022-02-24 10:15:14 +0000";
layers = (
{
layerId = m01;
shapes = (
{
closed = 1;
nodes = (
(464,67,l),
(194,630,ls),
(187,645,o),
(177,654,o),
(156,648,c),
(156,589,l),
(435,10,l)
);
},
{
closed = 1;
nodes = (
(74,0,o),
(78,16,o),
(80,28,cs),
(183,612,ls),
(186,630,o),
(185,650,o),
(164,650,cs),
(142,650,o),
(137,639,o),
(134,623,cs),
(29,27,ls),
(26,12,o),
(34,0,o),
(52,0,cs)
);
},
{
closed = 1;
nodes = (
(478,0,o),
(481,15,o),
(483,25,cs),
(587,619,ls),
(590,637,o),
(587,650,o),
(568,650,cs),
(548,650,o),
(541,639,o),
(538,623,cs),
(433,27,ls),
(430,12,o),
(438,0,o),
(456,0,cs)
);
}
);
width = 564;
},
{
layerId = m002;
shapes = (
{
closed = 1;
nodes = (
(462,126,l),
(223,622,ls),
(209,652,o),
(177,658,o),
(140,639,c),
(140,569,l),
(406,19,l)
);
},
{
closed = 1;
nodes = (
(100,0,o),
(115,19,o),
(119,42,cs),
(216,592,l),
(219,622,o),
(210,650,o),
(173,650,cs),
(141,650,o),
(124,636,o),
(119,609,cs),
(21,49,ls),
(16,21,o),
(35,0,o),
(67,0,cs)
);
},
{
closed = 1;
nodes = (
(481,0,o),
(494,19,o),
(498,40,cs),
(595,597,ls),
(601,629,o),
(585,653,o),
(552,653,cs),
(524,653,o),
(504,637,o),
(499,609,cs),
(401,49,ls),
(396,21,o),
(415,0,o),
(447,0,cs)
);
}
);
width = 564;
}
);
unicode = 78;
},
{
glyphname = O;
lastChange = "2022-02-23 22:31:21 +0000";
layers = (
{
layerId = m01;
shapes = (
{
closed = 1;
nodes = (
(358,-4,o),
(547,256,o),
(562,438,cs),
(572,551,o),
(516,650,o),
(368,650,cs),
(225,650,o),
(140,557,o),
(98,409,cs),
(87,369,o),
(78,322,o),
(74,278,cs),
(62,143,o),
(94,-4,o),
(207,-4,cs)
);
},
{
closed = 1;
nodes = (
(133,47,o),
(116,178,o),
(123,268,cs),
(127,310,o),
(137,355,o),
(146,388,cs),
(184,526,o),
(246,600,o),
(363,600,cs),
(502,600,o),
(518,495,o),
(512,432,cs),
(497,269,o),
(301,47,o),
(206,47,cs)
);
}
);
width = 557;
},
{
layerId = m002;
shapes = (
{
closed = 1;
nodes = (
(374,-6,o),
(557,251,o),
(572,429,cs),
(583,548,o),
(518,652,o),
(365,652,cs),
(217,652,o),
(129,555,o),
(87,410,cs),
(76,370,o),
(67,325,o),
(64,283,cs),
(52,150,o),
(84,-6,o),
(214,-6,cs)
);
},
{
closed = 1;
nodes = (
(166,86,o),
(153,187,o),
(160,269,cs),
(163,308,o),
(172,348,o),
(180,378,cs),
(215,505,o),
(263,561,o),
(360,561,cs),
(469,561,o),
(481,484,o),
(475,427,cs),
(462,280,o),
(290,86,o),
(213,86,cs)
);
}
);
width = 557;
}
);
unicode = 79;
},
{
glyphname = P;
lastChange = "2022-02-23 23:02:55 +0000";
layers = (
{
layerId = m01;
shapes = (
{
closed = 1;
nodes = (
(298,324,o),
(477,321,o),
(477,476,cs),
(477,597,o),
(367,650,o),
(168,650,c),
(168,600,l),
(350,600,o),
(427,558,o),
(427,481,cs),
(427,367,o),
(259,374,o),
(133,374,c),
(126,324,l)
);
},
{
closed = 1;
nodes = (
(74,-4,o),
(78,15,o),
(80,25,cs),
(184,619,ls),
(187,637,o),
(185,650,o),
(164,650,cs),
(142,650,o),
(137,639,o),
(134,623,cs),
(29,27,ls),
(26,12,o),
(34,-4,o),
(52,-4,cs)
);
}
);
width = 467;
},
{
layerId = m002;
shapes = (
{
closed = 1;
nodes = (
(271,303,o),
(489,289,o),
(489,467,cs),
(489,602,o),
(376,656,o),
(165,652,c),
(165,561,l),
(349,564,o),
(392,535,o),
(392,472,cs),
(392,382,o),
(242,394,o),
(118,393,c),
(106,302,l)
);
},
{
closed = 1;
nodes = (
(98,-6,o),
(111,17,o),
(115,39,cs),
(213,597,ls),
(220,639,o),
(194,652,o),
(169,652,cs),
(139,652,o),
(121,637,o),
(116,609,cs),
(17,48,ls),
(12,21,o),
(31,-6,o),
(64,-6,cs)
);
}
);
width = 467;
}
);
metricLeft = N;
metricRight = O;
unicode = 80;
},
{
glyphname = Q;
lastChange = "2022-02-23 22:31:21 +0000";
layers = (
{
layerId = m01;
shapes = (
{
closed = 1;
nodes = (
(359,-4,o),
(544,230,o),
(560,416,cs),
(571,540,o),
(507,650,o),
(367,650,cs),
(225,650,o),
(142,563,o),
(99,411,cs),
(87,369,o),
(78,322,o),
(74,278,cs),
(62,142,o),
(94,-4,o),
(211,-4,cs)
);
},
{
closed = 1;
nodes = (
(424,-37,o),
(424,-18,o),
(416,-6,cs),
(308,151,ls),
(298,165,o),
(280,172,o),
(266,160,cs),
(254,151,o),
(256,139,o),
(267,123,cs),
(371,-29,ls),
(381,-44,o),
(397,-52,o),
(410,-45,cs)
);
},
{
closed = 1;
nodes = (
(127,47,o),
(115,173,o),
(123,264,cs),
(127,310,o),
(137,355,o),
(147,392,cs),
(185,526,o),
(241,600,o),
(359,600,cs),
(484,600,o),
(518,500,o),
(510,415,cs),
(495,255,o),
(319,47,o),
(211,47,cs)
);
}
);
width = 559;
},
{
layerId = m002;
shapes = (
{
closed = 1;
nodes = (
(373,-8,o),
(554,224,o),
(570,407,cs),
(582,536,o),
(512,651,o),
(364,651,cs),
(216,651,o),
(130,559,o),
(88,410,cs),
(77,370,o),
(67,324,o),
(64,281,cs),
(52,148,o),
(84,-8,o),
(217,-8,cs)
);
},
{
closed = 1;
nodes = (
(444,-28,o),
(447,2,o),
(430,25,cs),
(330,172,l),
(309,199,o),
(272,204,o),
(251,184,cs),
(233,169,o),
(231,149,o),
(249,122,cs),
(347,-21,ls),
(364,-47,o),
(397,-55,o),
(418,-42,cs)
);
},
{
closed = 1;
nodes = (
(161,84,o),
(152,181,o),
(160,264,cs),
(163,306,o),
(172,347,o),
(181,381,cs),
(216,504,o),
(259,560,o),
(356,560,cs),
(455,560,o),
(481,486,o),
(473,410,cs),
(460,266,o),
(306,84,o),
(217,84,cs)
);
}
);
width = 559;
}
);
metricLeft = O;
metricRight = O;
unicode = 81;
},
{
glyphname = R;
lastChange = "2022-02-23 23:03:07 +0000";
layers = (
{
layerId = m01;
shapes = (
{
closed = 1;
nodes = (
(298,323,o),
(476,321,o),
(476,476,cs),
(476,597,o),
(366,650,o),
(168,650,c),
(168,600,l),
(346,600,o),
(426,558,o),
(426,479,cs),
(426,366,o),
(259,374,o),
(133,374,c),
(126,323,l)
);
},
{
closed = 1;
nodes = (
(74,0,o),
(78,16,o),
(81,31,cs),
(184,619,ls),
(187,637,o),
(185,650,o),
(164,650,cs),
(142,650,o),
(137,639,o),
(134,623,cs),
(30,33,ls),
(27,16,o),
(34,0,o),
(52,0,cs)
);
},
{
closed = 1;
nodes = (
(384,0,o),
(394,7,o),
(397,15,cs),
(400,23,o),
(399,34,o),
(394,42,cs),
(180,346,l),
(112,353,l),
(348,18,ls),
(357,5,o),
(366,0,o),
(374,0,cs)
);
}
);
width = 466;
},
{
layerId = m002;
shapes = (
{
closed = 1;
nodes = (
(272,302,o),
(488,289,o),
(488,467,cs),
(488,602,o),
(375,658,o),
(165,653,c),
(165,562,l),
(344,565,o),
(391,535,o),
(391,470,cs),
(391,382,o),
(243,394,o),
(118,393,c),
(106,301,l)
);
},
{
closed = 1;
nodes = (
(98,-2,o),
(110,19,o),
(116,45,c),
(213,597,ls),
(220,638,o),
(197,653,o),
(169,653,cs),
(138,653,o),
(121,637,o),
(116,609,cs),
(18,54,l),
(14,20,o),
(35,-2,o),
(64,-2,cs)
);
},
{
closed = 1;
nodes = (
(386,-2,o),
(408,11,o),
(412,29,c),
(417,42,o),
(415,56,o),
(408,69,c),
(199,366,l),
(72,378,l),
(322,23,ls),
(336,3,o),
(354,-2,o),
(367,-2,cs)
);
}
);
width = 466;
}
);
metricLeft = N;
metricRight = O;
unicode = 82;
},
{
glyphname = S;
lastChange = "2022-02-23 22:31:21 +0000";
layers = (
{
layerId = m01;
shapes = (
{
closed = 1;
nodes = (
(171,0,ls),
(269,0,o),
(443,50,o),
(443,184,cs),
(443,269,o),
(373,318,o),
(355,330,cs),
(228,419,o),
(163,452,o),
(163,497,cs),
(163,555,o),
(271,600,o),
(348,600,cs),
(503,600,ls),
(516,600,o),
(526,613,o),
(526,626,cs),
(526,650,o),
(506,650,o),
(502,650,cs),
(349,650,ls),
(220,650,o),
(112,576,o),
(112,493,cs),
(112,422,o),
(190,385,o),
(314,296,cs),
(340,278,o),
(393,241,o),
(393,183,cs),
(393,83,o),
(236,50,o),
(171,50,cs),
(51,50,ls),
(38,50,o),
(27,37,o),
(27,24,cs),
(27,0,o),
(49,0,o),
(51,0,cs)
);
}
);
width = 487;
},
{
layerId = m002;
shapes = (
{
closed = 1;
nodes = (
(177,-2,ls),
(276,-2,o),
(458,50,o),
(458,192,cs),
(458,283,o),
(383,335,o),
(364,348,cs),
(245,431,o),
(195,457,o),
(195,487,cs),
(195,527,o),
(277,562,o),
(344,562,cs),
(489,562,ls),
(515,562,o),
(536,583,o),
(536,608,cs),
(536,644,o),
(506,653,o),
(488,653,cs),
(345,653,ls),
(211,653,o),
(97,575,o),
(97,483,cs),
(97,403,o),
(181,363,o),
(298,280,cs),
(320,264,o),
(361,235,o),
(361,192,cs),
(361,115,o),
(235,89,o),
(177,89,cs),
(65,89,ls),
(39,89,o),
(17,67,o),
(17,42,cs),
(17,6,o),
(51,-2,o),
(65,-2,cs)
);
}
);
width = 487;
}
);
metricLeft = O;
metricRight = O;
unicode = 83;
},
{
glyphname = T;
lastChange = "2022-02-23 22:31:21 +0000";
layers = (
{
layerId = m01;
shapes = (
{
closed = 1;
nodes = (
(212,0,o),
(215,15,o),
(217,25,c),
(321,619,l),
(324,637,o),
(323,650,o),
(302,650,cs),
(280,650,o),
(275,639,o),
(272,623,c),
(167,27,l),
(164,12,o),
(172,0,o),
(190,0,cs)
);
},
{
closed = 1;
nodes = (
(460,600,ls),
(480,600,o),
(486,613,o),
(486,625,cs),
(486,637,o),
(480,650,o),
(460,650,cs),
(136,650,ls),
(116,650,o),
(110,637,o),
(110,625,cs),
(110,613,o),
(116,600,o),
(136,600,cs)
);
}
);
width = 437;
},
{
layerId = m002;
shapes = (
{
closed = 1;
nodes = (
(229,-2,o),
(242,18,o),
(247,39,c),
(345,598,l),
(348,627,o),
(340,653,o),
(302,653,cs),
(273,653,o),
(253,638,o),
(249,608,cs),
(150,49,ls),
(144,21,o),
(165,-2,o),
(196,-2,cs)
);
},
{
closed = 1;
nodes = (
(450,562,ls),
(482,562,o),
(500,583,o),
(500,607,cs),
(500,633,o),
(480,653,o),
(450,653,cs),
(146,653,ls),
(116,653,o),
(96,633,o),
(96,607,cs),
(96,583,o),
(114,562,o),
(146,562,cs)
);
}
);
width = 437;
}
);
unicode = 84;
},
{
glyphname = U;
lastChange = "2022-02-23 22:31:21 +0000";
layers = (
{
layerId = m01;
shapes = (
{
closed = 1;
nodes = (
(200,-4,o),
(322,89,o),
(420,234,cs),
(447,274,o),
(458,297,o),
(500,381,c),
(529,520,l),
(501,520,l),
(498,509,l),
(476,415,o),
(432,349,o),
(415,320,cs),
(367,237,o),
(208,45,o),
(131,45,cs),
(84,45,o),
(96,116,o),
(107,180,cs),
(186,622,ls),
(188,630,o),
(186,636,o),
(183,640,cs),
(175,652,o),
(158,653,o),
(146,642,cs),
(141,637,o),
(137,630,o),
(135,620,cs),
(56,183,ls),
(32,52,o),
(64,-4,o),
(123,-4,cs)
);
},
{
closed = 1;
nodes = (
(447,-1,o),
(460,7,o),
(462,22,cs),
(568,624,ls),
(571,639,o),
(564,650,o),
(544,650,cs),
(526,650,o),
(519,638,o),
(517,626,cs),
(412,27,ls),
(409,8,o),
(421,-1,o),
(435,-1,cs)
);
}
);
width = 544;
},
{
layerId = m002;
shapes = (
{
closed = 1;
nodes = (
(219,-6,o),
(340,88,o),
(434,227,cs),
(462,268,o),
(472,291,o),
(512,372,c),
(546,530,l),
(468,530,l),
(463,503,ls),
(442,417,o),
(403,358,o),
(387,331,cs),
(342,254,o),
(201,84,o),
(142,84,cs),
(126,84,o),
(134,125,o),
(144,185,cs),
(218,600,ls),
(220,612,o),
(218,621,o),
(214,629,cs),
(201,655,o),
(159,659,o),
(138,638,cs),
(131,631,o),
(124,621,o),
(120,606,c),
(46,195,ls),
(22,57,o),
(61,-6,o),
(134,-6,cs)
);
},
{
closed = 1;
nodes = (
(450,-4,o),
(474,12,o),
(478,37,cs),
(577,602,ls),
(583,630,o),
(564,652,o),
(530,652,cs),
(502,652,o),
(484,635,o),
(479,612,cs),
(381,49,ls),
(376,16,o),
(399,-4,o),
(427,-4,cs)
);
}
);
width = 544;
}
);
metricLeft = N;
metricRight = N;
unicode = 85;
},
{
glyphname = V;
lastChange = "2022-02-23 22:31:21 +0000";
layers = (
{
layerId = m01;
shapes = (
{
closed = 1;
nodes = (
(233,0,o),
(234,11,o),
(241,25,cs),
(550,618,ls),
(555,627,o),
(555,635,o),
(552,640,cs),
(548,647,o),
(540,650,o),
(533,650,cs),
(525,650,o),
(519,649,o),
(515,646,cs),
(505,640,o),
(501,632,o),
(497,625,cs),
(188,31,ls),
(180,15,o),
(190,0,o),
(211,0,cs)
);
},
{
closed = 1;
nodes = (
(233,37,l),
(185,626,ls),
(184,636,o),
(180,650,o),
(158,650,c),
(140,650,o),
(134,639,o),
(135,624,cs),
(184,28,l),
(185,18,o),
(188,11,o),
(196,5,c)
);
}
);
width = 529;
},
{
layerId = m002;
shapes = (
{
closed = 1;
nodes = (
(252,-2,o),
(261,14,o),
(270,34,c),
(561,591,ls),
(568,606,o),
(568,618,o),
(563,630,cs),
(556,645,o),
(537,653,o),
(522,653,cs),
(509,653,o),
(497,650,o),
(490,644,c),
(476,635,o),
(471,626,o),
(466,618,cs),
(175,59,ls),
(160,27,o),
(182,-2,o),
(219,-2,cs)
);
},
{
closed = 1;
nodes = (
(266,45,l),
(220,610,ls),
(217,633,o),
(201,653,o),
(169,653,cs),
(140,653,o),
(121,634,o),
(123,604,cs),
(169,44,ls),
(172,19,o),
(183,10,o),
(207,-5,c)
);
}
);
width = 529;
}
);
metricLeft = N;
metricRight = N;
unicode = 86;
},
{
glyphname = W;
lastChange = "2022-02-24 10:19:42 +0000";
layers = (
{
layerId = m01;
shapes = (
{
closed = 1;
nodes = (
(601,0,o),
(606,11,o),
(613,25,cs),
(922,618,ls),
(927,627,o),
(927,635,o),
(924,640,cs),
(920,647,o),
(912,650,o),
(905,650,cs),
(897,650,o),
(891,649,o),
(887,646,cs),
(877,640,o),
(873,632,o),
(869,625,cs),
(560,31,l),
(555,22,o),
(557,13,o),
(563,7,cs),
(567,3,o),
(574,0,o),
(583,0,cs)
);
},
{
closed = 1;
nodes = (
(235,1,o),
(234,19,o),
(233,37,cs),
(185,626,ls),
(184,636,o),
(180,650,o),
(158,650,c),
(140,650,o),
(134,639,o),
(135,624,cs),
(184,28,ls),
(185,12,o),
(192,1,o),
(214,1,cs)
);
},
{
closed = 1;
nodes = (
(233,6,o),
(237,15,o),
(243,26,cs),
(552,619,l),
(517,647,l),
(507,641,o),
(503,633,o),
(499,626,cs),
(190,32,l),
(222,2,l)
);
},
{
closed = 1;
nodes = (
(607,28,l),
(558,626,ls),
(557,636,o),
(553,650,o),
(531,650,c),
(513,650,o),
(507,639,o),
(508,624,cs),
(557,19,l)
);
}
);
width = 901;
},
{
layerId = m002;
shapes = (
{
closed = 1;
nodes = (
(608,0,o),
(619,12,o),
(630,33,cs),
(922,591,ls),
(929,604,o),
(928,616,o),
(922,628,cs),
(916,644,o),
(898,650,o),
(883,650,cs),
(869,650,o),
(856,646,o),
(848,640,cs),
(838,633,o),
(831,625,o),
(826,615,cs),
(535,58,l),
(527,39,o),
(530,26,o),
(543,12,cs),
(551,4,o),
(565,0,o),
(580,0,cs)
);
},
{
closed = 1;
nodes = (
(271,0,o),
(278,26,o),
(276,56,cs),
(231,610,ls),
(229,633,o),
(213,650,o),
(181,650,cs),
(152,650,o),
(132,634,o),
(134,604,cs),
(180,44,ls),
(182,15,o),
(202,0,o),
(233,0,cs)
);
},
{
closed = 1;
nodes = (
(267,0,o),
(272,14,o),
(282,34,cs),
(581,606,l),
(522,650,l),
(492,650,o),
(485,631,o),
(479,619,cs),
(183,50,l),
(237,0,l)
);
},
{
closed = 1;
nodes = (
(627,51,l),
(581,610,ls),
(579,635,o),
(562,650,o),
(531,650,cs),
(500,650,o),
(482,632,o),
(484,604,cs),
(531,32,l)
);
}
);
width = 901;
}
);
metricLeft = N;
metricRight = N;
unicode = 87;
},
{
glyphname = X;
lastChange = "2022-02-23 22:31:21 +0000";
layers = (
{
layerId = m01;
shapes = (
{
closed = 1;
nodes = (
(48,-3,o),
(66,-4,o),
(78,11,cs),
(573,609,ls),
(585,624,o),
(582,638,o),
(573,645,cs),
(563,653,o),
(546,652,o),
(533,637,cs),
(35,38,ls),
(25,26,o),
(28,13,o),
(37,6,cs)
);
},
{
closed = 1;
nodes = (
(474,8,o),
(481,20,o),
(474,35,cs),
(189,631,ls),
(180,650,o),
(163,654,o),
(151,649,cs),
(139,645,o),
(132,631,o),
(141,613,cs),
(424,19,ls),
(433,0,o),
(451,-3,o),
(464,3,cs)
);
}
);
width = 559;
},
{
layerId = m002;
shapes = (
{
closed = 1;
nodes = (
(55,-7,o),
(91,-8,o),
(111,16,cs),
(576,578,ls),
(595,602,o),
(592,626,o),
(574,642,cs),
(556,658,o),
(521,655,o),
(499,631,c),
(32,69,ls),
(14,48,o),
(18,25,o),
(36,9,cs)
);
},
{
closed = 1;
nodes = (
(488,14,o),
(498,35,o),
(487,61,cs),
(218,623,ls),
(204,651,o),
(175,658,o),
(152,651,cs),
(126,641,o),
(113,616,o),
(129,586,c),
(394,28,ls),
(408,-1,o),
(444,-9,o),
(467,3,cs)
);
}
);
width = 559;
}
);
metricLeft = N;
metricRight = N;
unicode = 88;
},
{
glyphname = Y;
lastChange = "2022-02-23 22:31:21 +0000";
layers = (
{
layerId = m01;
shapes = (
{
closed = 1;
nodes = (
(549,609,l),
(555,616,o),
(557,623,o),
(557,629,cs),
(557,635,o),
(554,641,o),
(548,645,cs),
(541,650,o),
(534,651,o),
(528,650,cs),
(521,648,o),
(514,643,o),
(509,637,c),
(255,333,l),
(285,291,l)
);
},
{
closed = 1;
nodes = (
(250,0,o),
(253,15,o),
(255,25,c),
(312,350,l),
(262,350,l),
(205,27,l),
(202,12,o),
(210,0,o),
(228,0,cs)
);
},
{
closed = 1;
nodes = (
(297,345,l),
(161,630,l),
(157,638,o),
(152,645,o),
(145,648,cs),
(140,651,o),
(133,651,o),
(125,648,cs),
(117,645,o),
(112,640,o),
(111,634,cs),
(110,628,o),
(111,621,o),
(115,613,c),
(261,307,l)
);
}
);
width = 507;
},
{
layerId = m002;
shapes = (
{
closed = 1;
nodes = (
(555,578,ls),
(565,589,o),
(569,599,o),
(569,611,cs),
(569,623,o),
(563,634,o),
(552,642,cs),
(540,653,o),
(522,653,o),
(512,653,c),
(501,650,o),
(487,642,o),
(479,632,cs),
(230,334,l),
(286,254,l)
);
},
{
closed = 1;
nodes = (
(268,-2,o),
(281,19,o),
(285,40,cs),
(342,371,l),
(245,371,l),
(188,49,ls),
(182,21,o),
(202,-2,o),
(234,-2,cs)
);
},
{
closed = 1;
nodes = (
(328,340,l),
(194,621,ls),
(189,632,o),
(181,642,o),
(168,648,cs),
(159,653,o),
(141,654,o),
(128,649,cs),
(113,643,o),
(102,632,o),
(99,619,cs),
(97,609,o),
(99,599,o),
(105,588,cs),
(258,266,l)
);
}
);
width = 507;
}
);
metricLeft = T;
metricRight = T;
unicode = 89;
},
{
glyphname = Z;
lastChange = "2022-02-23 23:03:43 +0000";
layers = (
{
layerId = m01;
shapes = (
{
closed = 1;
nodes = (
(68,0,o),
(75,7,o),
(79,11,cs),
(574,608,ls),
(583,619,o),
(583,630,o),
(579,638,cs),
(574,645,o),
(563,650,o),
(552,650,cs),
(545,650,o),
(537,644,o),
(532,638,c),
(34,39,ls),
(28,32,o),
(26,22,o),
(31,13,cs),
(35,6,o),
(45,0,o),
(62,0,cs)
);
},
{
closed = 1;
nodes = (
(448,0,ls),
(468,0,o),
(474,13,o),
(474,25,cs),
(474,37,o),
(468,50,o),
(448,50,cs),
(55,50,l),
(55,0,l)
);
},
{
closed = 1;
nodes = (
(556,600,l),
(556,650,l),
(162,650,ls),
(142,650,o),
(136,637,o),
(136,625,cs),
(136,613,o),
(142,600,o),
(162,600,cs)
);
}
);
width = 557;
},
{
layerId = m002;
shapes = (
{
closed = 1;
nodes = (
(93,-2,o),
(107,10,o),
(113,17,cs),
(577,577,ls),
(592,595,o),
(593,613,o),
(586,629,c),
(577,643,o),
(556,653,o),
(537,653,cs),
(523,653,o),
(508,644,o),
(499,633,cs),
(31,70,ls),
(20,57,o),
(16,39,o),
(24,23,cs),
(30,11,o),
(48,-2,o),
(77,-2,cs)
);
},
{
closed = 1;
nodes = (
(439,-2,ls),
(471,-2,o),
(489,19,o),
(489,43,cs),
(489,69,o),
(469,89,o),
(439,89,cs),
(72,89,l),
(72,-2,l)
);
},
{
closed = 1;
nodes = (
(543,562,l),
(543,653,l),
(171,653,ls),
(141,653,o),
(121,633,o),
(121,607,cs),
(121,583,o),
(139,562,o),
(171,562,cs)
);
}
);
width = 557;
}
);
metricLeft = N;
metricRight = N;
unicode = 90;
},
{
glyphname = a;
lastChange = "2022-02-23 22:36:08 +0000";
layers = (
{
layerId = m01;
shapes = (
{
closed = 1;
nodes = (
(148,-4,o),
(200,50,o),
(260,126,cs),
(290,163,o),
(346,236,o),
(362,291,cs),
(365,301,l),
(320,301,l),
(292,254,o),
(259,205,o),
(218,153,cs),
(157,77,o),
(120,47,o),
(101,47,cs),
(87,47,o),
(87,62,o),
(87,78,cs),
(87,116,o),
(105,206,o),
(131,245,cs),
(161,290,o),
(212,300,o),
(246,300,cs),
(253,300,o),
(321,300,o),
(329,300,c),
(340,300,l),
(340,302,o),
(340,347,o),
(340,350,c),
(328,350,o),
(266,350,o),
(246,350,cs),
(189,350,o),
(130,333,o),
(92,276,cs),
(60,228,o),
(37,131,o),
(37,73,cs),
(37,22,o),
(57,-4,o),
(90,-4,cs)
);
},
{
closed = 1;
nodes = (
(326,0,o),
(328,18,o),
(329,23,cs),
(381,316,ls),
(383,329,o),
(383,337,o),
(380,342,cs),
(377,347,o),
(373,350,o),
(366,350,cs),
(320,350,l),
(320,261,l),
(278,23,ls),
(277,15,o),
(278,0,o),
(300,0,cs)
);
}
);
width = 411;
},
{
layerId = m002;
shapes = (
{
closed = 1;
nodes = (
(165,-15,o),
(220,43,o),
(277,115,cs),
(306,152,o),
(361,223,o),
(377,277,cs),
(389,315,l),
(298,315,l),
(270,267,o),
(238,219,o),
(198,168,cs),
(141,98,o),
(115,77,o),
(108,77,cs),
(119,77,o),
(119,77,o),
(119,84,cs),
(119,117,o),
(135,196,o),
(157,229,cs),
(180,264,o),
(215,270,o),
(244,270,cs),
(250,270,o),
(314,270,o),
(322,270,cs),
(357,270,l),
(357,295,o),
(357,339,o),
(357,361,c),
(334,361,o),
(265,361,o),
(244,361,cs),
(185,361,o),
(119,342,o),
(78,282,cs),
(45,232,o),
(22,137,o),
(22,79,cs),
(22,14,o),
(55,-15,o),
(97,-15,cs)
);
},
{
closed = 1;
nodes = (
(332,-12,o),
(343,12,o),
(347,28,c),
(396,303,ls),
(399,322,o),
(398,332,o),
(391,343,cs),
(385,355,o),
(371,361,o),
(357,361,cs),
(288,361,l),
(288,258,l),
(249,35,l),
(246,8,o),
(263,-12,o),
(295,-12,cs)
);
}
);
width = 411;
}
);
metricLeft = o;
metricRight = n;
unicode = 97;
},
{
glyphname = b;
lastChange = "2022-02-23 22:36:08 +0000";
layers = (
{
layerId = m01;
shapes = (
{
closed = 1;
nodes = (
(82,0,o),
(144,0,o),
(164,0,cs),
(221,0,o),
(280,17,o),
(318,74,cs),
(350,122,o),
(373,219,o),
(373,277,cs),
(373,328,o),
(353,354,o),
(320,354,cs),
(262,354,o),
(208,300,o),
(171,253,cs),
(132,204,o),
(95,152,o),
(70,106,c),
(70,49,l),
(90,49,l),
(118,96,o),
(151,145,o),
(206,214,cs),
(253,273,o),
(290,303,o),
(305,303,cs),
(323,303,o),
(324,289,o),
(324,273,cs),
(324,243,o),
(305,144,o),
(279,105,cs),
(249,60,o),
(203,50,o),
(164,50,cs),
(157,50,o),
(89,50,o),
(81,50,c),
(70,50,l),
(70,0,l)
);
},
{
closed = 1;
nodes = (
(90,0,l),
(90,89,l),
(184,621,ls),
(187,640,o),
(177,650,o),
(165,650,cs),
(152,650,o),
(138,641,o),
(134,621,cs),
(28,22,ls),
(26,10,o),
(32,0,o),
(44,0,c)
);
}
);
width = 413;
},
{
layerId = m002;
shapes = (
{
closed = 1;
nodes = (
(89,-2,o),
(147,-2,o),
(166,-2,cs),
(225,-2,o),
(291,16,o),
(332,77,cs),
(365,127,o),
(388,222,o),
(388,280,cs),
(388,345,o),
(355,374,o),
(313,374,cs),
(246,374,o),
(189,316,o),
(153,271,cs),
(114,221,o),
(76,168,o),
(53,124,c),
(53,44,l),
(112,44,l),
(140,92,o),
(171,139,o),
(226,207,cs),
(269,261,o),
(295,282,o),
(299,282,cs),
(292,282,o),
(292,282,o),
(292,276,cs),
(292,250,o),
(275,163,o),
(253,130,cs),
(230,95,o),
(200,89,o),
(166,89,cs),
(160,89,o),
(96,89,o),
(88,89,cs),
(53,89,l),
(53,-2,l)
);
},
{
closed = 1;
nodes = (
(122,-2,l),
(122,101,l),
(210,599,ls),
(215,632,o),
(193,653,o),
(167,653,cs),
(147,653,o),
(120,640,o),
(113,607,cs),
(13,44,ls),
(9,18,o),
(27,-2,o),
(53,-2,cs)
);
}
);
width = 413;
}
);
metricLeft = n;
metricRight = o;
unicode = 98;
},
{
glyphname = c;
lastChange = "2022-02-23 22:36:50 +0000";
layers = (
{
layerId = m01;
shapes = (
{
closed = 1;
nodes = (
(130,-4,o),
(183,32,o),
(226,84,cs),
(238,99,o),
(252,117,o),
(263,132,cs),
(269,141,o),
(271,149,o),
(271,155,cs),
(271,168,o),
(259,175,o),
(250,175,cs),
(241,175,o),
(231,171,o),
(223,161,cs),
(214,150,o),
(202,134,o),
(192,121,cs),
(157,77,o),
(124,47,o),
(104,47,cs),
(93,47,o),
(87,59,o),
(87,78,cs),
(87,116,o),
(105,206,o),
(131,245,cs),
(161,290,o),
(212,300,o),
(281,300,cs),
(294,300,o),
(303,314,o),
(303,326,cs),
(303,337,o),
(294,350,o),
(281,350,cs),
(189,350,o),
(130,333,o),
(92,276,cs),
(60,228,o),
(37,131,o),
(37,73,cs),
(37,22,o),
(60,-4,o),
(92,-4,cs)
);
}
);
width = 330;
},
{
layerId = m002;
shapes = (
{
closed = 1;
nodes = (
(143,-15,o),
(200,24,o),
(242,75,cs),
(255,91,o),
(268,108,o),
(278,122,cs),
(286,134,o),
(290,146,o),
(290,156,cs),
(290,181,o),
(267,197,o),
(245,197,cs),
(230,197,o),
(211,190,o),
(200,176,cs),
(190,163,o),
(179,148,o),
(171,137,cs),
(139,97,o),
(117,77,o),
(108,77,c),
(117,77,o),
(117,77,o),
(117,84,cs),
(117,117,o),
(133,197,o),
(154,229,cs),
(178,264,o),
(212,270,o),
(274,270,cs),
(304,270,o),
(320,297,o),
(320,317,cs),
(320,340,o),
(300,361,o),
(274,361,cs),
(183,361,o),
(116,342,o),
(76,282,cs),
(43,232,o),
(20,137,o),
(20,79,cs),
(20,18,o),
(53,-15,o),
(97,-15,cs)
);
}
);
width = 330;
}
);
metricLeft = o;
metricRight = o;
unicode = 99;
},
{
glyphname = d;
lastChange = "2022-02-23 22:36:08 +0000";
layers = (
{
layerId = m01;
shapes = (
{
closed = 1;
nodes = (
(148,-5,o),
(200,49,o),
(248,109,cs),
(290,162,o),
(341,235,o),
(361,289,cs),
(365,300,l),
(320,300,l),
(291,253,o),
(258,204,o),
(220,156,cs),
(158,76,o),
(120,46,o),
(101,46,cs),
(87,46,o),
(87,61,o),
(87,77,cs),
(87,115,o),
(105,205,o),
(131,244,cs),
(161,289,o),
(212,299,o),
(246,299,cs),
(253,299,o),
(321,299,o),
(329,299,c),
(340,299,l),
(340,301,o),
(340,346,o),
(340,349,c),
(328,349,o),
(266,349,o),
(246,349,cs),
(189,349,o),
(130,332,o),
(92,275,cs),
(60,227,o),
(37,130,o),
(37,72,cs),
(37,21,o),
(57,-5,o),
(90,-5,cs)
);
},
{
closed = 1;
nodes = (
(394,0,o),
(407,17,o),
(428,50,cs),
(447,79,o),
(450,86,o),
(450,94,cs),
(450,109,o),
(438,116,o),
(427,116,cs),
(415,116,o),
(407,108,o),
(404,104,cs),
(389,81,ls),
(375,59,o),
(367,48,o),
(360,48,cs),
(340,48,o),
(348,124,o),
(349,132,cs),
(436,623,ls),
(439,642,o),
(429,650,o),
(416,650,cs),
(403,650,o),
(388,640,o),
(385,623,cs),
(300,146,ls),
(289,86,o),
(287,0,o),
(361,0,cs)
);
}
);
width = 480;
},
{
layerId = m002;
shapes = (
{
closed = 1;
nodes = (
(167,-7,o),
(222,51,o),
(268,108,cs),
(308,160,o),
(358,231,o),
(377,283,cs),
(393,323,l),
(300,323,l),
(271,275,o),
(239,226,o),
(201,180,cs),
(144,106,o),
(118,85,o),
(110,85,cs),
(121,85,o),
(121,85,o),
(121,92,cs),
(121,125,o),
(137,204,o),
(159,237,cs),
(182,272,o),
(217,278,o),
(246,278,cs),
(252,278,o),
(316,278,o),
(324,278,cs),
(359,278,l),
(359,303,o),
(359,347,o),
(359,369,c),
(336,369,o),
(267,369,o),
(246,369,cs),
(187,369,o),
(121,350,o),
(80,290,cs),
(47,240,o),
(24,145,o),
(24,87,cs),
(24,22,o),
(57,-7,o),
(99,-7,cs)
);
},
{
closed = 1;
nodes = (
(394,-3,o),
(413,16,o),
(438,54,cs),
(460,88,o),
(463,96,o),
(463,108,cs),
(463,135,o),
(439,150,o),
(416,150,cs),
(398,150,o),
(381,140,o),
(373,128,cs),
(359,107,ls),
(345,86,o),
(345,86,o),
(353,86,cs),
(364,86,o),
(367,134,o),
(368,140,cs),
(449,601,ls),
(454,634,o),
(433,652,o),
(406,652,cs),
(381,652,o),
(356,635,o),
(352,608,cs),
(272,161,ls),
(260,98,o),
(258,-3,o),
(354,-3,cs)
);
}
);
width = 480;
}
);
metricLeft = o;
unicode = 100;
},
{
glyphname = e;
lastChange = "2022-02-23 22:36:08 +0000";
layers = (
{
layerId = m01;
shapes = (
{
closed = 1;
nodes = (
(200,-4,o),
(238,50,o),
(249,64,cs),
(271,93,o),
(266,106,o),
(256,113,cs),
(245,121,o),
(230,122,o),
(211,97,cs),
(200,84,o),
(174,45,o),
(128,45,cs),
(96,45,o),
(89,64,o),
(91,98,cs),
(94,142,o),
(112,216,o),
(141,259,cs),
(165,294,o),
(195,306,o),
(220,306,cs),
(238,306,o),
(247,300,o),
(247,290,cs),
(247,269,o),
(204,239,o),
(155,210,cs),
(130,196,o),
(102,181,o),
(80,169,c),
(68,108,l),
(83,115,o),
(145,147,o),
(183,168,cs),
(223,191,o),
(298,230,o),
(298,291,cs),
(298,332,o),
(263,353,o),
(212,353,cs),
(193,353,o),
(144,350,o),
(100,284,cs),
(71,240,o),
(44,167,o),
(40,107,cs),
(33,19,o),
(79,-4,o),
(127,-4,cs)
);
}
);
width = 332;
},
{
layerId = m002;
shapes = (
{
closed = 1;
nodes = (
(212,-15,o),
(255,45,o),
(264,58,cs),
(296,99,o),
(283,121,o),
(268,133,cs),
(252,146,o),
(217,153,o),
(188,115,cs),
(177,101,o),
(160,75,o),
(130,75,cs),
(119,75,o),
(119,75,o),
(121,102,cs),
(123,141,o),
(139,206,o),
(164,242,cs),
(182,270,o),
(198,276,o),
(217,276,c),
(217,276,o),
(217,276,o),
(217,283,cs),
(217,274,o),
(187,253,o),
(144,227,cs),
(114,211,o),
(83,194,o),
(62,182,c),
(41,70,l),
(100,100,o),
(159,130,o),
(194,149,cs),
(234,172,o),
(315,214,o),
(315,284,cs),
(315,338,o),
(267,364,o),
(209,364,cs),
(190,364,o),
(131,361,o),
(83,289,cs),
(54,244,o),
(26,172,o),
(23,113,cs),
(15,12,o),
(74,-15,o),
(129,-15,cs)
);
}
);
width = 332;
}
);
metricLeft = o;
metricRight = o;
unicode = 101;
},
{
glyphname = f;
lastChange = "2022-02-24 10:22:00 +0000";
layers = (
{
layerId = m01;
shapes = (
{
closed = 1;
nodes = (
(133,0,o),
(140,15,o),
(142,27,cs),
(228,518,ls),
(235,558,o),
(264,600,o),
(297,600,cs),
(391,600,ls),
(408,600,o),
(416,614,o),
(416,625,cs),
(416,635,o),
(408,650,o),
(391,650,cs),
(297,650,ls),
(247,650,o),
(195,616,o),
(179,527,cs),
(91,28,ls),
(89,16,o),
(98,0,o),
(116,0,cs)
);
},
{
closed = 1;
nodes = (
(268,305,ls),
(288,305,o),
(294,316,o),
(294,328,cs),
(294,340,o),
(288,350,o),
(268,350,cs),
(74,350,ls),
(54,350,o),
(48,340,o),
(48,328,cs),
(48,316,o),
(54,305,o),
(74,305,cs)
);
}
);
width = 282;
},
{
layerId = m002;
shapes = (
{
closed = 1;
nodes = (
(150,-2,o),
(169,18,o),
(172,42,cs),
(253,502,ls),
(259,536,o),
(276,562,o),
(293,562,cs),
(381,562,ls),
(410,562,o),
(430,584,o),
(430,607,cs),
(430,629,o),
(410,653,o),
(381,653,cs),
(293,653,ls),
(235,653,o),
(174,614,o),
(157,519,cs),
(74,49,ls),
(70,26,o),
(89,-2,o),
(123,-2,cs)
);
},
{
closed = 1;
nodes = (
(266,284,ls),
(296,284,o),
(315,302,o),
(315,328,cs),
(315,352,o),
(298,371,o),
(266,371,cs),
(83,371,ls),
(52,371,o),
(34,352,o),
(34,328,cs),
(34,304,o),
(52,284,o),
(83,284,cs)
);
}
);
width = 282;
}
);
metricLeft = t;
unicode = 102;
},
{
glyphname = g;
lastChange = "2022-02-23 22:36:08 +0000";
layers = (
{
layerId = m01;
shapes = (
{
closed = 1;
nodes = (
(27,-300,o),
(116,-295,o),
(149,-290,cs),
(203,-282,o),
(243,-254,o),
(268,-212,cs),
(301,-159,o),
(310,-83,o),
(325,1,cs),
(383,326,ls),
(386,343,o),
(375,350,o),
(358,350,c),
(333,350,l),
(309,198,l),
(274,1,ls),
(262,-67,o),
(255,-138,o),
(226,-185,cs),
(208,-215,o),
(181,-236,o),
(135,-241,cs),
(112,-244,o),
(20,-250,o),
(5,-250,cs),
(-16,-250,o),
(-29,-262,o),
(-29,-276,cs),
(-29,-291,o),
(-16,-300,o),
(9,-300,cs)
);
},
{
closed = 1;
nodes = (
(152,-4,o),
(200,50,o),
(234,93,cs),
(290,163,o),
(338,240,o),
(361,292,cs),
(365,301,l),
(320,301,l),
(291,254,o),
(258,205,o),
(220,157,cs),
(158,77,o),
(120,47,o),
(101,47,cs),
(87,47,o),
(87,62,o),
(87,78,cs),
(87,116,o),
(105,206,o),
(131,245,cs),
(161,290,o),
(212,300,o),
(246,300,cs),
(253,300,o),
(321,300,o),
(329,300,c),
(340,300,l),
(340,302,o),
(340,347,o),
(340,350,c),
(328,350,o),
(266,350,o),
(246,350,cs),
(189,350,o),
(130,333,o),
(92,276,cs),
(60,228,o),
(37,131,o),
(37,73,cs),
(37,22,o),
(57,-4,o),
(90,-4,cs)
);
}
);
width = 411;
},
{
layerId = m002;
shapes = (
{
closed = 1;
nodes = (
(37,-303,o),
(123,-298,o),
(155,-293,cs),
(213,-285,o),
(258,-253,o),
(284,-210,cs),
(318,-154,o),
(327,-80,o),
(341,-2,cs),
(396,305,l),
(400,338,o),
(374,353,o),
(347,353,cs),
(302,353,l),
(276,192,l),
(243,6,ls),
(232,-58,o),
(226,-122,o),
(202,-161,cs),
(186,-187,o),
(170,-199,o),
(135,-203,cs),
(113,-206,o),
(28,-212,o),
(15,-212,cs),
(-17,-212,o),
(-42,-232,o),
(-42,-258,cs),
(-42,-282,o),
(-21,-303,o),
(19,-303,cs)
);
},
{
closed = 1;
nodes = (
(167,-24,o),
(219,36,o),
(251,75,cs),
(304,143,o),
(351,218,o),
(373,267,cs),
(392,306,l),
(296,306,l),
(267,258,o),
(235,209,o),
(197,163,cs),
(140,89,o),
(114,68,o),
(106,68,cs),
(117,68,o),
(117,68,o),
(117,75,cs),
(117,109,o),
(133,187,o),
(155,220,cs),
(178,255,o),
(213,262,o),
(242,262,cs),
(248,262,o),
(312,262,o),
(320,262,cs),
(355,262,l),
(355,286,o),
(355,331,o),
(355,353,c),
(332,353,o),
(263,353,o),
(242,353,cs),
(183,353,o),
(117,334,o),
(76,273,cs),
(43,223,o),
(20,128,o),
(20,70,cs),
(20,5,o),
(53,-24,o),
(95,-24,cs)
);
}
);
width = 411;
}
);
metricLeft = o;
metricRight = n;
unicode = 103;
},
{
glyphname = h;
lastChange = "2022-02-23 22:57:39 +0000";
layers = (
{
layerId = m01;
shapes = (
{
closed = 1;
nodes = (
(331,0,o),
(333,18,o),
(334,23,cs),
(373,234,ls),
(384,291,o),
(373,354,o),
(316,354,cs),
(222,354,o),
(126,185,o),
(68,98,c),
(76,14,l),
(145,129,o),
(257,305,o),
(308,305,cs),
(333,305,o),
(327,261,o),
(322,234,cs),
(283,23,ls),
(282,15,o),
(283,0,o),
(305,0,c)
);
},
{
closed = 1;
nodes = (
(62,0,o),
(76,7,o),
(79,23,cs),
(185,623,ls),
(188,641,o),
(177,650,o),
(164,650,cs),
(151,650,o),
(137,641,o),
(134,623,cs),
(28,23,ls),
(25,8,o),
(36,0,o),
(49,0,cs)
);
}
);
width = 418;
},
{
layerId = m002;
shapes = (
{
closed = 1;
nodes = (
(335,-2,o),
(348,21,o),
(351,37,cs),
(388,235,ls),
(399,295,o),
(387,374,o),
(309,374,cs),
(200,374,o),
(103,193,o),
(50,117,c),
(108,28,l),
(161,123,o),
(261,284,o),
(302,284,cs),
(287,284,o),
(295,270,o),
(290,243,cs),
(253,45,l),
(250,20,o),
(266,-2,o),
(299,-2,cs)
);
},
{
closed = 1;
nodes = (
(80,-2,o),
(106,11,o),
(111,38,cs),
(211,601,ls),
(217,633,o),
(194,653,o),
(166,653,cs),
(143,653,o),
(118,637,o),
(113,609,cs),
(13,44,ls),
(8,13,o),
(35,-2,o),
(58,-2,cs)
);
}
);
width = 418;
}
);
metricLeft = n;
metricRight = n;
unicode = 104;
},
{
glyphname = i;
lastChange = "2022-02-23 22:36:08 +0000";
layers = (
{
layerId = m01;
shapes = (
{
closed = 1;
nodes = (
(27,9,o),
(38,0,o),
(51,0,cs),
(63,0,o),
(78,10,o),
(81,28,cs),
(133,320,ls),
(137,340,o),
(125,350,o),
(113,350,cs),
(100,350,o),
(85,341,o),
(82,323,cs),
(30,28,ls)
);
},
{
closed = 1;
nodes = (
(149,441,o),
(162,454,o),
(162,468,cs),
(162,483,o),
(148,494,o),
(134,494,cs),
(118,494,o),
(107,481,o),
(107,468,cs),
(107,454,o),
(119,441,o),
(134,441,cs)
);
}
);
width = 163;
},
{
layerId = m002;
shapes = (
{
closed = 1;
nodes = (
(4,12,o),
(26,-7,o),
(54,-7,cs),
(76,-7,o),
(102,9,o),
(107,37,cs),
(156,312,ls),
(163,345,o),
(137,366,o),
(112,366,cs),
(89,366,o),
(63,350,o),
(58,322,cs),
(9,45,ls)
);
},
{
closed = 1;
nodes = (
(159,407,o),
(183,429,o),
(183,455,cs),
(183,482,o),
(158,501,o),
(132,501,cs),
(104,501,o),
(81,480,o),
(81,455,cs),
(81,429,o),
(105,407,o),
(132,407,cs)
);
}
);
width = 163;
}
);
metricLeft = n;
metricRight = "=n-3";
unicode = 105;
},
{
glyphname = j;
lastChange = "2022-02-23 22:36:08 +0000";
layers = (
{
layerId = m01;
shapes = (
{
closed = 1;
nodes = (
(-221,-304,o),
(-133,-299,o),
(-100,-294,cs),
(-46,-286,o),
(-7,-257,o),
(18,-217,cs),
(52,-163,o),
(61,-87,o),
(76,-3,cs),
(133,317,ls),
(137,338,o),
(124,350,o),
(110,350,cs),
(98,350,o),
(84,341,o),
(80,320,cs),
(25,-3,ls),
(13,-71,o),
(5,-142,o),
(-23,-189,cs),
(-41,-219,o),
(-68,-240,o),
(-116,-246,cs),
(-137,-248,o),
(-220,-254,o),
(-239,-254,cs),
(-265,-254,o),
(-278,-267,o),
(-278,-281,cs),
(-278,-296,o),
(-264,-304,o),
(-240,-304,cs)
);
},
{
closed = 1;
nodes = (
(148,440,o),
(161,453,o),
(161,468,cs),
(161,484,o),
(148,495,o),
(133,495,cs),
(118,495,o),
(106,484,o),
(106,468,cs),
(106,453,o),
(118,440,o),
(133,440,cs)
);
}
);
width = 165;
},
{
layerId = m002;
shapes = (
{
closed = 1;
nodes = (
(-210,-302,o),
(-126,-297,o),
(-94,-293,cs),
(-35,-283,o),
(9,-251,o),
(34,-210,cs),
(69,-154,o),
(79,-79,o),
(93,-1,cs),
(147,300,ls),
(152,334,o),
(128,357,o),
(100,357,cs),
(77,357,o),
(52,340,o),
(47,311,cs),
(-5,7,ls),
(-16,-58,o),
(-23,-122,o),
(-46,-161,cs),
(-62,-186,o),
(-78,-199,o),
(-116,-204,cs),
(-137,-205,o),
(-211,-211,o),
(-228,-211,cs),
(-266,-211,o),
(-290,-232,o),
(-290,-258,cs),
(-290,-283,o),
(-269,-302,o),
(-229,-302,cs)
);
},
{
closed = 1;
nodes = (
(149,397,o),
(173,419,o),
(173,446,cs),
(173,474,o),
(149,493,o),
(122,493,cs),
(94,493,o),
(71,474,o),
(71,446,cs),
(71,419,o),
(94,397,o),
(122,397,cs)
);
}
);
width = 165;
}
);
metricRight = n;
unicode = 106;
},
{
glyphname = k;
lastChange = "2022-02-24 10:23:35 +0000";
layers = (
{
layerId = m01;
shapes = (
{
closed = 1;
nodes = (
(65,0,o),
(77,7,o),
(80,26,cs),
(185,621,ls),
(189,642,o),
(177,650,o),
(161,650,cs),
(146,650,o),
(137,639,o),
(134,622,cs),
(29,26,ls),
(26,10,o),
(36,0,o),
(49,0,cs)
);
},
{
closed = 1;
nodes = (
(311,-1,o),
(321,5,o),
(324,16,cs),
(326,23,o),
(325,31,o),
(318,41,cs),
(226,174,l),
(162,174,l),
(271,18,ls),
(278,8,o),
(288,-1,o),
(301,-1,cs)
);
},
{
closed = 1;
nodes = (
(92,122,o),
(130,170,o),
(159,210,cs),
(176,234,o),
(200,258,o),
(218,273,cs),
(238,289,o),
(265,304,o),
(278,304,cs),
(294,304,o),
(291,279,o),
(289,271,cs),
(284,245,o),
(266,236,o),
(240,219,cs),
(220,205,o),
(191,188,o),
(162,173,c),
(219,146,l),
(238,158,o),
(256,169,o),
(273,181,cs),
(306,205,o),
(331,228,o),
(339,272,cs),
(345,310,o),
(337,354,o),
(288,354,cs),
(257,354,o),
(220,337,o),
(188,312,cs),
(161,291,o),
(106,225,o),
(89,201,c),
(61,39,l)
);
}
);
width = 391;
},
{
layerId = m002;
shapes = (
{
closed = 1;
nodes = (
(83,-3,o),
(106,11,o),
(111,40,cs),
(210,599,ls),
(217,637,o),
(188,652,o),
(162,652,cs),
(139,652,o),
(117,638,o),
(112,608,cs),
(13,47,ls),
(8,18,o),
(31,-3,o),
(57,-3,cs)
);
},
{
closed = 1;
nodes = (
(313,-3,o),
(335,9,o),
(340,30,cs),
(344,43,o),
(341,55,o),
(332,69,cs),
(238,205,l),
(118,205,l),
(245,24,ls),
(256,8,o),
(275,-3,o),
(294,-3,cs)
);
},
{
closed = 1;
nodes = (
(122,151,o),
(140,177,o),
(167,214,cs),
(183,236,o),
(209,258,o),
(224,270,cs),
(242,284,o),
(270,294,o),
(275,289,cs),
(282,282,o),
(277,276,o),
(270,270,cs),
(257,260,o),
(251,255,o),
(227,239,cs),
(196,218,o),
(148,199,o),
(108,197,c),
(219,131,l),
(242,146,o),
(264,158,o),
(283,172,cs),
(317,197,o),
(346,224,o),
(355,272,cs),
(362,323,o),
(344,374,o),
(282,374,cs),
(246,374,o),
(205,355,o),
(173,330,cs),
(140,305,o),
(80,231,o),
(71,215,c),
(86,109,l)
);
}
);
width = 391;
}
);
metricLeft = n;
unicode = 107;
},
{
glyphname = l;
lastChange = "2022-02-23 22:36:50 +0000";
layers = (
{
layerId = m01;
shapes = (
{
closed = 1;
nodes = (
(64,0,o),
(75,7,o),
(78,22,cs),
(184,624,ls),
(187,640,o),
(174,650,o),
(160,650,cs),
(149,650,o),
(138,644,o),
(135,629,cs),
(29,27,ls),
(26,9,o),
(39,0,o),
(53,0,cs)
);
}
);
width = 160;
},
{
layerId = m002;
shapes = (
{
closed = 1;
nodes = (
(78,-2,o),
(99,11,o),
(105,36,c),
(204,602,ls),
(209,631,o),
(185,653,o),
(157,653,cs),
(135,653,o),
(114,640,o),
(108,615,c),
(9,49,ls),
(3,14,o),
(33,-2,o),
(56,-2,cs)
);
}
);
width = 160;
}
);
metricLeft = n;
metricRight = n;
unicode = 108;
},
{
glyphname = m;
lastChange = "2022-02-24 10:24:32 +0000";
layers = (
{
layerId = m01;
shapes = (
{
closed = 1;
nodes = (
(316,-1,o),
(318,17,o),
(319,22,cs),
(358,233,ls),
(369,290,o),
(361,353,o),
(300,353,cs),
(208,353,o),
(139,208,o),
(81,121,c),
(74,10,l),
(143,125,o),
(242,304,o),
(293,304,cs),
(318,304,o),
(312,260,o),
(307,233,cs),
(268,22,ls),
(267,14,o),
(268,-1,o),
(290,-1,c)
);
},
{
closed = 1;
nodes = (
(76,0,o),
(78,18,o),
(79,23,cs),
(132,323,ls),
(133,330,o),
(133,338,o),
(131,342,cs),
(128,347,o),
(122,350,o),
(114,350,c),
(104,350,o),
(97,348,o),
(92,344,cs),
(87,340,o),
(83,333,o),
(81,323,cs),
(28,23,ls),
(27,15,o),
(28,0,o),
(50,0,cs)
);
},
{
closed = 1;
nodes = (
(557,0,o),
(559,18,o),
(560,23,cs),
(599,234,ls),
(610,291,o),
(602,354,o),
(541,354,cs),
(450,354,o),
(380,211,o),
(322,124,c),
(315,11,l),
(384,126,o),
(483,305,o),
(534,305,cs),
(559,305,o),
(553,261,o),
(548,234,cs),
(509,23,ls),
(508,15,o),
(509,0,o),
(531,0,c)
);
}
);
width = 644;
},
{
layerId = m002;
shapes = (
{
closed = 1;
nodes = (
(330,-12,o),
(340,13,o),
(344,27,c),
(380,226,ls),
(391,284,o),
(382,364,o),
(301,364,cs),
(193,364,o),
(129,210,o),
(74,131,c),
(108,7,l),
(168,88,o),
(252,274,o),
(294,274,cs),
(280,274,o),
(288,260,o),
(283,234,cs),
(246,35,l),
(243,10,o),
(259,-12,o),
(292,-12,cs)
);
},
{
closed = 1;
nodes = (
(104,-11,o),
(116,14,o),
(118,28,cs),
(168,311,l),
(169,323,o),
(169,333,o),
(165,341,cs),
(158,354,o),
(142,362,o),
(126,362,cs),
(113,362,o),
(98,358,o),
(89,351,c),
(87,351,o),
(74,334,o),
(70,318,c),
(20,35,ls),
(16,11,o),
(33,-11,o),
(66,-11,cs)
);
},
{
closed = 1;
nodes = (
(557,-11,o),
(566,14,o),
(570,28,c),
(607,227,ls),
(618,285,o),
(610,365,o),
(527,365,cs),
(422,365,o),
(359,219,o),
(306,141,c),
(334,7,l),
(394,88,o),
(479,275,o),
(521,275,cs),
(506,275,o),
(514,261,o),
(509,235,cs),
(472,36,l),
(469,11,o),
(485,-11,o),
(518,-11,cs)
);
}
);
width = 644;
}
);
metricLeft = n;
metricRight = n;
unicode = 109;
},
{
glyphname = n;
lastChange = "2022-02-24 10:25:13 +0000";
layers = (
{
layerId = m01;
shapes = (
{
closed = 1;
nodes = (
(331,0,o),
(333,18,o),
(334,23,cs),
(373,234,ls),
(384,291,o),
(376,354,o),
(316,354,cs),
(224,354,o),
(139,206,o),
(81,119,c),
(74,11,l),
(143,126,o),
(257,305,o),
(308,305,cs),
(333,305,o),
(327,261,o),
(322,234,cs),
(283,23,ls),
(282,15,o),
(283,0,o),
(305,0,c)
);
},
{
closed = 1;
nodes = (
(76,0,o),
(78,18,o),
(79,23,cs),
(132,323,ls),
(133,330,o),
(133,338,o),
(131,342,cs),
(128,347,o),
(122,350,o),
(114,350,c),
(104,350,o),
(97,348,o),
(92,344,cs),
(87,340,o),
(83,333,o),
(81,323,cs),
(28,23,ls),
(27,15,o),
(28,0,o),
(50,0,cs)
);
}
);
width = 418;
},
{
layerId = m002;
shapes = (
{
closed = 1;
nodes = (
(337,-11,o),
(347,14,o),
(351,28,c),
(388,227,ls),
(399,285,o),
(391,365,o),
(309,365,cs),
(203,365,o),
(118,207,o),
(64,129,c),
(109,23,l),
(148,90,o),
(257,275,o),
(302,275,cs),
(287,275,o),
(295,261,o),
(290,235,cs),
(253,36,l),
(250,11,o),
(266,-11,o),
(299,-11,cs)
);
},
{
closed = 1;
nodes = (
(98,-11,o),
(107,15,o),
(111,28,c),
(161,311,l),
(162,323,o),
(162,333,o),
(158,341,cs),
(151,354,o),
(135,362,o),
(119,362,cs),
(104,362,o),
(88,357,o),
(81,349,cs),
(74,343,o),
(66,333,o),
(63,318,cs),
(13,34,l),
(12,4,o),
(31,-11,o),
(59,-11,cs)
);
}
);
width = 418;
}
);
unicode = 110;
},
{
glyphname = o;
lastChange = "2022-02-23 22:36:08 +0000";
layers = (
{
layerId = m01;
shapes = (
{
closed = 1;
nodes = (
(209,-4,o),
(315,158,o),
(315,260,cs),
(315,319,o),
(280,351,o),
(210,351,cs),
(151,351,o),
(112,314,o),
(88,271,cs),
(70,237,o),
(41,170,o),
(41,95,cs),
(41,20,o),
(66,-4,o),
(106,-4,cs)
);
},
{
closed = 1;
nodes = (
(91,46,o),
(91,77,o),
(91,105,cs),
(91,152,o),
(110,203,o),
(134,251,cs),
(155,287,o),
(177,301,o),
(207,301,cs),
(247,301,o),
(265,287,o),
(265,247,cs),
(265,182,o),
(175,46,o),
(118,46,cs)
);
}
);
width = 356;
},
{
layerId = m002;
shapes = (
{
closed = 1;
nodes = (
(225,-15,o),
(332,151,o),
(332,255,cs),
(332,322,o),
(288,362,o),
(208,362,cs),
(141,362,o),
(96,320,o),
(71,276,cs),
(53,241,o),
(24,174,o),
(24,100,cs),
(24,16,o),
(59,-15,o),
(110,-15,cs)
);
},
{
closed = 1;
nodes = (
(121,76,o),
(121,83,o),
(121,109,cs),
(121,150,o),
(137,193,o),
(159,236,cs),
(176,265,o),
(185,271,o),
(205,271,cs),
(234,271,o),
(235,270,o),
(235,243,cs),
(235,187,o),
(161,76,o),
(122,76,cs)
);
}
);
width = 356;
}
);
unicode = 111;
},
{
glyphname = p;
lastChange = "2022-02-23 22:36:50 +0000";
layers = (
{
layerId = m01;
shapes = (
{
closed = 1;
nodes = (
(83,0,o),
(145,0,o),
(165,0,cs),
(222,0,o),
(281,17,o),
(319,74,cs),
(351,122,o),
(374,219,o),
(374,277,cs),
(374,328,o),
(354,354,o),
(321,354,cs),
(263,354,o),
(211,300,o),
(174,253,cs),
(121,187,o),
(70,114,o),
(50,60,cs),
(46,49,l),
(91,49,l),
(119,96,o),
(152,145,o),
(207,214,cs),
(254,273,o),
(291,303,o),
(306,303,cs),
(324,303,o),
(324,288,o),
(324,272,cs),
(324,235,o),
(306,144,o),
(280,105,cs),
(250,60,o),
(199,50,o),
(165,50,cs),
(158,50,o),
(90,50,o),
(82,50,c),
(71,50,l),
(71,48,o),
(71,3,o),
(71,0,c)
);
},
{
closed = 1;
nodes = (
(9,-300,o),
(23,-292,o),
(26,-277,cs),
(133,327,ls),
(136,342,o),
(124,350,o),
(111,350,cs),
(99,350,o),
(85,342,o),
(82,327,cs),
(-25,-276,ls),
(-28,-292,o),
(-16,-300,o),
(-3,-300,cs)
);
}
);
width = 414;
},
{
layerId = m002;
shapes = (
{
closed = 1;
nodes = (
(75,-20,o),
(145,-20,o),
(166,-20,cs),
(224,-20,o),
(291,-1,o),
(331,59,cs),
(364,109,o),
(387,204,o),
(387,262,cs),
(387,327,o),
(354,356,o),
(312,356,cs),
(245,356,o),
(190,298,o),
(154,253,cs),
(103,188,o),
(52,117,o),
(33,64,cs),
(22,26,l),
(111,26,l),
(139,74,o),
(170,121,o),
(225,189,cs),
(268,243,o),
(294,264,o),
(298,264,cs),
(290,264,o),
(290,264,o),
(290,257,cs),
(290,225,o),
(274,144,o),
(253,112,cs),
(229,77,o),
(195,71,o),
(166,71,cs),
(159,71,o),
(95,71,o),
(88,71,cs),
(52,71,l),
(52,46,o),
(52,2,o),
(52,-20,c)
);
},
{
closed = 1;
nodes = (
(30,-302,o),
(54,-288,o),
(60,-263,c),
(160,305,ls),
(166,333,o),
(142,353,o),
(115,353,cs),
(93,353,o),
(67,337,o),
(63,312,cs),
(-38,-254,ls),
(-44,-287,o),
(-15,-302,o),
(8,-302,cs)
);
}
);
width = 414;
}
);
metricLeft = n;
metricRight = o;
unicode = 112;
},
{
glyphname = q;
lastChange = "2022-02-24 10:26:12 +0000";
layers = (
{
layerId = m01;
shapes = (
{
closed = 1;
nodes = (
(148,-4,o),
(200,50,o),
(241,101,cs),
(290,163,o),
(338,240,o),
(361,292,cs),
(365,301,l),
(320,301,l),
(292,254,o),
(259,205,o),
(218,153,cs),
(157,77,o),
(120,47,o),
(101,47,cs),
(87,47,o),
(87,62,o),
(87,78,cs),
(87,116,o),
(105,206,o),
(131,245,cs),
(161,290,o),
(212,300,o),
(246,300,cs),
(253,300,o),
(321,300,o),
(329,300,c),
(340,300,l),
(340,302,o),
(340,347,o),
(340,350,c),
(328,350,o),
(266,350,o),
(246,350,cs),
(189,350,o),
(130,333,o),
(92,276,cs),
(60,228,o),
(37,131,o),
(37,73,cs),
(37,22,o),
(57,-4,o),
(90,-4,cs)
);
},
{
closed = 1;
nodes = (
(383,327,ls),
(384,335,o),
(383,350,o),
(361,350,cs),
(336,350,l),
(225,-273,ls),
(222,-291,o),
(232,-300,o),
(244,-300,cs),
(257,-300,o),
(272,-291,o),
(275,-273,cs)
);
},
{
closed = 1;
nodes = (
(262,-294,l),
(370,-205,ls),
(382,-195,o),
(387,-185,o),
(389,-176,cs),
(390,-164,o),
(382,-154,o),
(369,-154,cs),
(361,-153,o),
(350,-157,o),
(338,-167,cs),
(256,-235,l)
);
}
);
width = 411;
},
{
layerId = m002;
shapes = (
{
closed = 1;
nodes = (
(165,-24,o),
(220,35,o),
(259,82,cs),
(306,144,o),
(351,219,o),
(375,268,cs),
(394,306,l),
(299,306,l),
(270,258,o),
(238,209,o),
(198,159,cs),
(141,89,o),
(116,68,o),
(108,68,cs),
(120,68,o),
(120,68,o),
(120,75,cs),
(120,109,o),
(135,187,o),
(157,220,cs),
(180,255,o),
(215,262,o),
(244,262,cs),
(251,262,o),
(315,262,o),
(322,262,cs),
(357,262,l),
(357,286,o),
(357,331,o),
(357,353,c),
(334,353,o),
(265,353,o),
(244,353,cs),
(185,353,o),
(119,334,o),
(78,273,cs),
(45,223,o),
(23,128,o),
(23,70,cs),
(23,3,o),
(57,-24,o),
(97,-24,cs)
);
},
{
closed = 1;
nodes = (
(398,305,l),
(401,330,o),
(386,353,o),
(352,353,cs),
(308,353,l),
(199,-251,ls),
(193,-283,o),
(216,-303,o),
(242,-303,cs),
(265,-303,o),
(291,-287,o),
(296,-259,cs)
);
},
{
closed = 1;
nodes = (
(274,-293,l),
(377,-208,ls),
(392,-196,o),
(401,-181,o),
(403,-166,cs),
(405,-144,o),
(389,-122,o),
(362,-121,cs),
(349,-120,o),
(332,-124,o),
(315,-138,cs),
(230,-209,l)
);
}
);
width = 411;
}
);
metricLeft = o;
unicode = 113;
},
{
glyphname = r;
lastChange = "2022-02-24 10:39:37 +0000";
layers = (
{
layerId = m01;
shapes = (
{
closed = 1;
nodes = (
(131,163,o),
(153,194,o),
(182,228,cs),
(200,249,o),
(224,275,o),
(245,289,cs),
(258,298,o),
(268,301,o),
(271,301,cs),
(282,301,o),
(290,271,o),
(291,268,cs),
(296,249,o),
(304,241,o),
(319,241,cs),
(338,241,o),
(342,253,o),
(341,265,cs),
(340,281,o),
(329,329,o),
(313,341,cs),
(308,345,o),
(297,350,o),
(276,350,cs),
(263,350,o),
(243,348,o),
(221,334,cs),
(204,323,o),
(178,300,o),
(151,271,cs),
(135,254,o),
(117,233,o),
(108,216,c),
(86,91,l)
);
},
{
closed = 1;
nodes = (
(63,0,o),
(77,9,o),
(80,27,cs),
(131,320,ls),
(134,340,o),
(123,350,o),
(110,350,cs),
(98,350,o),
(84,341,o),
(81,323,cs),
(29,27,ls),
(26,9,o),
(37,0,o),
(50,0,cs)
);
}
);
width = 356;
},
{
layerId = m002;
shapes = (
{
closed = 1;
nodes = (
(127,97,o),
(176,181,o),
(201,211,cs),
(219,231,o),
(231,246,o),
(247,259,cs),
(256,267,o),
(267,275,o),
(267,275,c),
(267,263,o),
(271,247,o),
(274,241,cs),
(277,234,o),
(289,215,o),
(311,215,cs),
(341,215,o),
(359,233,o),
(357,262,cs),
(356,281,o),
(344,325,o),
(323,346,cs),
(317,351,o),
(300,362,o),
(271,362,cs),
(256,362,o),
(231,359,o),
(205,342,cs),
(187,331,o),
(159,308,o),
(135,280,cs),
(117,261,o),
(96,238,o),
(89,220,c),
(101,16,l)
);
},
{
closed = 1;
nodes = (
(81,-11,o),
(106,4,o),
(111,32,cs),
(159,307,ls),
(165,341,o),
(142,362,o),
(114,362,cs),
(92,362,o),
(67,346,o),
(62,318,cs),
(13,39,ls),
(8,8,o),
(32,-11,o),
(58,-11,cs)
);
}
);
width = 356;
}
);
metricLeft = n;
unicode = 114;
},
{
glyphname = s;
lastChange = "2022-02-23 22:36:08 +0000";
layers = (
{
layerId = m01;
shapes = (
{
closed = 1;
nodes = (
(131,0,ls),
(191,0,o),
(253,16,o),
(263,80,cs),
(269,117,o),
(255,144,o),
(236,159,cs),
(217,174,o),
(177,200,o),
(145,226,cs),
(130,238,o),
(116,251,o),
(116,263,cs),
(116,281,o),
(151,300,o),
(183,300,cs),
(278,300,ls),
(291,300,o),
(306,308,o),
(306,325,cs),
(306,349,o),
(291,350,o),
(263,350,cs),
(183,350,ls),
(123,350,o),
(68,316,o),
(66,262,cs),
(65,224,o),
(91,202,o),
(119,182,cs),
(146,163,o),
(179,143,o),
(193,132,cs),
(206,121,o),
(216,107,o),
(213,88,cs),
(208,55,o),
(172,50,o),
(131,50,cs),
(56,50,ls),
(40,50,o),
(25,45,o),
(25,25,cs),
(25,6,o),
(40,0,o),
(55,0,cs)
);
}
);
width = 333;
},
{
layerId = m002;
shapes = (
{
closed = 1;
nodes = (
(133,-11,ls),
(195,-11,o),
(270,8,o),
(282,82,cs),
(289,125,o),
(273,158,o),
(247,177,cs),
(230,191,o),
(192,216,o),
(162,240,cs),
(149,250,o),
(144,255,o),
(144,258,cs),
(144,263,o),
(159,271,o),
(182,271,cs),
(271,271,ls),
(296,271,o),
(323,287,o),
(323,316,cs),
(323,351,o),
(298,362,o),
(257,362,cs),
(182,362,ls),
(115,362,o),
(50,323,o),
(47,258,cs),
(46,211,o),
(78,184,o),
(108,164,cs),
(131,147,o),
(161,129,o),
(174,119,cs),
(184,110,o),
(187,107,o),
(185,97,cs),
(183,82,o),
(170,80,o),
(133,80,cs),
(63,80,ls),
(32,80,o),
(8,64,o),
(8,34,cs),
(8,5,o),
(32,-11,o),
(62,-11,cs)
);
}
);
width = 333;
}
);
metricLeft = o;
metricRight = o;
unicode = 115;
},
{
glyphname = t;
lastChange = "2022-02-23 22:36:50 +0000";
layers = (
{
layerId = m01;
shapes = (
{
closed = 1;
nodes = (
(137,0,o),
(150,7,o),
(153,23,cs),
(243,540,ls),
(246,558,o),
(232,568,o),
(218,568,cs),
(207,568,o),
(197,561,o),
(194,547,cs),
(101,24,ls),
(98,8,o),
(111,0,o),
(124,0,cs)
);
},
{
closed = 1;
nodes = (
(298,305,ls),
(318,305,o),
(324,316,o),
(324,328,cs),
(324,340,o),
(318,350,o),
(298,350,cs),
(74,350,ls),
(54,350,o),
(48,340,o),
(48,328,cs),
(48,316,o),
(54,305,o),
(74,305,cs)
);
}
);
width = 313;
},
{
layerId = m002;
shapes = (
{
closed = 1;
nodes = (
(151,-5,o),
(174,9,o),
(180,35,c),
(265,522,l),
(269,556,o),
(240,573,o),
(216,573,cs),
(195,573,o),
(173,558,o),
(169,535,cs),
(81,44,ls),
(75,12,o),
(105,-5,o),
(128,-5,cs)
);
},
{
closed = 1;
nodes = (
(291,282,ls),
(323,282,o),
(341,301,o),
(341,325,cs),
(341,350,o),
(323,368,o),
(291,368,cs),
(81,368,ls),
(49,368,o),
(31,350,o),
(31,325,cs),
(31,301,o),
(49,282,o),
(81,282,cs)
);
}
);
width = 313;
}
);
unicode = 116;
},
{
glyphname = u;
lastChange = "2022-02-24 10:26:42 +0000";
layers = (
{
layerId = m01;
shapes = (
{
closed = 1;
nodes = (
(189,-4,o),
(295,163,o),
(350,251,c),
(344,337,l),
(275,222,o),
(161,45,o),
(110,45,cs),
(85,45,o),
(91,89,o),
(96,116,cs),
(132,321,ls),
(135,340,o),
(124,350,o),
(112,350,cs),
(99,350,o),
(84,341,o),
(81,322,cs),
(45,116,ls),
(35,59,o),
(42,-4,o),
(100,-4,cs)
);
},
{
closed = 1;
nodes = (
(318,-1,o),
(332,7,o),
(336,31,cs),
(388,323,ls),
(391,340,o),
(387,350,o),
(370,350,c),
(351,350,o),
(340,342,o),
(337,323,cs),
(285,31,ls),
(282,12,o),
(293,-1,o),
(307,-1,cs)
);
}
);
width = 417;
},
{
layerId = m002;
shapes = (
{
closed = 1;
nodes = (
(212,-15,o),
(317,167,o),
(366,244,c),
(308,329,l),
(255,236,o),
(158,75,o),
(116,75,cs),
(131,75,o),
(123,89,o),
(128,115,cs),
(162,308,ls),
(168,341,o),
(144,361,o),
(118,361,cs),
(95,361,o),
(69,346,o),
(64,317,cs),
(30,123,ls),
(17,51,o),
(36,-15,o),
(107,-15,cs)
);
},
{
closed = 1;
nodes = (
(319,-13,o),
(347,-2,o),
(354,36,cs),
(403,311,l),
(408,350,o),
(383,361,o),
(361,361,cs),
(332,361,o),
(310,347,o),
(305,318,cs),
(256,44,ls),
(250,11,o),
(273,-13,o),
(301,-13,cs)
);
}
);
width = 417;
}
);
metricLeft = n;
metricRight = n;
unicode = 117;
},
{
glyphname = v;
lastChange = "2022-02-23 22:49:44 +0000";
layers = (
{
layerId = m01;
shapes = (
{
closed = 1;
nodes = (
(114,-4,o),
(140,7,o),
(165,25,cs),
(203,53,o),
(243,100,o),
(269,138,cs),
(303,186,o),
(349,269,o),
(359,288,cs),
(382,333,o),
(372,350,o),
(352,350,cs),
(334,350,o),
(328,337,o),
(316,315,cs),
(298,280,o),
(269,229,o),
(238,183,cs),
(205,133,o),
(170,89,o),
(136,63,cs),
(122,52,o),
(113,47,o),
(104,47,cs),
(96,47,o),
(89,51,o),
(88,60,cs),
(86,69,o),
(90,86,o),
(93,102,cs),
(132,320,ls),
(136,340,o),
(124,350,o),
(111,350,cs),
(99,350,o),
(84,341,o),
(81,323,cs),
(42,102,ls),
(37,76,o),
(36,49,o),
(43,28,cs),
(50,9,o),
(64,-4,o),
(90,-4,cs)
);
},
{
closed = 1;
nodes = (
(340,294,l),
(384,230,ls),
(391,220,o),
(401,211,o),
(414,211,cs),
(424,211,o),
(434,217,o),
(437,228,cs),
(439,235,o),
(438,243,o),
(431,253,cs),
(368,344,l)
);
}
);
width = 425;
},
{
layerId = m002;
shapes = (
{
closed = 1;
nodes = (
(127,-15,o),
(159,-2,o),
(184,16,cs),
(223,45,o),
(264,92,o),
(288,128,cs),
(321,174,o),
(364,253,o),
(374,271,cs),
(413,348,o),
(365,361,o),
(345,361,cs),
(317,361,o),
(306,347,o),
(289,317,cs),
(271,283,o),
(245,236,o),
(217,194,cs),
(185,146,o),
(154,108,o),
(125,86,cs),
(114,77,o),
(114,77,o),
(112,77,cs),
(110,77,o),
(120,73,o),
(122,70,c),
(120,72,o),
(124,85,o),
(127,102,cs),
(163,307,ls),
(169,340,o),
(146,361,o),
(119,361,cs),
(96,361,o),
(70,346,o),
(65,318,cs),
(29,110,ls),
(24,84,o),
(23,54,o),
(31,30,cs),
(41,1,o),
(67,-15,o),
(99,-15,cs)
);
},
{
closed = 1;
nodes = (
(306,286,l),
(354,214,ls),
(366,197,o),
(384,187,o),
(403,187,cs),
(424,187,o),
(444,199,o),
(449,220,cs),
(453,233,o),
(450,246,o),
(441,259,cs),
(379,348,l)
);
}
);
width = 425;
}
);
metricLeft = n;
unicode = 118;
},
{
glyphname = w;
lastChange = "2022-02-24 10:28:15 +0000";
layers = (
{
layerId = m01;
shapes = (
{
closed = 1;
nodes = (
(114,-4,o),
(140,7,o),
(165,25,cs),
(203,53,o),
(243,100,o),
(269,138,cs),
(304,189,o),
(332,248,o),
(342,267,c),
(353,350,l),
(335,350,o),
(328,337,o),
(316,315,cs),
(298,280,o),
(269,229,o),
(238,183,cs),
(205,133,o),
(170,89,o),
(136,63,cs),
(122,52,o),
(113,47,o),
(104,47,cs),
(96,47,o),
(89,51,o),
(88,60,cs),
(86,69,o),
(90,86,o),
(93,102,cs),
(132,320,ls),
(136,340,o),
(124,350,o),
(111,350,cs),
(99,350,o),
(84,341,o),
(81,323,cs),
(42,102,ls),
(37,76,o),
(36,49,o),
(43,28,cs),
(50,9,o),
(64,-4,o),
(90,-4,cs)
);
},
{
closed = 1;
nodes = (
(356,-4,o),
(382,7,o),
(407,25,cs),
(445,53,o),
(485,100,o),
(511,138,cs),
(545,186,o),
(591,269,o),
(601,288,cs),
(624,333,o),
(614,350,o),
(594,350,cs),
(576,350,o),
(570,337,o),
(558,315,cs),
(540,280,o),
(511,229,o),
(480,183,cs),
(447,133,o),
(412,89,o),
(378,63,cs),
(364,52,o),
(355,47,o),
(346,47,cs),
(338,47,o),
(331,51,o),
(330,60,cs),
(328,69,o),
(332,86,o),
(335,102,cs),
(374,320,ls),
(378,340,o),
(366,350,o),
(353,350,c),
(315,270,l),
(284,102,ls),
(279,76,o),
(278,49,o),
(285,28,cs),
(292,9,o),
(306,-4,o),
(332,-4,cs)
);
},
{
closed = 1;
nodes = (
(582,294,l),
(626,230,ls),
(633,220,o),
(643,211,o),
(656,211,cs),
(666,211,o),
(676,217,o),
(679,228,cs),
(681,235,o),
(680,243,o),
(673,253,cs),
(610,344,l)
);
}
);
width = 667;
},
{
layerId = m002;
shapes = (
{
closed = 1;
nodes = (
(135,-15,o),
(166,-2,o),
(192,16,cs),
(230,45,o),
(271,92,o),
(295,128,cs),
(334,185,o),
(364,246,o),
(367,250,c),
(381,352,l),
(332,370,o),
(317,354,o),
(297,316,cs),
(280,284,o),
(252,236,o),
(224,194,cs),
(192,146,o),
(161,108,o),
(132,86,cs),
(121,77,o),
(121,77,o),
(119,77,cs),
(117,77,o),
(127,73,o),
(129,70,c),
(127,72,o),
(131,85,o),
(134,102,cs),
(171,307,ls),
(177,341,o),
(153,361,o),
(126,361,cs),
(103,361,o),
(78,345,o),
(73,317,cs),
(36,110,ls),
(31,84,o),
(30,54,o),
(39,29,cs),
(50,0,o),
(75,-15,o),
(106,-15,cs)
);
},
{
closed = 1;
nodes = (
(362,-15,o),
(394,-2,o),
(419,16,cs),
(458,45,o),
(498,92,o),
(522,127,cs),
(556,174,o),
(600,254,o),
(608,271,cs),
(649,348,o),
(600,361,o),
(580,361,cs),
(552,361,o),
(539,346,o),
(524,316,cs),
(506,283,o),
(480,236,o),
(452,194,cs),
(420,146,o),
(389,108,o),
(360,86,cs),
(349,77,o),
(349,77,o),
(347,77,cs),
(345,77,o),
(355,73,o),
(357,70,c),
(355,72,o),
(358,85,o),
(361,103,cs),
(398,307,ls),
(405,347,o),
(370,369,o),
(335,358,c),
(294,270,l),
(263,110,ls),
(258,84,o),
(258,54,o),
(265,31,cs),
(276,1,o),
(301,-15,o),
(334,-15,cs)
);
},
{
closed = 1;
nodes = (
(544,282,l),
(589,214,ls),
(600,197,o),
(619,187,o),
(638,187,cs),
(659,187,o),
(679,199,o),
(684,220,cs),
(688,233,o),
(686,245,o),
(676,259,cs),
(616,346,l)
);
}
);
width = 667;
}
);
metricLeft = n;
unicode = 119;
},
{
glyphname = x;
lastChange = "2022-02-23 22:36:08 +0000";
layers = (
{
layerId = m01;
shapes = (
{
closed = 1;
nodes = (
(61,0,o),
(69,5,o),
(74,10,c),
(380,308,l),
(385,313,o),
(389,317,o),
(389,327,cs),
(389,333,o),
(387,339,o),
(382,344,cs),
(377,349,o),
(370,350,o),
(363,350,cs),
(356,349,o),
(349,346,o),
(344,341,c),
(37,44,l),
(30,36,o),
(28,28,o),
(29,21,cs),
(30,16,o),
(33,11,o),
(37,6,cs),
(41,2,o),
(46,0,o),
(53,0,cs)
);
},
{
closed = 1;
nodes = (
(314,-1,o),
(322,3,o),
(327,8,cs),
(332,13,o),
(336,20,o),
(336,27,cs),
(336,33,o),
(334,39,o),
(330,44,c),
(128,338,l),
(123,345,o),
(117,350,o),
(109,350,cs),
(102,350,o),
(96,347,o),
(91,343,cs),
(86,339,o),
(83,333,o),
(82,327,cs),
(82,321,o),
(85,314,o),
(88,309,c),
(292,10,l),
(296,4,o),
(302,1,o),
(307,0,cs)
);
}
);
width = 418;
},
{
layerId = m002;
shapes = (
{
closed = 1;
nodes = (
(77,-12,o),
(91,-4,o),
(100,4,cs),
(390,286,l),
(395,293,o),
(403,301,o),
(403,318,cs),
(403,329,o),
(399,339,o),
(392,348,cs),
(382,359,o),
(366,361,o),
(354,361,cs),
(342,361,o),
(328,356,o),
(318,347,cs),
(27,66,l),
(18,53,o),
(13,41,o),
(15,26,cs),
(16,21,o),
(22,10,o),
(26,3,c),
(34,-6,o),
(49,-12,o),
(62,-12,cs)
);
},
{
closed = 1;
nodes = (
(311,-13,o),
(328,-7,o),
(338,2,cs),
(347,12,o),
(353,23,o),
(353,36,cs),
(353,46,o),
(350,55,o),
(345,63,cs),
(153,341,ls),
(144,354,o),
(129,361,o),
(115,361,cs),
(105,361,o),
(92,358,o),
(82,350,cs),
(73,343,o),
(67,333,o),
(65,319,c),
(65,309,o),
(68,299,o),
(73,290,c),
(266,8,ls),
(274,-4,o),
(287,-10,o),
(298,-12,cs)
);
}
);
width = 418;
}
);
metricLeft = n;
metricRight = n;
unicode = 120;
},
{
glyphname = y;
lastChange = "2022-02-24 10:28:50 +0000";
layers = (
{
background = {
shapes = (
{
closed = 1;
nodes = (
(32,-300,o),
(120,-295,o),
(139,-292,cs),
(212,-281,o),
(252,-250,o),
(277,-204,cs),
(306,-151,o),
(315,-79,o),
(329,0,c),
(387,328,l),
(389,340,o),
(379,350,o),
(362,350,c),
(347,350,o),
(339,343,o),
(335,323,c),
(278,0,l),
(267,-63,o),
(259,-131,o),
(232,-180,cs),
(214,-212,o),
(186,-236,o),
(143,-241,cs),
(116,-244,o),
(25,-250,o),
(1,-250,cs),
(-11,-250,o),
(-24,-261,o),
(-24,-275,cs),
(-24,-290,o),
(-11,-300,o),
(1,-300,cs)
);
}
);
};
layerId = m01;
shapes = (
{
closed = 1;
nodes = (
(32,-304,o),
(120,-299,o),
(153,-294,cs),
(207,-286,o),
(246,-257,o),
(271,-217,cs),
(305,-163,o),
(314,-87,o),
(329,-3,cs),
(386,317,ls),
(390,338,o),
(377,350,o),
(363,350,cs),
(351,350,o),
(337,341,o),
(333,320,cs),
(278,-3,ls),
(266,-71,o),
(258,-142,o),
(230,-189,cs),
(212,-219,o),
(185,-240,o),
(137,-246,cs),
(116,-248,o),
(33,-254,o),
(14,-254,cs),
(-12,-254,o),
(-25,-267,o),
(-25,-281,cs),
(-25,-296,o),
(-11,-304,o),
(13,-304,cs)
);
},
{
closed = 1;
nodes = (
(189,-4,o),
(294,166,o),
(349,254,c),
(343,340,l),
(274,225,o),
(161,45,o),
(110,45,cs),
(85,45,o),
(91,89,o),
(96,116,cs),
(132,321,ls),
(135,340,o),
(124,350,o),
(112,350,cs),
(99,350,o),
(84,341,o),
(81,322,cs),
(45,116,ls),
(35,59,o),
(42,-4,o),
(100,-4,cs)
);
}
);
width = 416;
},
{
background = {
shapes = (
{
closed = 1;
nodes = (
(32,-300,o),
(120,-295,o),
(139,-292,cs),
(212,-281,o),
(252,-250,o),
(277,-204,cs),
(306,-151,o),
(315,-79,o),
(329,0,c),
(387,328,l),
(389,340,o),
(379,350,o),
(362,350,c),
(347,350,o),
(339,343,o),
(335,323,c),
(278,0,l),
(267,-63,o),
(259,-131,o),
(232,-180,cs),
(214,-212,o),
(186,-236,o),
(143,-241,cs),
(116,-244,o),
(25,-250,o),
(1,-250,cs),
(-11,-250,o),
(-24,-261,o),
(-24,-275,cs),
(-24,-290,o),
(-11,-300,o),
(1,-300,cs)
);
}
);
};
layerId = m002;
shapes = (
{
closed = 1;
nodes = (
(42,-306,o),
(127,-302,o),
(159,-297,cs),
(217,-287,o),
(261,-256,o),
(287,-215,cs),
(322,-158,o),
(331,-83,o),
(345,-5,cs),
(399,295,ls),
(405,330,o),
(379,352,o),
(352,352,cs),
(330,352,o),
(306,337,o),
(299,306,c),
(247,3,ls),
(236,-62,o),
(229,-126,o),
(206,-165,cs),
(190,-190,o),
(174,-203,o),
(137,-208,cs),
(118,-210,o),
(41,-215,o),
(24,-215,cs),
(-13,-215,o),
(-38,-237,o),
(-38,-263,cs),
(-38,-288,o),
(-16,-306,o),
(23,-306,cs)
);
},
{
closed = 1;
nodes = (
(210,-24,o),
(316,158,o),
(365,236,c),
(312,333,l),
(258,242,o),
(155,66,o),
(114,66,cs),
(129,66,o),
(121,80,o),
(126,106,cs),
(160,299,ls),
(166,332,o),
(142,352,o),
(116,352,cs),
(93,352,o),
(67,337,o),
(62,308,cs),
(28,114,ls),
(15,42,o),
(34,-24,o),
(105,-24,cs)
);
}
);
width = 416;
}
);
metricLeft = n;
metricRight = n;
unicode = 121;
},
{
glyphname = z;
lastChange = "2022-02-24 10:33:48 +0000";
layers = (
{
layerId = m01;
shapes = (
{
closed = 1;
nodes = (
(61,0,o),
(69,5,o),
(74,10,c),
(380,308,l),
(385,313,o),
(389,317,o),
(389,327,cs),
(389,333,o),
(387,339,o),
(382,344,cs),
(377,349,o),
(370,350,o),
(363,350,cs),
(356,349,o),
(349,346,o),
(344,341,c),
(37,44,ls),
(29,37,o),
(28,28,o),
(29,21,cs),
(30,16,o),
(33,11,o),
(37,6,cs),
(41,2,o),
(46,0,o),
(53,0,cs)
);
},
{
closed = 1;
nodes = (
(310,0,ls),
(330,0,o),
(336,13,o),
(336,25,cs),
(336,37,o),
(330,50,o),
(310,50,cs),
(73,50,l),
(51,0,l)
);
},
{
closed = 1;
nodes = (
(341,300,l),
(365,350,l),
(108,350,ls),
(88,350,o),
(82,337,o),
(82,325,cs),
(82,313,o),
(88,300,o),
(108,300,cs)
);
}
);
width = 418;
},
{
layerId = m002;
shapes = (
{
closed = 1;
nodes = (
(75,-11,o),
(90,-5,o),
(100,4,cs),
(390,286,l),
(395,293,o),
(403,301,o),
(403,318,cs),
(403,329,o),
(399,339,o),
(392,348,cs),
(383,358,o),
(366,362,o),
(352,362,cs),
(342,361,o),
(328,356,o),
(318,347,cs),
(27,66,ls),
(16,55,o),
(13,41,o),
(15,26,cs),
(16,21,o),
(21,10,o),
(26,3,cs),
(33,-7,o),
(49,-11,o),
(62,-11,cs)
);
},
{
closed = 1;
nodes = (
(304,-11,ls),
(334,-11,o),
(353,8,o),
(353,34,cs),
(353,59,o),
(335,80,o),
(304,80,cs),
(60,80,l),
(60,-11,l)
);
},
{
closed = 1;
nodes = (
(347,271,l),
(354,362,l),
(114,362,ls),
(83,362,o),
(65,341,o),
(65,316,cs),
(65,290,o),
(84,271,o),
(114,271,cs)
);
}
);
width = 418;
}
);
metricLeft = n;
metricRight = n;
unicode = 122;
},
{
glyphname = zero;
lastChange = "2022-02-23 22:37:34 +0000";
layers = (
{
layerId = m01;
shapes = (
{
closed = 1;
nodes = (
(289,-3,o),
(458,228,o),
(458,402,cs),
(458,477,o),
(429,568,o),
(323,568,cs),
(134,568,o),
(57,280,o),
(57,160,cs),
(57,81,o),
(91,-4,o),
(166,-4,cs)
);
},
{
closed = 1;
nodes = (
(134,47,o),
(109,84,o),
(109,155,cs),
(109,279,o),
(188,517,o),
(325,517,cs),
(390,517,o),
(406,463,o),
(406,405,cs),
(406,212,o),
(230,47,o),
(165,47,cs)
);
}
);
width = 463;
},
{
layerId = m002;
shapes = (
{
closed = 1;
nodes = (
(306,-8,o),
(471,223,o),
(471,395,cs),
(471,471,o),
(439,573,o),
(319,573,cs),
(119,573,o),
(44,285,o),
(44,167,cs),
(44,86,o),
(81,-9,o),
(171,-9,cs)
);
},
{
closed = 1;
nodes = (
(155,83,o),
(143,102,o),
(143,163,cs),
(143,276,o),
(211,481,o),
(321,481,cs),
(363,481,o),
(372,449,o),
(372,398,cs),
(372,225,o),
(221,83,o),
(171,83,cs)
);
}
);
width = 463;
}
);
metricLeft = O;
metricRight = O;
unicode = 48;
},
{
glyphname = one;
lastChange = "2022-02-23 22:37:34 +0000";
layers = (
{
layerId = m01;
shapes = (
{
closed = 1;
nodes = (
(63,0,o),
(76,6,o),
(79,23,cs),
(171,543,ls),
(174,560,o),
(163,568,o),
(150,568,cs),
(137,568,o),
(123,561,o),
(120,543,cs),
(29,28,ls),
(26,9,o),
(38,0,o),
(51,0,cs)
);
}
);
width = 161;
},
{
layerId = m002;
shapes = (
{
closed = 1;
nodes = (
(76,-5,o),
(100,8,o),
(105,35,cs),
(192,523,ls),
(197,553,o),
(174,573,o),
(147,573,cs),
(124,573,o),
(99,559,o),
(94,531,cs),
(8,47,ls),
(3,14,o),
(27,-5,o),
(54,-5,cs)
);
}
);
width = 161;
}
);
metricLeft = N;
metricRight = N;
unicode = 49;
},
{
glyphname = two;
lastChange = "2022-02-23 22:37:34 +0000";
layers = (
{
layerId = m01;
shapes = (
{
closed = 1;
nodes = (
(18,0,l),
(68,49,l),
(125,115,o),
(253,263,o),
(266,278,cs),
(391,431,o),
(402,501,o),
(323,549,cs),
(254,591,o),
(135,558,o),
(72,505,cs),
(48,485,o),
(52,472,o),
(60,463,cs),
(68,454,o),
(84,451,o),
(109,471,cs),
(161,513,o),
(257,531,o),
(300,505,cs),
(350,475,o),
(297,393,o),
(245,332,cs),
(219,301,o),
(116,185,o),
(-19,35,cs),
(-36,16,o),
(-25,0,o),
(-3,0,c)
);
},
{
closed = 1;
nodes = (
(269,0,ls),
(289,0,o),
(295,13,o),
(295,25,cs),
(295,37,o),
(289,50,o),
(269,50,cs),
(14,50,l),
(14,0,l)
);
}
);
width = 322;
},
{
layerId = m002;
shapes = (
{
closed = 1;
nodes = (
(38,-5,l),
(93,49,l),
(148,112,o),
(268,251,o),
(279,264,cs),
(404,417,o),
(418,496,o),
(327,552,cs),
(252,598,o),
(126,563,o),
(62,509,cs),
(28,481,o),
(31,457,o),
(48,437,cs),
(60,424,o),
(91,413,o),
(129,443,cs),
(174,479,o),
(247,493,o),
(279,473,cs),
(306,457,o),
(269,398,o),
(222,343,cs),
(196,313,o),
(99,205,o),
(-26,65,cs),
(-57,29,o),
(-32,-5,o),
(8,-5,cs)
);
},
{
closed = 1;
nodes = (
(263,-5,ls),
(293,-5,o),
(313,14,o),
(313,41,cs),
(313,65,o),
(295,86,o),
(263,86,cs),
(-1,86,l),
(-1,-5,l)
);
}
);
width = 322;
}
);
unicode = 50;
},
{
glyphname = three;
lastChange = "2022-02-23 22:56:59 +0000";
layers = (
{
layerId = m01;
shapes = (
{
closed = 1;
nodes = (
(257,-4,o),
(400,98,o),
(400,226,cs),
(400,303,o),
(349,354,o),
(266,354,cs),
(230,354,o),
(188,345,o),
(142,324,c),
(158,275,l),
(206,296,o),
(243,305,o),
(271,305,cs),
(330,305,o),
(350,266,o),
(350,225,cs),
(350,125,o),
(232,47,o),
(144,47,cs),
(120,47,o),
(98,53,o),
(81,66,cs),
(57,84,o),
(43,72,o),
(38,65,cs),
(33,58,o),
(28,45,o),
(53,25,cs),
(77,5,o),
(109,-4,o),
(143,-4,cs)
);
},
{
closed = 1;
nodes = (
(279,355,o),
(397,437,o),
(397,499,cs),
(397,542,o),
(357,568,o),
(298,568,cs),
(250,568,o),
(189,551,o),
(129,511,cs),
(104,495,o),
(109,478,o),
(114,470,cs),
(120,460,o),
(136,455,o),
(149,464,cs),
(210,505,o),
(267,522,o),
(304,522,cs),
(331,522,o),
(347,513,o),
(347,499,cs),
(347,466,o),
(212,368,o),
(128,316,cs),
(111,305,o),
(114,288,o),
(118,280,cs),
(123,270,o),
(141,263,o),
(156,273,cs)
);
}
);
width = 434;
},
{
layerId = m002;
shapes = (
{
closed = 1;
nodes = (
(267,-9,o),
(414,96,o),
(414,229,cs),
(414,313,o),
(371,379,o),
(279,379,cs),
(236,379,o),
(185,366,o),
(132,339,c),
(163,250,l),
(222,279,o),
(240,282,o),
(268,282,cs),
(307,282,o),
(317,262,o),
(317,228,cs),
(317,145,o),
(223,83,o),
(148,83,cs),
(130,83,o),
(117,87,o),
(104,97,cs),
(73,121,o),
(38,108,o),
(27,88,cs),
(16,71,o),
(14,49,o),
(47,23,cs),
(73,2,o),
(110,-9,o),
(147,-9,cs)
);
},
{
closed = 1;
nodes = (
(290,333,o),
(411,415,o),
(411,486,cs),
(411,540,o),
(361,573,o),
(293,573,cs),
(243,573,o),
(180,555,o),
(120,515,cs),
(87,494,o),
(86,467,o),
(98,449,cs),
(110,427,o),
(144,420,o),
(167,435,cs),
(222,472,o),
(268,486,o),
(299,486,cs),
(314,486,o),
(314,486,o),
(314,486,c),
(314,465,o),
(197,381,o),
(120,333,cs),
(93,316,o),
(92,290,o),
(102,270,cs),
(113,249,o),
(150,239,o),
(174,256,cs)
);
}
);
width = 434;
}
);
metricLeft = N;
metricRight = O;
unicode = 51;
},
{
glyphname = four;
lastChange = "2022-02-23 22:56:34 +0000";
layers = (
{
layerId = m01;
shapes = (
{
closed = 1;
nodes = (
(94,135,o),
(101,148,o),
(103,160,cs),
(171,540,ls),
(174,558,o),
(162,568,o),
(150,568,cs),
(138,568,o),
(124,562,o),
(121,544,cs),
(52,159,ls),
(50,147,o),
(59,135,o),
(77,135,cs)
);
},
{
closed = 1;
nodes = (
(218,-1,o),
(232,6,o),
(236,26,cs),
(283,282,ls),
(286,299,o),
(275,309,o),
(263,311,cs),
(250,313,o),
(236,306,o),
(233,289,cs),
(186,31,ls),
(182,11,o),
(193,1,o),
(206,0,cs)
);
},
{
closed = 1;
nodes = (
(377,135,ls),
(393,135,o),
(403,146,o),
(403,158,cs),
(403,170,o),
(393,180,o),
(377,180,cs),
(78,180,l),
(78,135,l)
);
}
);
width = 406;
},
{
layerId = m002;
shapes = (
{
closed = 1;
nodes = (
(112,122,o),
(131,140,o),
(135,164,cs),
(199,521,ls),
(205,553,o),
(181,573,o),
(155,573,cs),
(132,573,o),
(107,560,o),
(102,532,cs),
(38,170,ls),
(34,145,o),
(54,122,o),
(86,122,cs)
);
},
{
closed = 1;
nodes = (
(229,-7,o),
(255,8,o),
(260,37,cs),
(305,279,l),
(308,308,o),
(289,326,o),
(265,331,cs),
(241,335,o),
(213,320,o),
(208,292,cs),
(163,50,ls),
(157,17,o),
(179,-3,o),
(205,-5,cs)
);
},
{
closed = 1;
nodes = (
(368,122,ls),
(396,122,o),
(417,141,o),
(417,166,cs),
(417,190,o),
(396,208,o),
(368,208,cs),
(84,208,l),
(84,122,l)
);
}
);
width = 406;
}
);
metricLeft = N;
unicode = 52;
},
{
glyphname = five;
lastChange = "2022-02-23 22:56:07 +0000";
layers = (
{
layerId = m01;
shapes = (
{
closed = 1;
nodes = (
(217,-3,o),
(309,125,o),
(309,212,cs),
(309,287,o),
(245,354,o),
(143,354,cs),
(115,354,o),
(87,349,o),
(52,337,c),
(56,288,l),
(93,299,o),
(121,304,o),
(146,304,cs),
(225,304,o),
(259,252,o),
(259,211,cs),
(259,149,o),
(183,47,o),
(86,47,cs),
(61,47,o),
(39,54,o),
(25,67,cs),
(18,74,o),
(11,76,o),
(4,76,cs),
(-9,76,o),
(-20,67,o),
(-20,54,cs),
(-20,46,o),
(-16,37,o),
(-7,28,cs),
(14,8,o),
(47,-3,o),
(86,-3,cs)
);
},
{
closed = 1;
nodes = (
(59,286,o),
(72,294,o),
(75,310,cs),
(116,541,l),
(99,568,l),
(89,568,o),
(81,566,o),
(76,562,cs),
(71,558,o),
(67,551,o),
(65,541,cs),
(24,310,ls),
(21,295,o),
(34,286,o),
(47,286,cs)
);
},
{
closed = 1;
nodes = (
(342,523,ls),
(362,523,o),
(368,533,o),
(368,545,cs),
(368,557,o),
(362,568,o),
(342,568,cs),
(98,568,l),
(98,523,l)
);
}
);
width = 303;
},
{
layerId = m002;
shapes = (
{
closed = 1;
nodes = (
(231,-8,o),
(326,125,o),
(326,216,cs),
(326,298,o),
(256,372,o),
(145,372,cs),
(111,372,o),
(74,364,o),
(33,348,c),
(64,265,l),
(116,281,o),
(121,281,o),
(148,281,cs),
(208,281,o),
(229,248,o),
(229,215,cs),
(229,164,o),
(169,83,o),
(91,83,cs),
(73,83,o),
(61,87,o),
(51,96,cs),
(41,106,o),
(27,110,o),
(14,110,cs),
(-11,110,o),
(-33,93,o),
(-33,68,cs),
(-33,54,o),
(-27,41,o),
(-13,27,cs),
(11,4,o),
(50,-8,o),
(91,-8,cs)
);
},
{
closed = 1;
nodes = (
(77,264,o),
(100,278,o),
(106,304,c),
(145,529,l),
(120,571,l),
(98,576,o),
(77,571,o),
(66,562,cs),
(56,554,o),
(50,543,o),
(47,528,cs),
(8,312,ls),
(2,281,o),
(31,264,o),
(55,264,cs)
);
},
{
closed = 1;
nodes = (
(332,487,ls),
(364,487,o),
(381,505,o),
(381,529,cs),
(381,556,o),
(362,573,o),
(332,573,cs),
(101,573,l),
(78,487,l)
);
}
);
width = 303;
}
);
unicode = 53;
},
{
glyphname = six;
lastChange = "2022-02-23 23:00:29 +0000";
layers = (
{
layerId = m01;
shapes = (
{
closed = 1;
nodes = (
(94,113,l),
(94,209,o),
(128,288,o),
(198,387,cs),
(225,425,o),
(271,471,o),
(346,523,cs),
(357,530,o),
(361,540,o),
(361,548,cs),
(360,559,o),
(352,568,o),
(339,568,cs),
(333,568,o),
(326,566,o),
(318,562,cs),
(271,535,o),
(188,460,o),
(154,412,cs),
(86,316,o),
(45,213,o),
(45,113,c)
);
},
{
closed = 1;
nodes = (
(263,0,o),
(371,149,o),
(371,257,cs),
(371,321,o),
(333,353,o),
(261,353,cs),
(174,353,o),
(113,306,o),
(78,244,c),
(45,114,l),
(45,53,o),
(93,0,o),
(161,0,cs)
);
},
{
closed = 1;
nodes = (
(126,50,o),
(95,78,o),
(95,135,cs),
(95,215,o),
(156,303,o),
(259,303,cs),
(300,303,o),
(321,289,o),
(321,251,cs),
(321,173,o),
(229,50,o),
(159,50,cs)
);
}
);
width = 412;
},
{
layerId = m002;
shapes = (
{
closed = 1;
nodes = (
(127,115,l),
(121,212,o),
(150,285,o),
(219,382,cs),
(244,418,o),
(284,458,o),
(353,505,cs),
(369,516,o),
(377,532,o),
(377,547,cs),
(376,570,o),
(355,587,o),
(331,587,cs),
(323,587,o),
(310,584,o),
(297,577,cs),
(249,550,o),
(169,477,o),
(137,431,cs),
(65,330,o),
(24,220,o),
(31,115,c)
);
},
{
closed = 1;
nodes = (
(278,-5,o),
(386,148,o),
(386,259,cs),
(386,331,o),
(339,371,o),
(258,371,cs),
(162,371,o),
(97,317,o),
(62,253,c),
(30,126,l),
(29,58,o),
(84,-5,o),
(164,-5,cs)
);
},
{
closed = 1;
nodes = (
(141,86,o),
(127,99,o),
(127,144,cs),
(127,213,o),
(173,280,o),
(256,280,cs),
(286,280,o),
(289,278,o),
(289,253,cs),
(289,186,o),
(215,86,o),
(162,86,cs)
);
}
);
width = 412;
}
);
metricLeft = o;
metricRight = o;
unicode = 54;
},
{
glyphname = seven;
lastChange = "2022-02-23 23:00:11 +0000";
layers = (
{
layerId = m01;
shapes = (
{
closed = 1;
nodes = (
(254,0,o),
(268,8,o),
(271,26,cs),
(363,544,ls),
(365,556,o),
(359,568,o),
(339,568,cs),
(328,568,o),
(316,560,o),
(314,549,cs),
(221,26,ls),
(218,8,o),
(229,0,o),
(242,0,cs)
);
},
{
closed = 1;
nodes = (
(340,523,l),
(340,568,l),
(93,568,ls),
(75,568,o),
(66,557,o),
(66,546,cs),
(66,534,o),
(75,523,o),
(93,523,cs)
);
}
);
width = 353;
},
{
layerId = m002;
shapes = (
{
closed = 1;
nodes = (
(263,-5,o),
(288,10,o),
(293,37,cs),
(379,524,ls),
(384,551,o),
(365,573,o),
(332,573,cs),
(310,573,o),
(288,558,o),
(283,537,c),
(196,45,ls),
(191,15,o),
(213,-5,o),
(240,-5,cs)
);
},
{
closed = 1;
nodes = (
(336,487,l),
(336,573,l),
(100,573,ls),
(70,573,o),
(50,554,o),
(50,530,cs),
(50,506,o),
(70,487,o),
(100,487,cs)
);
}
);
width = 353;
}
);
metricRight = N;
unicode = 55;
},
{
glyphname = eight;
lastChange = "2022-02-23 22:37:34 +0000";
layers = (
{
layerId = m01;
shapes = (
{
closed = 1;
nodes = (
(280,-4,o),
(336,84,o),
(336,149,cs),
(336,208,o),
(290,266,o),
(246,307,cs),
(231,321,l),
(165,325,l),
(75,259,o),
(50,185,o),
(50,132,cs),
(50,74,o),
(79,-4,o),
(176,-4,cs)
);
},
{
closed = 1;
nodes = (
(132,45,o),
(99,90,o),
(99,139,cs),
(99,178,o),
(120,231,o),
(197,285,c),
(209,273,ls),
(244,238,o),
(285,190,o),
(285,149,cs),
(285,105,o),
(239,45,o),
(182,45,cs)
);
},
{
closed = 1;
nodes = (
(314,368,o),
(395,431,o),
(395,488,cs),
(395,542,o),
(321,568,o),
(262,568,cs),
(189,568,o),
(102,529,o),
(102,442,cs),
(102,386,o),
(139,350,o),
(165,323,c),
(208,349,l),
(185,371,o),
(153,405,o),
(153,447,cs),
(153,504,o),
(211,518,o),
(252,518,cs),
(288,518,o),
(348,507,o),
(348,488,cs),
(348,462,o),
(239,369,o),
(164,322,c),
(233,312,l)
);
}
);
width = 382;
},
{
layerId = m002;
shapes = (
{
closed = 1;
nodes = (
(294,-9,o),
(354,87,o),
(354,157,cs),
(354,219,o),
(307,279,o),
(263,321,cs),
(241,341,l),
(160,344,l),
(62,275,o),
(35,197,o),
(35,141,cs),
(35,80,o),
(68,-9,o),
(179,-9,cs)
);
},
{
closed = 1;
nodes = (
(151,81,o),
(131,108,o),
(131,148,cs),
(131,177,o),
(144,213,o),
(196,254,c),
(192,258,ls),
(224,227,o),
(256,189,o),
(256,157,cs),
(256,123,o),
(225,81,o),
(184,81,cs)
);
},
{
closed = 1;
nodes = (
(321,343,o),
(410,409,o),
(410,476,cs),
(410,543,o),
(322,573,o),
(260,573,cs),
(183,573,o),
(84,530,o),
(84,432,cs),
(84,359,o),
(144,316,o),
(163,292,c),
(247,341,l),
(228,362,o),
(182,394,o),
(182,437,cs),
(182,474,o),
(215,482,o),
(250,482,cs),
(282,482,o),
(315,476,o),
(315,476,c),
(315,460,o),
(222,381,o),
(105,307,c),
(239,287,l)
);
}
);
width = 382;
}
);
metricLeft = O;
metricRight = O;
unicode = 56;
},
{
glyphname = nine;
lastChange = "2022-02-23 22:37:34 +0000";
layers = (
{
layerId = m01;
shapes = (
{
closed = 1;
nodes = (
(189,214,o),
(241,268,o),
(282,319,cs),
(331,381,o),
(379,458,o),
(402,510,cs),
(406,519,l),
(361,519,l),
(333,472,o),
(300,423,o),
(259,371,cs),
(198,295,o),
(161,265,o),
(142,265,cs),
(128,265,o),
(128,280,o),
(128,296,cs),
(128,334,o),
(146,424,o),
(172,463,cs),
(202,508,o),
(253,518,o),
(287,518,cs),
(294,518,o),
(362,518,o),
(370,518,c),
(381,518,l),
(381,520,o),
(381,565,o),
(381,568,c),
(369,568,o),
(307,568,o),
(287,568,cs),
(230,568,o),
(171,551,o),
(133,494,cs),
(101,446,o),
(78,349,o),
(78,291,cs),
(78,240,o),
(98,214,o),
(131,214,cs)
);
},
{
closed = 1;
nodes = (
(317,0,o),
(330,8,o),
(333,24,cs),
(425,546,ls),
(427,558,o),
(421,568,o),
(409,568,c),
(361,568,l),
(361,479,l),
(283,24,ls),
(281,8,o),
(292,0,o),
(304,0,cs)
);
}
);
width = 415;
},
{
layerId = m002;
shapes = (
{
closed = 1;
nodes = (
(206,196,o),
(261,255,o),
(300,303,cs),
(347,363,o),
(394,439,o),
(416,487,cs),
(434,527,l),
(339,527,l),
(311,479,o),
(279,431,o),
(239,380,cs),
(182,309,o),
(156,288,o),
(149,288,cs),
(160,288,o),
(160,288,o),
(160,295,cs),
(160,329,o),
(176,408,o),
(198,440,cs),
(221,476,o),
(256,482,o),
(285,482,cs),
(291,482,o),
(355,482,o),
(363,482,cs),
(398,482,l),
(398,507,o),
(398,551,o),
(398,573,c),
(375,573,o),
(306,573,o),
(285,573,cs),
(226,573,o),
(160,554,o),
(119,493,cs),
(86,443,o),
(63,348,o),
(63,291,cs),
(63,226,o),
(96,196,o),
(138,196,cs)
);
},
{
closed = 1;
nodes = (
(324,-5,o),
(347,10,o),
(353,36,c),
(440,527,l),
(442,553,o),
(426,573,o),
(400,573,cs),
(329,573,l),
(329,469,l),
(256,43,ls),
(252,11,o),
(279,-5,o),
(301,-5,cs)
);
}
);
width = 415;
}
);
metricLeft = O;
metricRight = N;
unicode = 57;
},
{
glyphname = period;
lastChange = "2022-02-23 22:38:08 +0000";
layers = (
{
layerId = m01;
shapes = (
{
closed = 1;
nodes = (
(58,-30,o),
(76,-12,o),
(76,9,cs),
(76,29,o),
(58,46,o),
(38,46,cs),
(17,46,o),
(1,29,o),
(1,9,cs),
(1,-11,o),
(17,-30,o),
(38,-30,cs)
);
}
);
width = 136;
},
{
layerId = m002;
shapes = (
{
closed = 1;
nodes = (
(70,-52,o),
(101,-26,o),
(101,9,cs),
(101,42,o),
(71,68,o),
(38,68,cs),
(6,68,o),
(-24,43,o),
(-24,9,cs),
(-24,-25,o),
(5,-52,o),
(38,-52,cs)
);
}
);
width = 136;
}
);
unicode = 46;
},
{
glyphname = comma;
lastChange = "2022-02-23 22:38:08 +0000";
layers = (
{
layerId = m01;
shapes = (
{
closed = 1;
nodes = (
(43,-103,o),
(58,-96,o),
(61,-78,cs),
(79,21,ls),
(82,39,o),
(71,49,o),
(58,50,cs),
(45,52,o),
(32,45,o),
(29,28,cs),
(12,-71,ls),
(9,-89,o),
(19,-99,o),
(31,-101,cs)
);
}
);
width = 161;
},
{
layerId = m002;
shapes = (
{
closed = 1;
nodes = (
(51,-127,o),
(81,-112,o),
(86,-82,cs),
(104,17,ls),
(109,49,o),
(88,69,o),
(61,72,cs),
(36,75,o),
(9,61,o),
(4,32,cs),
(-13,-67,ls),
(-18,-98,o),
(2,-119,o),
(27,-123,cs)
);
}
);
width = 161;
}
);
metricLeft = n;
metricRight = n;
unicode = 44;
},
{
glyphname = colon;
lastChange = "2022-02-23 22:38:08 +0000";
layers = (
{
layerId = m01;
shapes = (
{
closed = 1;
nodes = (
(84,-30,o),
(102,-12,o),
(102,9,cs),
(102,29,o),
(84,46,o),
(63,46,cs),
(42,46,o),
(26,29,o),
(26,9,cs),
(26,-11,o),
(42,-30,o),
(63,-30,cs)
);
},
{
closed = 1;
nodes = (
(119,175,o),
(137,194,o),
(137,214,cs),
(137,235,o),
(119,251,o),
(99,251,cs),
(78,251,o),
(62,234,o),
(62,214,cs),
(62,195,o),
(78,175,o),
(99,175,cs)
);
}
);
width = 187;
},
{
layerId = m002;
shapes = (
{
closed = 1;
nodes = (
(94,-52,o),
(127,-27,o),
(127,9,cs),
(127,42,o),
(97,68,o),
(63,68,cs),
(31,68,o),
(1,43,o),
(1,9,cs),
(1,-25,o),
(30,-52,o),
(63,-52,cs)
);
},
{
closed = 1;
nodes = (
(131,153,o),
(162,180,o),
(162,214,cs),
(162,248,o),
(132,273,o),
(99,273,cs),
(67,273,o),
(37,248,o),
(37,214,cs),
(37,182,o),
(66,153,o),
(99,153,cs)
);
}
);
width = 187;
}
);
metricLeft = n;
metricRight = n;
unicode = 58;
},
{
glyphname = semicolon;
lastChange = "2022-02-23 22:38:08 +0000";
layers = (
{
layerId = m01;
shapes = (
{
closed = 1;
nodes = (
(58,-103,o),
(71,-95,o),
(74,-78,cs),
(92,21,ls),
(95,39,o),
(84,49,o),
(71,50,cs),
(58,52,o),
(45,45,o),
(42,28,cs),
(25,-71,ls),
(22,-90,o),
(34,-101,o),
(47,-102,cs)
);
},
{
closed = 1;
nodes = (
(119,175,o),
(137,194,o),
(137,214,cs),
(137,235,o),
(119,251,o),
(99,251,cs),
(78,251,o),
(62,234,o),
(62,214,cs),
(62,195,o),
(78,175,o),
(99,175,cs)
);
}
);
width = 186;
},
{
layerId = m002;
shapes = (
{
closed = 1;
nodes = (
(68,-126,o),
(94,-111,o),
(99,-82,cs),
(117,17,ls),
(122,49,o),
(101,69,o),
(74,72,cs),
(49,75,o),
(22,61,o),
(17,32,cs),
(0,-67,ls),
(-5,-100,o),
(18,-122,o),
(45,-124,cs)
);
},
{
closed = 1;
nodes = (
(131,153,o),
(162,180,o),
(162,214,cs),
(162,248,o),
(132,273,o),
(99,273,cs),
(67,273,o),
(37,248,o),
(37,214,cs),
(37,182,o),
(66,153,o),
(99,153,cs)
);
}
);
width = 186;
}
);
metricLeft = n;
metricRight = n;
unicode = 59;
},
{
glyphname = ellipsis;
lastChange = "2022-02-23 22:38:08 +0000";
layers = (
{
layerId = m01;
shapes = (
{
closed = 1;
nodes = (
(328,-30,o),
(346,-12,o),
(346,9,cs),
(346,29,o),
(328,46,o),
(308,46,cs),
(287,46,o),
(271,29,o),
(271,9,cs),
(271,-11,o),
(287,-30,o),
(308,-30,cs)
);
},
{
pos = (25,0);
ref = period;
},
{
pos = (25,0);
ref = period;
},
{
closed = 1;
nodes = (
(108,-30,o),
(126,-12,o),
(126,9,cs),
(126,29,o),
(108,46,o),
(88,46,cs),
(67,46,o),
(51,29,o),
(51,9,cs),
(51,-11,o),
(67,-30,o),
(88,-30,cs)
);
},
{
closed = 1;
nodes = (
(218,-30,o),
(236,-12,o),
(236,9,cs),
(236,29,o),
(218,46,o),
(198,46,cs),
(177,46,o),
(161,29,o),
(161,9,cs),
(161,-11,o),
(177,-30,o),
(198,-30,cs)
);
}
);
width = 431;
},
{
layerId = m002;
shapes = (
{
closed = 1;
nodes = (
(340,-52,o),
(371,-26,o),
(371,9,cs),
(371,42,o),
(341,68,o),
(308,68,cs),
(276,68,o),
(246,43,o),
(246,9,cs),
(246,-25,o),
(275,-52,o),
(308,-52,cs)
);
},
{
pos = (25,0);
ref = period;
},
{
pos = (25,0);
ref = period;
},
{
closed = 1;
nodes = (
(120,-52,o),
(151,-26,o),
(151,9,cs),
(151,42,o),
(121,68,o),
(88,68,cs),
(56,68,o),
(26,43,o),
(26,9,cs),
(26,-25,o),
(55,-52,o),
(88,-52,cs)
);
},
{
closed = 1;
nodes = (
(230,-52,o),
(261,-26,o),
(261,9,cs),
(261,42,o),
(231,68,o),
(198,68,cs),
(166,68,o),
(136,43,o),
(136,9,cs),
(136,-25,o),
(165,-52,o),
(198,-52,cs)
);
}
);
width = 431;
}
);
metricLeft = n;
metricRight = n;
unicode = 8230;
},
{
glyphname = exclam;
lastChange = "2022-02-23 22:38:08 +0000";
layers = (
{
layerId = m01;
shapes = (
{
closed = 1;
nodes = (
(98,174,o),
(113,183,o),
(116,202,cs),
(192,629,ls),
(194,643,o),
(184,650,o),
(172,650,cs),
(159,650,o),
(144,643,o),
(141,629,cs),
(65,202,ls),
(62,185,o),
(74,176,o),
(86,175,cs)
);
},
{
closed = 1;
nodes = (
(75,-24,o),
(91,-8,o),
(91,9,cs),
(91,26,o),
(75,41,o),
(57,41,cs),
(39,41,o),
(26,25,o),
(26,9,cs),
(26,-7,o),
(39,-24,o),
(57,-24,cs)
);
}
);
width = 176;
},
{
layerId = m002;
shapes = (
{
closed = 1;
nodes = (
(108,151,o),
(136,168,o),
(141,198,cs),
(217,626,ls),
(221,657,o),
(195,672,o),
(172,672,cs),
(148,672,o),
(122,658,o),
(116,633,c),
(40,206,ls),
(34,172,o),
(61,155,o),
(84,153,cs)
);
},
{
closed = 1;
nodes = (
(88,-46,o),
(116,-21,o),
(116,9,cs),
(116,39,o),
(88,63,o),
(57,63,cs),
(26,63,o),
(1,38,o),
(1,9,cs),
(1,-20,o),
(26,-46,o),
(57,-46,cs)
);
}
);
width = 176;
}
);
metricLeft = N;
metricRight = N;
unicode = 33;
},
{
glyphname = exclamdown;
lastChange = "2022-02-23 22:38:08 +0000";
layers = (
{
layerId = m01;
shapes = (
{
closed = 1;
nodes = (
(65,0,o),
(79,7,o),
(82,21,cs),
(156,424,ls),
(159,441,o),
(147,450,o),
(135,451,cs),
(123,452,o),
(108,443,o),
(105,424,cs),
(31,21,ls),
(28,6,o),
(40,-1,o),
(53,0,cs)
);
},
{
closed = 1;
nodes = (
(185,585,o),
(198,601,o),
(198,617,cs),
(198,633,o),
(185,650,o),
(167,650,cs),
(149,650,o),
(133,634,o),
(133,617,cs),
(133,600,o),
(149,585,o),
(167,585,cs)
);
}
);
width = 176;
},
{
layerId = m002;
shapes = (
{
closed = 1;
nodes = (
(76,-22,o),
(101,-8,o),
(107,17,c),
(181,420,ls),
(187,454,o),
(160,471,o),
(137,473,cs),
(113,475,o),
(85,458,o),
(80,428,cs),
(6,25,ls),
(0,-5,o),
(26,-24,o),
(54,-22,cs)
);
},
{
closed = 1;
nodes = (
(198,563,o),
(223,588,o),
(223,617,cs),
(223,646,o),
(198,672,o),
(167,672,cs),
(136,672,o),
(108,647,o),
(108,617,cs),
(108,587,o),
(136,563,o),
(167,563,cs)
);
}
);
width = 176;
}
);
metricLeft = N;
metricRight = N;
unicode = 161;
},
{
glyphname = question;
lastChange = "2022-02-23 22:38:08 +0000";
layers = (
{
layerId = m01;
shapes = (
{
closed = 1;
nodes = (
(357,272,o),
(425,364,o),
(450,503,cs),
(464,582,o),
(396,654,o),
(305,654,cs),
(190,654,o),
(126,590,o),
(109,495,cs),
(105,473,o),
(110,460,o),
(121,457,cs),
(134,454,o),
(154,463,o),
(158,485,cs),
(168,542,o),
(206,604,o),
(291,604,cs),
(357,604,o),
(411,568,o),
(400,507,cs),
(392,461,o),
(368,322,o),
(206,322,c),
(201,272,l)
);
},
{
closed = 1;
nodes = (
(169,-24,o),
(185,-9,o),
(185,7,cs),
(185,26,o),
(170,41,o),
(151,41,cs),
(134,41,o),
(120,25,o),
(120,7,cs),
(120,-8,o),
(134,-24,o),
(151,-24,cs)
);
},
{
closed = 1;
nodes = (
(194,173,o),
(208,180,o),
(212,202,cs),
(230,303,ls),
(231,310,o),
(224,322,o),
(204,322,cs),
(193,322,o),
(181,314,o),
(179,303,cs),
(161,202,ls),
(159,188,o),
(169,178,o),
(181,175,cs)
);
}
);
width = 432;
},
{
layerId = m002;
shapes = (
{
closed = 1;
nodes = (
(365,239,o),
(447,346,o),
(475,499,cs),
(491,592,o),
(411,676,o),
(305,676,cs),
(176,676,o),
(103,602,o),
(84,499,cs),
(77,461,o),
(93,442,o),
(115,436,cs),
(141,430,o),
(176,446,o),
(183,481,cs),
(192,535,o),
(221,582,o),
(291,582,cs),
(349,582,o),
(384,558,o),
(375,511,cs),
(367,462,o),
(344,331,o),
(183,345,c),
(174,251,l)
);
},
{
closed = 1;
nodes = (
(182,-46,o),
(210,-22,o),
(210,7,cs),
(210,39,o),
(183,63,o),
(151,63,cs),
(123,63,o),
(95,40,o),
(95,7,cs),
(95,-21,o),
(121,-46,o),
(151,-46,cs)
);
},
{
closed = 1;
nodes = (
(201,149,o),
(230,163,o),
(237,198,cs),
(255,300,ls),
(258,323,o),
(235,344,o),
(204,344,cs),
(182,344,o),
(158,329,o),
(154,307,cs),
(136,205,ls),
(133,179,o),
(151,160,o),
(175,154,cs)
);
}
);
width = 432;
}
);
metricLeft = O;
metricRight = O;
unicode = 63;
},
{
glyphname = questiondown;
lastChange = "2022-02-23 22:38:08 +0000";
layers = (
{
layerId = m01;
shapes = (
{
closed = 1;
nodes = (
(309,0,o),
(373,64,o),
(390,159,cs),
(394,181,o),
(389,194,o),
(378,197,cs),
(365,200,o),
(345,191,o),
(341,169,cs),
(331,112,o),
(293,50,o),
(208,50,cs),
(142,50,o),
(88,86,o),
(99,147,cs),
(107,193,o),
(131,332,o),
(293,332,c),
(298,382,l),
(142,382,o),
(74,290,o),
(49,151,cs),
(35,72,o),
(103,0,o),
(194,0,cs)
);
},
{
closed = 1;
nodes = (
(306,332,o),
(318,340,o),
(320,351,cs),
(338,452,ls),
(340,466,o),
(330,476,o),
(318,479,cs),
(305,481,o),
(291,474,o),
(287,452,cs),
(269,351,ls),
(268,344,o),
(275,332,o),
(295,332,cs)
);
},
{
closed = 1;
nodes = (
(360,585,o),
(374,601,o),
(374,619,cs),
(374,634,o),
(360,650,o),
(343,650,cs),
(325,650,o),
(309,635,o),
(309,619,cs),
(309,600,o),
(324,585,o),
(343,585,cs)
);
}
);
width = 433;
},
{
layerId = m002;
shapes = (
{
closed = 1;
nodes = (
(323,-22,o),
(396,52,o),
(415,155,cs),
(422,193,o),
(406,212,o),
(384,218,cs),
(358,224,o),
(323,208,o),
(316,173,cs),
(307,119,o),
(278,72,o),
(208,72,cs),
(150,72,o),
(115,96,o),
(124,143,cs),
(132,192,o),
(155,323,o),
(316,309,c),
(325,403,l),
(134,415,o),
(52,308,o),
(24,155,cs),
(8,62,o),
(88,-22,o),
(194,-22,cs)
);
},
{
closed = 1;
nodes = (
(317,310,o),
(341,325,o),
(345,347,cs),
(363,449,ls),
(366,475,o),
(348,494,o),
(324,500,cs),
(298,505,o),
(269,491,o),
(262,456,cs),
(244,354,ls),
(241,331,o),
(264,310,o),
(295,310,cs)
);
},
{
closed = 1;
nodes = (
(371,563,o),
(399,586,o),
(399,619,cs),
(399,647,o),
(373,672,o),
(343,672,cs),
(312,672,o),
(284,648,o),
(284,619,cs),
(284,587,o),
(311,563,o),
(343,563,cs)
);
}
);
width = 433;
}
);
metricLeft = O;
metricRight = O;
unicode = 191;
},
{
glyphname = periodcentered;
lastChange = "2022-02-23 22:38:08 +0000";
layers = (
{
layerId = m01;
shapes = (
{
closed = 1;
nodes = (
(113,138,o),
(131,157,o),
(131,177,cs),
(131,198,o),
(113,214,o),
(93,214,cs),
(72,214,o),
(56,197,o),
(56,177,cs),
(56,158,o),
(72,138,o),
(93,138,cs)
);
}
);
width = 186;
},
{
layerId = m002;
shapes = (
{
closed = 1;
nodes = (
(125,116,o),
(156,143,o),
(156,177,cs),
(156,211,o),
(126,236,o),
(93,236,cs),
(61,236,o),
(31,211,o),
(31,177,cs),
(31,145,o),
(60,116,o),
(93,116,cs)
);
}
);
width = 186;
}
);
metricLeft = n;
metricRight = n;
unicode = 183;
},
{
glyphname = bullet;
lastChange = "2022-02-23 22:38:08 +0000";
layers = (
{
layerId = m01;
shapes = (
{
closed = 1;
nodes = (
(201,278,o),
(238,314,o),
(238,355,cs),
(238,396,o),
(202,430,o),
(162,430,cs),
(120,430,o),
(88,395,o),
(88,355,cs),
(88,316,o),
(119,278,o),
(161,278,cs)
);
}
);
width = 262;
},
{
layerId = m002;
shapes = (
{
closed = 1;
nodes = (
(215,256,o),
(263,302,o),
(263,355,cs),
(263,408,o),
(216,452,o),
(162,452,cs),
(105,452,o),
(63,406,o),
(63,355,cs),
(63,306,o),
(103,256,o),
(161,256,cs)
);
}
);
width = 262;
}
);
metricLeft = n;
metricRight = n;
unicode = 8226;
},
{
glyphname = asterisk;
lastChange = "2022-02-23 22:38:08 +0000";
layers = (
{
layerId = m01;
shapes = (
{
closed = 1;
nodes = (
(284,574,ls),
(301,584,o),
(304,598,o),
(298,607,cs),
(293,614,o),
(281,617,o),
(266,608,cs),
(130,524,ls),
(113,513,o),
(109,499,o),
(115,491,cs),
(120,483,o),
(132,481,o),
(148,490,cs)
);
},
{
closed = 1;
nodes = (
(261,482,o),
(274,484,o),
(281,492,cs),
(286,499,o),
(286,511,o),
(273,521,cs),
(165,606,ls),
(153,616,o),
(141,614,o),
(135,606,cs),
(128,599,o),
(128,586,o),
(141,576,cs),
(248,492,ls)
);
},
{
closed = 1;
nodes = (
(197,447,o),
(210,456,o),
(213,475,cs),
(239,623,ls),
(242,641,o),
(234,650,o),
(225,650,cs),
(215,650,o),
(203,641,o),
(200,623,cs),
(174,475,ls),
(171,458,o),
(178,450,o),
(187,448,cs)
);
}
);
width = 282;
},
{
layerId = m002;
shapes = (
{
closed = 1;
nodes = (
(297,555,ls),
(322,570,o),
(335,595,o),
(319,619,cs),
(306,637,o),
(277,641,o),
(253,627,cs),
(117,543,ls),
(92,527,o),
(79,503,o),
(93,481,cs),
(103,462,o),
(133,455,o),
(161,471,cs)
);
},
{
closed = 1;
nodes = (
(256,457,o),
(288,461,o),
(302,479,cs),
(314,498,o),
(312,520,o),
(288,538,cs),
(181,623,ls),
(159,641,o),
(127,637,o),
(114,618,cs),
(99,600,o),
(103,576,o),
(126,559,cs),
(233,475,ls)
);
},
{
closed = 1;
nodes = (
(205,423,o),
(233,439,o),
(238,471,cs),
(264,619,ls),
(269,652,o),
(249,672,o),
(225,672,cs),
(203,672,o),
(180,655,o),
(175,627,cs),
(149,479,ls),
(144,449,o),
(160,431,o),
(182,426,cs)
);
}
);
width = 282;
}
);
metricLeft = N;
metricRight = N;
unicode = 42;
},
{
glyphname = numbersign;
lastChange = "2022-02-23 22:38:08 +0000";
layers = (
{
layerId = m01;
shapes = (
{
closed = 1;
nodes = (
(152,-1,o),
(167,8,o),
(171,28,cs),
(262,543,ls),
(265,559,o),
(254,568,o),
(241,568,cs),
(228,568,o),
(214,560,o),
(211,543,cs),
(120,28,ls),
(117,10,o),
(127,0,o),
(139,0,cs)
);
},
{
closed = 1;
nodes = (
(571,147,ls),
(588,147,o),
(597,159,o),
(597,170,cs),
(597,181,o),
(589,192,o),
(571,192,cs),
(26,192,ls),
(8,192,o),
(0,181,o),
(0,170,cs),
(0,159,o),
(9,147,o),
(26,147,cs)
);
},
{
closed = 1;
nodes = (
(410,0,o),
(424,9,o),
(427,28,cs),
(518,543,ls),
(521,559,o),
(510,567,o),
(498,568,cs),
(485,568,o),
(470,560,o),
(467,543,cs),
(376,28,ls),
(373,9,o),
(384,-1,o),
(397,0,cs)
);
},
{
closed = 1;
nodes = (
(612,384,ls),
(630,384,o),
(639,395,o),
(639,406,cs),
(639,417,o),
(630,429,o),
(612,429,cs),
(68,429,ls),
(50,429,o),
(41,417,o),
(41,406,cs),
(41,395,o),
(50,384,o),
(68,384,cs)
);
}
);
width = 599;
},
{
layerId = m002;
shapes = (
{
closed = 1;
nodes = (
(162,-24,o),
(189,-8,o),
(196,24,cs),
(287,539,ls),
(292,569,o),
(269,590,o),
(241,590,cs),
(217,590,o),
(191,575,o),
(186,547,cs),
(95,32,ls),
(90,0,o),
(112,-21,o),
(138,-22,cs)
);
},
{
closed = 1;
nodes = (
(571,125,ls),
(601,125,o),
(622,146,o),
(622,170,cs),
(622,194,o),
(602,214,o),
(571,214,cs),
(26,214,ls),
(-5,214,o),
(-25,194,o),
(-25,170,cs),
(-25,146,o),
(-4,125,o),
(26,125,cs)
);
},
{
closed = 1;
nodes = (
(422,-21,o),
(447,-5,o),
(452,24,cs),
(543,539,ls),
(549,572,o),
(522,588,o),
(499,590,cs),
(475,591,o),
(447,575,o),
(442,547,cs),
(351,32,ls),
(346,-3,o),
(371,-24,o),
(398,-22,cs)
);
},
{
closed = 1;
nodes = (
(612,362,ls),
(643,362,o),
(664,382,o),
(664,406,cs),
(664,430,o),
(643,451,o),
(612,451,cs),
(68,451,ls),
(37,451,o),
(16,430,o),
(16,406,cs),
(16,382,o),
(37,362,o),
(68,362,cs)
);
}
);
width = 599;
}
);
unicode = 35;
},
{
glyphname = slash;
lastChange = "2022-02-23 22:38:08 +0000";
layers = (
{
layerId = m01;
shapes = (
{
closed = 1;
nodes = (
(283,616,ls),
(292,637,o),
(277,650,o),
(262,650,cs),
(251,650,o),
(240,644,o),
(233,627,cs),
(-24,31,ls),
(-37,0,o),
(11,-15,o),
(26,20,cs)
);
}
);
width = 205;
},
{
layerId = m002;
shapes = (
{
closed = 1;
nodes = (
(306,607,ls),
(322,645,o),
(293,672,o),
(262,672,cs),
(244,672,o),
(221,663,o),
(210,636,cs),
(-47,40,ls),
(-72,-21,o),
(23,-48,o),
(49,11,cs)
);
}
);
width = 205;
}
);
unicode = 47;
},
{
glyphname = backslash;
lastChange = "2022-02-23 22:38:08 +0000";
layers = (
{
layerId = m01;
shapes = (
{
closed = 1;
nodes = (
(354,-15,o),
(402,0,o),
(389,31,cs),
(132,627,ls),
(125,644,o),
(114,650,o),
(103,650,cs),
(88,650,o),
(73,637,o),
(82,616,cs),
(339,20,ls)
);
}
);
width = 419;
},
{
layerId = m002;
shapes = (
{
closed = 1;
nodes = (
(342,-48,o),
(437,-21,o),
(412,40,cs),
(155,636,ls),
(144,663,o),
(121,672,o),
(103,672,cs),
(72,672,o),
(43,645,o),
(59,607,cs),
(316,11,ls)
);
}
);
width = 419;
}
);
unicode = 92;
},
{
glyphname = hyphen;
lastChange = "2022-02-23 22:38:08 +0000";
layers = (
{
layerId = m01;
shapes = (
{
closed = 1;
nodes = (
(234,175,ls),
(252,175,o),
(261,186,o),
(261,198,cs),
(261,209,o),
(252,220,o),
(234,220,cs),
(86,220,ls),
(67,220,o),
(58,208,o),
(59,196,cs),
(60,185,o),
(69,175,o),
(86,175,cs)
);
}
);
width = 312;
},
{
layerId = m002;
shapes = (
{
closed = 1;
nodes = (
(234,153,ls),
(265,153,o),
(286,173,o),
(286,198,cs),
(286,222,o),
(265,242,o),
(234,242,cs),
(86,242,ls),
(53,242,o),
(32,220,o),
(34,194,cs),
(36,171,o),
(57,153,o),
(86,153,cs)
);
}
);
width = 312;
}
);
metricLeft = n;
metricRight = n;
unicode = 45;
},
{
glyphname = endash;
lastChange = "2022-02-23 22:38:08 +0000";
layers = (
{
layerId = m01;
shapes = (
{
closed = 1;
nodes = (
(314,175,ls),
(332,175,o),
(341,187,o),
(341,199,cs),
(341,210,o),
(332,220,o),
(314,220,cs),
(87,220,ls),
(69,220,o),
(60,210,o),
(60,199,cs),
(60,187,o),
(69,175,o),
(87,175,cs)
);
}
);
width = 392;
},
{
layerId = m002;
shapes = (
{
closed = 1;
nodes = (
(314,153,ls),
(345,153,o),
(366,174,o),
(366,199,cs),
(366,223,o),
(345,242,o),
(314,242,cs),
(87,242,ls),
(56,242,o),
(35,223,o),
(35,199,cs),
(35,174,o),
(56,153,o),
(87,153,cs)
);
}
);
width = 392;
}
);
metricLeft = n;
metricRight = n;
unicode = 8211;
},
{
glyphname = emdash;
lastChange = "2022-02-23 22:38:08 +0000";
layers = (
{
layerId = m01;
shapes = (
{
closed = 1;
nodes = (
(387,175,ls),
(407,175,o),
(418,187,o),
(418,199,cs),
(418,209,o),
(408,220,o),
(387,220,cs),
(64,220,ls),
(44,220,o),
(34,209,o),
(34,199,cs),
(34,187,o),
(45,175,o),
(64,175,cs)
);
}
);
width = 444;
},
{
layerId = m002;
shapes = (
{
closed = 1;
nodes = (
(387,153,ls),
(420,153,o),
(443,174,o),
(443,199,cs),
(443,222,o),
(421,242,o),
(387,242,cs),
(64,242,ls),
(31,242,o),
(9,222,o),
(9,199,cs),
(9,174,o),
(32,153,o),
(64,153,cs)
);
}
);
width = 444;
}
);
unicode = 8212;
},
{
glyphname = underscore;
lastChange = "2022-02-23 22:38:08 +0000";
layers = (
{
layerId = m01;
shapes = (
{
closed = 1;
nodes = (
(331,-77,ls),
(349,-77,o),
(358,-66,o),
(358,-54,cs),
(358,-43,o),
(349,-32,o),
(331,-32,cs),
(42,-32,ls),
(23,-32,o),
(15,-43,o),
(15,-55,cs),
(15,-66,o),
(25,-77,o),
(42,-77,cs)
);
}
);
width = 454;
},
{
layerId = m002;
shapes = (
{
closed = 1;
nodes = (
(331,-99,ls),
(362,-99,o),
(383,-79,o),
(383,-54,cs),
(383,-30,o),
(362,-10,o),
(331,-10,cs),
(42,-10,ls),
(10,-10,o),
(-10,-30,o),
(-10,-55,cs),
(-10,-79,o),
(12,-99,o),
(42,-99,cs)
);
}
);
width = 454;
}
);
metricLeft = n;
metricRight = n;
unicode = 95;
},
{
glyphname = parenleft;
lastChange = "2022-02-23 22:38:08 +0000";
layers = (
{
layerId = m01;
shapes = (
{
closed = 1;
nodes = (
(198,-292,o),
(199,-278,o),
(191,-261,cs),
(105,-81,o),
(92,77,o),
(117,219,cs),
(140,347,o),
(216,480,o),
(342,607,cs),
(360,625,o),
(362,639,o),
(355,646,cs),
(347,654,o),
(329,651,o),
(309,633,cs),
(177,506,o),
(80,329,o),
(61,219,cs),
(39,94,o),
(65,-101,o),
(155,-283,cs),
(163,-299,o),
(179,-303,o),
(190,-297,cs)
);
}
);
width = 278;
},
{
layerId = m002;
shapes = (
{
closed = 1;
nodes = (
(222,-302,o),
(228,-282,o),
(214,-252,cs),
(130,-76,o),
(117,76,o),
(142,215,cs),
(164,340,o),
(237,468,o),
(360,591,cs),
(392,623,o),
(387,647,o),
(373,662,cs),
(358,677,o),
(324,678,o),
(292,649,cs),
(155,518,o),
(56,336,o),
(36,223,cs),
(14,93,o),
(40,-106,o),
(133,-293,cs),
(147,-322,o),
(185,-329,o),
(207,-313,cs)
);
}
);
width = 278;
}
);
metricLeft = O;
unicode = 40;
},
{
glyphname = parenright;
lastChange = "2022-02-23 22:38:08 +0000";
layers = (
{
layerId = m01;
shapes = (
{
closed = 1;
nodes = (
(-66,-284,o),
(-49,-285,o),
(-36,-273,cs),
(110,-133,o),
(201,42,o),
(224,167,cs),
(243,276,o),
(213,476,o),
(132,640,cs),
(119,664,o),
(104,673,o),
(93,668,cs),
(84,664,o),
(81,650,o),
(92,627,cs),
(167,465,o),
(193,314,o),
(171,186,cs),
(146,44,o),
(80,-100,o),
(-63,-240,cs),
(-76,-253,o),
(-80,-267,o),
(-74,-274,cs)
);
}
);
width = 265;
},
{
layerId = m002;
shapes = (
{
closed = 1;
nodes = (
(-78,-308,o),
(-41,-310,o),
(-19,-289,cs),
(132,-145,o),
(225,35,o),
(249,163,cs),
(268,277,o),
(238,481,o),
(154,650,cs),
(133,688,o),
(103,697,o),
(83,688,cs),
(63,679,o),
(50,657,o),
(69,618,cs),
(143,459,o),
(168,314,o),
(146,190,cs),
(122,50,o),
(58,-88,o),
(-81,-224,cs),
(-106,-250,o),
(-106,-273,o),
(-93,-288,cs)
);
}
);
width = 265;
}
);
metricRight = O;
unicode = 41;
},
{
glyphname = braceleft;
lastChange = "2022-02-23 22:38:08 +0000";
layers = (
{
layerId = m01;
shapes = (
{
closed = 1;
nodes = (
(146,237,o),
(159,268,o),
(167,312,cs),
(176,365,o),
(161,476,o),
(181,535,cs),
(200,585,o),
(245,606,o),
(277,617,cs),
(290,622,o),
(294,631,o),
(290,642,cs),
(285,655,o),
(268,649,o),
(255,644,cs),
(226,630,o),
(168,603,o),
(149,551,cs),
(127,489,o),
(140,376,o),
(130,318,cs),
(123,290,o),
(111,265,o),
(86,241,cs),
(73,229,o),
(63,222,o),
(61,206,c),
(105,198,l)
);
},
{
closed = 1;
nodes = (
(147,-290,o),
(139,-281,o),
(129,-271,cs),
(102,-244,o),
(83,-211,o),
(81,-157,cs),
(79,-94,o),
(125,10,o),
(131,64,cs),
(136,108,o),
(132,145,o),
(105,198,c),
(61,206,l),
(61,188,o),
(68,179,o),
(76,163,cs),
(92,130,o),
(97,101,o),
(94,72,cs),
(87,15,o),
(42,-93,o),
(45,-159,cs),
(48,-216,o),
(83,-266,o),
(108,-293,cs),
(119,-305,o),
(131,-309,o),
(139,-299,cs)
);
}
);
width = 225;
},
{
layerId = m002;
shapes = (
{
closed = 1;
nodes = (
(167,222,o),
(183,259,o),
(192,308,cs),
(201,365,o),
(186,474,o),
(205,528,cs),
(221,570,o),
(255,586,o),
(286,596,cs),
(311,606,o),
(322,626,o),
(313,650,cs),
(302,678,o),
(268,673,o),
(244,664,c),
(214,649,o),
(147,618,o),
(125,558,cs),
(102,491,o),
(115,377,o),
(105,322,cs),
(99,296,o),
(89,277,o),
(69,257,cs),
(47,237,o),
(33,226,o),
(36,188,c),
(114,174,l)
);
},
{
closed = 1;
nodes = (
(176,-291,o),
(164,-273,o),
(147,-255,cs),
(123,-232,o),
(108,-205,o),
(106,-156,cs),
(104,-98,o),
(150,5,o),
(156,62,cs),
(161,111,o),
(156,154,o),
(122,217,c),
(39,232,l),
(30,189,o),
(44,173,o),
(54,153,cs),
(68,124,o),
(72,100,o),
(69,74,cs),
(62,20,o),
(17,-90,o),
(20,-160,cs),
(23,-223,o),
(62,-278,o),
(90,-308,cs),
(113,-333,o),
(145,-331,o),
(159,-312,cs)
);
}
);
width = 225;
}
);
metricLeft = N;
unicode = 123;
},
{
glyphname = braceright;
lastChange = "2022-02-23 22:38:08 +0000";
layers = (
{
layerId = m01;
shapes = (
{
closed = 1;
nodes = (
(-12,-265,o),
(38,-229,o),
(59,-176,cs),
(84,-115,o),
(76,2,o),
(88,58,cs),
(95,87,o),
(109,112,o),
(135,138,cs),
(148,151,o),
(157,157,o),
(163,174,c),
(119,181,l),
(76,140,o),
(60,106,o),
(51,63,cs),
(39,10,o),
(48,-104,o),
(26,-163,cs),
(6,-213,o),
(-22,-238,o),
(-57,-255,cs),
(-69,-261,o),
(-80,-267,o),
(-75,-278,cs),
(-71,-290,o),
(-58,-290,o),
(-44,-282,cs)
);
},
{
closed = 1;
nodes = (
(166,190,o),
(159,200,o),
(151,215,cs),
(135,246,o),
(132,274,o),
(134,303,cs),
(144,361,o),
(193,463,o),
(192,529,cs),
(191,584,o),
(145,629,o),
(122,651,cs),
(111,660,o),
(97,672,o),
(88,661,cs),
(81,652,o),
(82,642,o),
(93,633,cs),
(119,612,o),
(155,578,o),
(157,524,cs),
(156,462,o),
(106,362,o),
(97,309,cs),
(90,265,o),
(93,231,o),
(119,181,c),
(163,174,l)
);
}
);
width = 218;
},
{
layerId = m002;
shapes = (
{
closed = 1;
nodes = (
(3,-283,o),
(59,-243,o),
(82,-184,cs),
(109,-118,o),
(101,1,o),
(112,53,cs),
(119,80,o),
(130,100,o),
(153,122,cs),
(169,139,o),
(187,149,o),
(192,192,c),
(110,205,l),
(56,156,o),
(37,116,o),
(27,68,cs),
(14,11,o),
(23,-101,o),
(3,-155,cs),
(-16,-201,o),
(-37,-220,o),
(-68,-235,cs),
(-89,-246,o),
(-108,-260,o),
(-99,-284,cs),
(-92,-308,o),
(-61,-318,o),
(-32,-301,cs)
);
},
{
closed = 1;
nodes = (
(196,186,o),
(187,199,o),
(173,225,cs),
(160,251,o),
(157,274,o),
(159,301,c),
(169,357,o),
(218,459,o),
(217,529,cs),
(216,592,o),
(165,643,o),
(140,666,cs),
(123,681,o),
(90,701,o),
(68,675,cs),
(53,655,o),
(55,634,o),
(77,616,cs),
(101,596,o),
(130,569,o),
(132,524,cs),
(131,466,o),
(82,368,o),
(72,313,cs),
(64,262,o),
(68,222,o),
(102,161,c),
(181,149,l)
);
}
);
width = 218;
}
);
metricRight = N;
unicode = 125;
},
{
glyphname = bracketleft;
lastChange = "2022-02-23 22:38:08 +0000";
layers = (
{
layerId = m01;
shapes = (
{
closed = 1;
nodes = (
(-32,-300,o),
(-30,-283,o),
(-28,-273,cs),
(129,618,ls),
(132,636,o),
(132,650,o),
(111,650,cs),
(90,650,o),
(82,639,o),
(79,623,cs),
(-79,-273,ls),
(-82,-288,o),
(-74,-300,o),
(-54,-300,cs)
);
},
{
closed = 1;
nodes = (
(88,-300,ls),
(105,-300,o),
(114,-288,o),
(114,-277,cs),
(114,-266,o),
(106,-255,o),
(88,-255,cs),
(-51,-255,l),
(-57,-300,l)
);
},
{
closed = 1;
nodes = (
(247,605,ls),
(264,605,o),
(273,616,o),
(274,627,cs),
(275,638,o),
(266,650,o),
(247,650,cs),
(109,650,l),
(104,605,l)
);
}
);
width = 194;
},
{
layerId = m002;
shapes = (
{
closed = 1;
nodes = (
(-20,-322,o),
(-8,-300,o),
(-3,-277,cs),
(154,614,ls),
(159,649,o),
(148,672,o),
(111,672,cs),
(81,672,o),
(60,656,o),
(54,627,cs),
(-104,-269,ls),
(-109,-298,o),
(-89,-322,o),
(-54,-322,cs)
);
},
{
closed = 1;
nodes = (
(88,-322,ls),
(118,-322,o),
(139,-301,o),
(139,-277,cs),
(139,-253,o),
(119,-233,o),
(88,-233,cs),
(-73,-233,l),
(-85,-322,l)
);
},
{
closed = 1;
nodes = (
(247,583,ls),
(276,583,o),
(297,602,o),
(299,625,cs),
(301,652,o),
(277,672,o),
(247,672,cs),
(86,672,l),
(76,583,l)
);
}
);
width = 194;
}
);
unicode = 91;
},
{
glyphname = bracketright;
lastChange = "2022-02-23 22:38:08 +0000";
layers = (
{
layerId = m01;
shapes = (
{
closed = 1;
nodes = (
(105,-300,o),
(112,-289,o),
(115,-273,cs),
(273,623,ls),
(276,638,o),
(268,650,o),
(248,650,cs),
(226,650,o),
(224,634,o),
(222,624,cs),
(65,-268,ls),
(62,-286,o),
(62,-300,o),
(83,-300,c)
);
},
{
closed = 1;
nodes = (
(86,-300,l),
(93,-255,l),
(-52,-255,ls),
(-69,-255,o),
(-79,-266,o),
(-79,-277,cs),
(-79,-289,o),
(-71,-300,o),
(-52,-300,cs)
);
},
{
closed = 1;
nodes = (
(244,605,l),
(252,650,l),
(107,650,ls),
(89,650,o),
(80,638,o),
(80,627,cs),
(80,616,o),
(89,605,o),
(107,605,cs)
);
}
);
width = 194;
},
{
layerId = m002;
shapes = (
{
closed = 1;
nodes = (
(115,-322,o),
(134,-306,o),
(140,-277,cs),
(298,619,ls),
(303,648,o),
(283,672,o),
(248,672,cs),
(213,672,o),
(202,650,o),
(197,628,cs),
(40,-264,ls),
(35,-299,o),
(46,-322,o),
(83,-322,cs)
);
},
{
closed = 1;
nodes = (
(108,-322,l),
(122,-233,l),
(-52,-233,ls),
(-82,-233,o),
(-104,-253,o),
(-104,-277,cs),
(-104,-302,o),
(-84,-322,o),
(-52,-322,cs)
);
},
{
closed = 1;
nodes = (
(265,583,l),
(281,672,l),
(107,672,ls),
(76,672,o),
(55,651,o),
(55,627,cs),
(55,603,o),
(76,583,o),
(107,583,cs)
);
}
);
width = 194;
}
);
unicode = 93;
},
{
glyphname = quotedbl;
lastChange = "2022-02-23 22:38:08 +0000";
layers = (
{
layerId = m01;
shapes = (
{
closed = 1;
nodes = (
(151,500,o),
(165,508,o),
(168,524,cs),
(185,620,ls),
(189,640,o),
(176,650,o),
(163,650,cs),
(151,650,o),
(137,641,o),
(134,624,cs),
(117,528,ls),
(114,510,o),
(126,500,o),
(139,500,cs)
);
},
{
closed = 1;
nodes = (
(260,500,o),
(274,507,o),
(276,521,cs),
(293,620,ls),
(296,640,o),
(284,650,o),
(270,650,cs),
(258,650,o),
(246,642,o),
(243,628,cs),
(225,528,ls),
(222,509,o),
(234,500,o),
(248,500,cs)
);
}
);
width = 270;
},
{
layerId = m002;
shapes = (
{
closed = 1;
nodes = (
(162,478,o),
(188,493,o),
(193,520,cs),
(210,616,ls),
(216,650,o),
(191,672,o),
(163,672,cs),
(140,672,o),
(114,656,o),
(109,628,cs),
(92,532,ls),
(87,499,o),
(111,478,o),
(139,478,cs)
);
},
{
closed = 1;
nodes = (
(270,478,o),
(297,492,o),
(301,518,cs),
(318,617,ls),
(323,651,o),
(298,672,o),
(270,672,cs),
(247,672,o),
(224,657,o),
(218,632,cs),
(200,532,ls),
(194,494,o),
(224,478,o),
(248,478,cs)
);
}
);
width = 270;
}
);
metricLeft = N;
metricRight = N;
unicode = 34;
},
{
glyphname = quotesingle;
lastChange = "2022-02-23 22:38:08 +0000";
layers = (
{
layerId = m01;
shapes = (
{
closed = 1;
nodes = (
(152,500,o),
(166,507,o),
(168,521,cs),
(185,620,ls),
(188,640,o),
(176,650,o),
(162,650,cs),
(150,650,o),
(138,642,o),
(135,628,cs),
(117,528,ls),
(114,509,o),
(126,500,o),
(140,500,cs)
);
}
);
width = 162;
},
{
layerId = m002;
shapes = (
{
closed = 1;
nodes = (
(162,478,o),
(189,492,o),
(193,518,cs),
(210,617,ls),
(215,651,o),
(190,672,o),
(162,672,cs),
(139,672,o),
(116,657,o),
(110,632,cs),
(92,532,ls),
(86,494,o),
(116,478,o),
(140,478,cs)
);
}
);
width = 162;
}
);
metricLeft = N;
metricRight = N;
unicode = 39;
},
{
glyphname = at;
lastChange = "2022-02-23 22:38:54 +0000";
layers = (
{
layerId = m01;
shapes = (
{
closed = 1;
nodes = (
(277,-118,o),
(319,-105,o),
(352,-84,cs),
(390,-60,o),
(398,-36,o),
(387,-22,cs),
(379,-11,o),
(366,-15,o),
(345,-29,cs),
(301,-60,o),
(256,-68,o),
(219,-68,cs),
(108,-68,o),
(74,4,o),
(93,123,cs),
(104,192,o),
(133,317,o),
(212,375,cs),
(258,409,o),
(347,426,o),
(431,426,cs),
(553,426,o),
(618,379,o),
(604,256,cs),
(599,214,o),
(582,166,o),
(553,125,c),
(594,98,l),
(632,153,o),
(647,204,o),
(651,238,cs),
(673,403,o),
(590,476,o),
(433,476,cs),
(343,476,o),
(243,458,o),
(186,418,cs),
(98,356,o),
(55,228,o),
(42,124,cs),
(23,-20,o),
(76,-118,o),
(223,-118,cs)
);
},
{
closed = 1;
nodes = (
(279,0,o),
(328,49,o),
(370,101,cs),
(418,162,o),
(466,239,o),
(489,291,cs),
(493,300,l),
(448,300,l),
(420,253,o),
(387,204,o),
(346,152,cs),
(285,76,o),
(248,46,o),
(229,46,cs),
(215,46,o),
(215,61,o),
(215,77,cs),
(215,115,o),
(233,205,o),
(259,244,cs),
(289,289,o),
(340,299,o),
(374,299,cs),
(381,299,o),
(449,299,o),
(457,299,c),
(468,299,l),
(468,301,o),
(468,346,o),
(468,349,c),
(456,349,o),
(394,349,o),
(374,349,cs),
(317,349,o),
(258,332,o),
(220,275,cs),
(188,227,o),
(165,130,o),
(165,72,cs),
(165,21,o),
(188,0,o),
(221,0,cs)
);
},
{
closed = 1;
nodes = (
(519,0,o),
(563,54,o),
(599,105,c),
(560,135,l),
(531,92,o),
(487,48,o),
(471,48,cs),
(460,48,o),
(463,66,o),
(463,78,cs),
(463,93,o),
(468,124,o),
(469,132,cs),
(504,327,ls),
(507,343,o),
(501,349,o),
(486,349,cs),
(456,349,l),
(420,146,ls),
(416,122,o),
(413,95,o),
(413,75,cs),
(413,26,o),
(430,0,o),
(466,0,cs)
);
}
);
width = 688;
},
{
layerId = m002;
shapes = (
{
closed = 1;
nodes = (
(286,-122,o),
(332,-108,o),
(365,-87,cs),
(417,-54,o),
(422,-19,o),
(405,4,cs),
(391,21,o),
(364,25,o),
(331,1,cs),
(293,-25,o),
(259,-31,o),
(227,-31,cs),
(139,-31,o),
(116,17,o),
(133,122,cs),
(144,187,o),
(169,297,o),
(235,345,cs),
(274,375,o),
(350,389,o),
(426,389,cs),
(532,389,o),
(576,357,o),
(564,254,cs),
(559,210,o),
(540,162,o),
(507,123,c),
(585,71,l),
(635,135,o),
(653,195,o),
(658,231,cs),
(680,402,o),
(589,480,o),
(428,480,cs),
(340,480,o),
(239,462,o),
(182,422,cs),
(90,357,o),
(48,231,o),
(35,130,cs),
(16,-16,o),
(74,-122,o),
(230,-122,cs)
);
},
{
closed = 1;
nodes = (
(295,-11,o),
(348,43,o),
(388,92,cs),
(435,151,o),
(482,226,o),
(503,275,cs),
(521,315,l),
(427,315,l),
(399,267,o),
(367,219,o),
(326,168,cs),
(270,97,o),
(244,76,o),
(236,76,cs),
(248,76,o),
(248,76,o),
(248,83,cs),
(248,117,o),
(264,195,o),
(285,228,cs),
(308,263,o),
(343,270,o),
(372,270,cs),
(379,270,o),
(443,270,o),
(450,270,cs),
(486,270,l),
(486,295,o),
(486,339,o),
(486,361,c),
(463,361,o),
(393,361,o),
(372,361,cs),
(314,361,o),
(247,342,o),
(207,281,cs),
(174,231,o),
(151,136,o),
(151,78,cs),
(151,16,o),
(185,-11,o),
(229,-11,cs)
);
},
{
closed = 1;
nodes = (
(530,-11,o),
(581,63,o),
(616,113,c),
(540,173,l),
(512,123,o),
(468,78,o),
(464,78,cs),
(453,78,o),
(481,71,o),
(481,84,cs),
(481,96,o),
(486,124,o),
(487,132,cs),
(520,315,ls),
(524,346,o),
(505,361,o),
(478,361,cs),
(428,361,l),
(391,152,ls),
(387,128,o),
(384,101,o),
(384,81,cs),
(384,18,o),
(414,-11,o),
(459,-11,cs)
);
}
);
width = 688;
}
);
metricLeft = o;
metricRight = "=o-5";
unicode = 64;
},
{
glyphname = ampersand;
lastChange = "2022-02-23 22:51:55 +0000";
layers = (
{
layerId = m01;
shapes = (
{
closed = 1;
nodes = (
(304,-4,o),
(343,56,o),
(411,169,c),
(419,181,o),
(415,195,o),
(403,201,cs),
(391,208,o),
(375,203,o),
(366,190,c),
(305,96,o),
(283,46,o),
(214,46,cs),
(140,46,o),
(91,103,o),
(102,164,cs),
(110,205,o),
(145,249,o),
(196,285,c),
(382,14,ls),
(389,4,o),
(407,-7,o),
(422,4,cs),
(435,14,o),
(432,29,o),
(424,41,cs),
(234,317,l),
(165,324,l),
(104,279,o),
(63,227,o),
(54,178,cs),
(40,103,o),
(94,-4,o),
(214,-4,cs)
);
},
{
closed = 1;
nodes = (
(218,335,l),
(199,363,o),
(154,424,o),
(154,455,cs),
(154,487,o),
(200,518,o),
(257,518,cs),
(301,518,o),
(318,500,o),
(322,486,cs),
(331,449,o),
(259,383,o),
(158,319,c),
(234,309,l),
(321,371,o),
(388,432,o),
(368,500,cs),
(355,547,o),
(310,568,o),
(257,568,cs),
(169,568,o),
(104,510,o),
(104,453,cs),
(104,403,o),
(153,342,o),
(175,309,c)
);
}
);
width = 498;
},
{
layerId = m002;
shapes = (
{
closed = 1;
nodes = (
(315,-9,o),
(359,59,o),
(422,164,cs),
(437,188,o),
(430,213,o),
(405,225,cs),
(383,237,o),
(352,229,o),
(338,208,cs),
(278,116,o),
(264,82,o),
(216,82,cs),
(158,82,o),
(126,120,o),
(135,167,cs),
(140,196,o),
(161,224,o),
(193,251,c),
(353,18,ls),
(367,-3,o),
(403,-15,o),
(426,4,cs),
(449,21,o),
(449,44,o),
(433,68,cs),
(249,336,l),
(162,344,l),
(96,297,o),
(51,241,o),
(40,188,cs),
(25,105,o),
(86,-9,o),
(216,-9,cs)
);
},
{
closed = 1;
nodes = (
(252,326,l),
(223,370,o),
(184,422,o),
(184,445,cs),
(184,464,o),
(210,482,o),
(256,482,cs),
(284,482,o),
(290,477,o),
(293,469,cs),
(300,442,o),
(220,386,o),
(111,302,c),
(241,284,l),
(329,346,o),
(408,412,o),
(384,493,cs),
(369,548,o),
(314,573,o),
(256,573,cs),
(159,573,o),
(87,508,o),
(87,443,cs),
(87,389,o),
(137,326,o),
(171,275,c)
);
}
);
width = 498;
}
);
metricLeft = O;
metricRight = O;
unicode = 38;
},
{
glyphname = degree;
lastChange = "2022-02-23 22:38:54 +0000";
layers = (
{
layerId = m01;
shapes = (
{
closed = 1;
nodes = (
(190,439,o),
(254,535,o),
(254,596,cs),
(254,632,o),
(233,651,o),
(191,651,cs),
(156,651,o),
(132,628,o),
(117,603,cs),
(107,582,o),
(90,543,o),
(90,497,cs),
(90,453,o),
(105,439,o),
(129,439,cs)
);
},
{
closed = 1;
nodes = (
(119,468,o),
(119,487,o),
(119,504,cs),
(119,532,o),
(131,562,o),
(146,591,cs),
(158,612,o),
(170,621,o),
(189,621,cs),
(213,621,o),
(224,612,o),
(224,589,cs),
(224,550,o),
(170,468,o),
(136,468,cs)
);
}
);
width = 211;
},
{
layerId = m002;
shapes = (
{
closed = 1;
nodes = (
(207,423,o),
(274,528,o),
(274,593,cs),
(274,639,o),
(243,667,o),
(190,667,cs),
(143,667,o),
(112,635,o),
(97,609,c),
(88,588,o),
(70,547,o),
(70,500,cs),
(70,439,o),
(101,423,o),
(132,423,cs)
);
},
{
closed = 1;
nodes = (
(147,495,o),
(147,495,o),
(147,506,cs),
(147,529,o),
(156,553,o),
(170,577,cs),
(179,594,o),
(179,594,o),
(188,594,cs),
(196,594,o),
(196,594,o),
(196,586,cs),
(196,556,o),
(156,495,o),
(138,495,cs)
);
}
);
width = 211;
}
);
unicode = 176;
},
{
glyphname = bar;
lastChange = "2022-02-23 22:38:54 +0000";
layers = (
{
layerId = m01;
shapes = (
{
closed = 1;
nodes = (
(22,-300,o),
(25,-285,o),
(27,-275,cs),
(193,668,ls),
(197,690,o),
(186,700,o),
(173,700,cs),
(161,700,o),
(146,690,o),
(143,672,cs),
(-24,-273,ls),
(-27,-288,o),
(-18,-300,o),
(0,-300,cs)
);
}
);
width = 161;
},
{
layerId = m002;
shapes = (
{
closed = 1;
nodes = (
(35,-292,o),
(52,-274,o),
(55,-250,cs),
(211,636,ls),
(217,672,o),
(195,692,o),
(168,692,cs),
(145,692,o),
(119,676,o),
(114,648,cs),
(-42,-241,ls),
(-48,-269,o),
(-27,-292,o),
(5,-292,cs)
);
}
);
width = 161;
}
);
metricLeft = N;
metricRight = N;
unicode = 124;
},
{
glyphname = brokenbar;
lastChange = "2022-02-23 22:38:54 +0000";
layers = (
{
layerId = m01;
shapes = (
{
closed = 1;
nodes = (
(-33,-300,o),
(-30,-285,o),
(-28,-275,cs),
(44,135,ls),
(47,152,o),
(36,162,o),
(24,162,cs),
(11,162,o),
(-4,152,o),
(-7,135,cs),
(-79,-273,ls),
(-82,-288,o),
(-73,-300,o),
(-55,-300,cs)
);
},
{
closed = 1;
nodes = (
(50,239,o),
(64,249,o),
(67,266,cs),
(138,668,ls),
(142,690,o),
(131,700,o),
(118,700,cs),
(106,700,o),
(91,690,o),
(88,672,cs),
(16,266,ls),
(13,249,o),
(24,238,o),
(37,239,cs)
);
}
);
width = 51;
},
{
layerId = m002;
shapes = (
{
closed = 1;
nodes = (
(-20,-292,o),
(-3,-274,o),
(0,-250,cs),
(68,135,ls),
(73,165,o),
(51,186,o),
(24,186,cs),
(1,186,o),
(-25,170,o),
(-30,143,cs),
(-97,-241,ls),
(-103,-269,o),
(-82,-292,o),
(-50,-292,cs)
);
},
{
closed = 1;
nodes = (
(61,216,o),
(85,232,o),
(90,258,cs),
(156,636,ls),
(162,672,o),
(140,692,o),
(113,692,cs),
(90,692,o),
(64,676,o),
(59,648,cs),
(-8,266,ls),
(-13,235,o),
(10,213,o),
(38,215,cs)
);
}
);
width = 51;
}
);
unicode = 166;
},
{
glyphname = dollar;
lastChange = "2022-02-23 22:38:54 +0000";
layers = (
{
layerId = m01;
shapes = (
{
closed = 1;
nodes = (
(159,0,ls),
(257,0,o),
(431,17,o),
(431,153,cs),
(431,236,o),
(367,262,o),
(281,312,cs),
(215,350,o),
(150,381,o),
(150,425,cs),
(150,482,o),
(259,519,o),
(336,519,cs),
(479,519,ls),
(494,519,o),
(502,532,o),
(502,545,cs),
(502,557,o),
(494,569,o),
(475,569,cs),
(337,569,ls),
(205,569,o),
(100,503,o),
(100,420,cs),
(100,349,o),
(177,315,o),
(255,269,cs),
(331,225,o),
(381,206,o),
(381,152,cs),
(381,57,o),
(224,50,o),
(159,50,cs),
(56,50,ls),
(40,50,o),
(29,37,o),
(29,24,cs),
(29,12,o),
(37,0,o),
(56,0,cs)
);
},
{
closed = 1;
nodes = (
(219,-80,o),
(232,-71,o),
(235,-54,cs),
(354,618,ls),
(358,639,o),
(348,650,o),
(336,650,cs),
(325,650,o),
(312,641,o),
(309,622,cs),
(190,-52,ls),
(187,-71,o),
(197,-80,o),
(208,-80,cs)
);
}
);
width = 492;
},
{
layerId = m002;
shapes = (
{
closed = 1;
nodes = (
(165,-5,ls),
(260,-5,o),
(446,13,o),
(446,161,cs),
(446,253,o),
(373,282,o),
(293,329,cs),
(231,365,o),
(182,388,o),
(182,417,cs),
(182,455,o),
(264,483,o),
(332,483,cs),
(466,483,ls),
(493,483,o),
(513,504,o),
(513,529,cs),
(513,554,o),
(493,574,o),
(462,574,cs),
(333,574,ls),
(198,574,o),
(85,504,o),
(85,412,cs),
(85,331,o),
(170,294,o),
(243,251,cs),
(316,209,o),
(349,197,o),
(349,160,cs),
(349,92,o),
(225,86,o),
(165,86,cs),
(69,86,ls),
(41,86,o),
(18,65,o),
(18,40,cs),
(18,15,o),
(38,-5,o),
(69,-5,cs)
);
},
{
closed = 1;
nodes = (
(233,-80,o),
(257,-65,o),
(262,-38,cs),
(374,594,ls),
(379,629,o),
(358,650,o),
(332,650,cs),
(310,650,o),
(286,635,o),
(281,606,cs),
(170,-28,ls),
(165,-61,o),
(186,-80,o),
(211,-80,cs)
);
}
);
width = 492;
}
);
metricLeft = N;
metricRight = N;
unicode = 36;
},
{
glyphname = plus;
lastChange = "2022-02-23 22:38:54 +0000";
layers = (
{
layerId = m01;
shapes = (
{
closed = 1;
nodes = (
(189,57,o),
(199,64,o),
(202,80,cs),
(241,304,ls),
(244,323,o),
(232,334,o),
(220,334,cs),
(210,334,o),
(200,327,o),
(197,311,cs),
(158,87,ls),
(155,68,o),
(167,57,o),
(179,57,cs)
);
},
{
closed = 1;
nodes = (
(313,175,ls),
(331,175,o),
(340,187,o),
(340,198,cs),
(340,209,o),
(331,220,o),
(313,220,cs),
(86,220,ls),
(68,220,o),
(59,209,o),
(59,198,cs),
(59,187,o),
(68,175,o),
(86,175,cs)
);
}
);
width = 391;
},
{
layerId = m002;
shapes = (
{
closed = 1;
nodes = (
(201,43,o),
(221,57,o),
(227,83,cs),
(264,294,l),
(267,324,o),
(247,348,o),
(219,348,cs),
(198,348,o),
(178,334,o),
(172,308,cs),
(135,97,l),
(132,67,o),
(152,43,o),
(180,43,cs)
);
},
{
closed = 1;
nodes = (
(306,154,ls),
(336,154,o),
(357,175,o),
(357,198,cs),
(357,221,o),
(336,241,o),
(306,241,cs),
(93,241,ls),
(63,241,o),
(42,221,o),
(42,198,cs),
(42,175,o),
(63,154,o),
(93,154,cs)
);
}
);
width = 391;
}
);
metricLeft = n;
metricRight = n;
unicode = 43;
},
{
glyphname = minus;
lastChange = "2022-02-23 22:38:54 +0000";
layers = (
{
layerId = m01;
shapes = (
{
closed = 1;
nodes = (
(313,175,ls),
(331,175,o),
(340,187,o),
(340,198,cs),
(340,209,o),
(331,220,o),
(313,220,cs),
(86,220,ls),
(68,220,o),
(59,209,o),
(59,198,cs),
(59,186,o),
(68,175,o),
(86,175,cs)
);
}
);
width = 391;
},
{
layerId = m002;
shapes = (
{
closed = 1;
nodes = (
(306,154,ls),
(336,154,o),
(357,175,o),
(357,198,cs),
(357,221,o),
(336,241,o),
(306,241,cs),
(93,241,ls),
(63,241,o),
(42,221,o),
(42,198,cs),
(42,174,o),
(63,154,o),
(93,154,cs)
);
}
);
width = 391;
}
);
metricLeft = n;
metricRight = n;
unicode = 8722;
},
{
glyphname = multiply;
lastChange = "2022-02-23 22:38:54 +0000";
layers = (
{
layerId = m01;
shapes = (
{
closed = 1;
nodes = (
(55,58,o),
(70,54,o),
(86,67,cs),
(350,290,ls),
(364,302,o),
(362,317,o),
(353,325,cs),
(344,334,o),
(328,337,o),
(314,325,cs),
(48,101,ls),
(36,91,o),
(38,76,o),
(46,67,cs)
);
},
{
closed = 1;
nodes = (
(320,74,o),
(324,89,o),
(313,102,cs),
(126,321,ls),
(113,336,o),
(98,335,o),
(89,327,cs),
(80,318,o),
(76,303,o),
(86,291,cs),
(275,69,ls),
(286,56,o),
(301,58,o),
(310,66,cs)
);
}
);
width = 392;
},
{
layerId = m002;
shapes = (
{
closed = 1;
nodes = (
(49,43,o),
(83,37,o),
(109,58,cs),
(359,268,l),
(381,290,o),
(380,314,o),
(363,331,cs),
(346,350,o),
(311,354,o),
(289,333,c),
(41,124,ls),
(20,105,o),
(20,82,o),
(34,64,cs)
);
},
{
closed = 1;
nodes = (
(340,75,o),
(345,99,o),
(325,122,cs),
(149,327,ls),
(129,352,o),
(94,352,o),
(77,334,cs),
(60,317,o),
(56,293,o),
(74,271,cs),
(251,63,ls),
(270,40,o),
(304,42,o),
(321,59,cs)
);
}
);
width = 392;
}
);
metricLeft = n;
metricRight = n;
unicode = 215;
},
{
glyphname = divide;
lastChange = "2022-02-23 22:54:53 +0000";
layers = (
{
layerId = m01;
shapes = (
{
closed = 1;
nodes = (
(313,175,ls),
(348,175,o),
(350,220,o),
(313,220,cs),
(86,220,ls),
(49,220,o),
(51,175,o),
(86,175,cs)
);
},
{
closed = 1;
nodes = (
(197,57,o),
(213,73,o),
(213,90,cs),
(213,108,o),
(196,122,o),
(179,122,cs),
(160,122,o),
(148,106,o),
(148,90,cs),
(148,73,o),
(161,57,o),
(179,57,cs)
);
},
{
closed = 1;
nodes = (
(235,273,o),
(251,289,o),
(251,306,cs),
(251,323,o),
(235,338,o),
(218,338,cs),
(200,338,o),
(186,322,o),
(186,306,cs),
(186,290,o),
(200,273,o),
(218,273,cs)
);
}
);
width = 391;
},
{
layerId = m002;
shapes = (
{
closed = 1;
nodes = (
(306,154,ls),
(371,154,o),
(374,241,o),
(306,241,cs),
(93,241,ls),
(25,241,o),
(28,154,o),
(93,154,cs)
);
},
{
closed = 1;
nodes = (
(210,36,o),
(237,60,o),
(237,89,cs),
(237,119,o),
(209,142,o),
(180,142,cs),
(151,142,o),
(126,119,o),
(126,89,cs),
(126,60,o),
(150,36,o),
(180,36,cs)
);
},
{
closed = 1;
nodes = (
(246,253,o),
(273,278,o),
(273,306,cs),
(273,335,o),
(246,359,o),
(217,359,cs),
(187,359,o),
(162,335,o),
(162,306,cs),
(162,278,o),
(187,253,o),
(217,253,cs)
);
}
);
width = 391;
}
);
metricLeft = n;
metricRight = n;
unicode = 247;
},
{
glyphname = equal;
lastChange = "2022-02-23 22:38:54 +0000";
layers = (
{
layerId = m01;
shapes = (
{
closed = 1;
nodes = (
(326,248,ls),
(344,248,o),
(353,260,o),
(353,271,cs),
(353,282,o),
(344,293,o),
(326,293,cs),
(99,293,ls),
(81,293,o),
(72,282,o),
(72,271,cs),
(72,260,o),
(81,248,o),
(99,248,cs)
);
},
{
closed = 1;
nodes = (
(300,97,ls),
(318,97,o),
(327,108,o),
(327,120,cs),
(327,131,o),
(318,142,o),
(300,142,cs),
(73,142,ls),
(55,142,o),
(46,131,o),
(46,120,cs),
(46,109,o),
(55,97,o),
(73,97,cs)
);
}
);
width = 392;
},
{
layerId = m002;
shapes = (
{
closed = 1;
nodes = (
(318,223,ls),
(348,223,o),
(369,243,o),
(369,266,cs),
(369,290,o),
(348,309,o),
(318,309,cs),
(105,309,ls),
(75,309,o),
(55,290,o),
(55,266,cs),
(55,243,o),
(75,223,o),
(105,223,cs)
);
},
{
closed = 1;
nodes = (
(294,81,ls),
(324,81,o),
(344,100,o),
(344,125,cs),
(344,148,o),
(324,167,o),
(294,167,cs),
(81,167,ls),
(51,167,o),
(30,148,o),
(30,125,cs),
(30,101,o),
(51,81,o),
(81,81,cs)
);
}
);
width = 392;
}
);
metricLeft = n;
metricRight = n;
unicode = 61;
},
{
glyphname = notequal;
lastChange = "2022-02-23 22:38:54 +0000";
layers = (
{
layerId = m01;
shapes = (
{
closed = 1;
nodes = (
(84,35,o),
(97,38,o),
(103,51,cs),
(224,312,ls),
(236,337,o),
(224,350,o),
(210,350,cs),
(200,350,o),
(190,345,o),
(184,333,cs),
(63,72,ls),
(55,54,o),
(63,42,o),
(74,38,cs)
);
},
{
closed = 1;
nodes = (
(245,97,ls),
(263,97,o),
(272,108,o),
(272,120,cs),
(272,131,o),
(263,142,o),
(245,142,cs),
(18,142,ls),
(0,142,o),
(-9,131,o),
(-9,120,cs),
(-9,109,o),
(0,97,o),
(18,97,cs)
);
},
{
closed = 1;
nodes = (
(271,248,ls),
(289,248,o),
(298,260,o),
(298,271,cs),
(298,282,o),
(289,293,o),
(271,293,cs),
(44,293,ls),
(26,293,o),
(17,282,o),
(17,271,cs),
(17,260,o),
(26,248,o),
(44,248,cs)
);
}
);
width = 282;
},
{
layerId = m002;
shapes = (
{
closed = 1;
nodes = (
(91,20,o),
(119,28,o),
(128,52,c),
(242,297,ls),
(262,337,o),
(234,363,o),
(206,363,cs),
(188,363,o),
(168,353,o),
(159,334,cs),
(45,88,ls),
(31,58,o),
(46,35,o),
(69,26,c)
);
},
{
closed = 1;
nodes = (
(239,81,ls),
(269,81,o),
(289,100,o),
(289,124,cs),
(289,148,o),
(269,167,o),
(239,167,cs),
(26,167,ls),
(-4,167,o),
(-25,148,o),
(-25,124,cs),
(-25,101,o),
(-4,81,o),
(26,81,cs)
);
},
{
closed = 1;
nodes = (
(263,223,ls),
(293,223,o),
(314,243,o),
(314,266,cs),
(314,290,o),
(293,309,o),
(263,309,cs),
(50,309,ls),
(20,309,o),
(0,290,o),
(0,266,cs),
(0,243,o),
(20,223,o),
(50,223,cs)
);
}
);
width = 282;
}
);
unicode = 8800;
},
{
glyphname = greater;
lastChange = "2022-02-23 22:38:54 +0000";
layers = (
{
layerId = m01;
shapes = (
{
closed = 1;
nodes = (
(300,179,l),
(274,216,l),
(59,103,ls),
(39,93,o),
(36,81,o),
(40,70,cs),
(44,60,o),
(55,50,o),
(74,60,cs)
);
},
{
closed = 1;
nodes = (
(288,171,o),
(299,176,o),
(306,186,cs),
(314,197,o),
(314,207,o),
(299,217,cs),
(122,330,ls),
(106,340,o),
(93,339,o),
(85,329,cs),
(77,318,o),
(80,304,o),
(95,294,cs),
(273,181,ls)
);
}
);
width = 360;
},
{
layerId = m002;
shapes = (
{
closed = 1;
nodes = (
(326,172,l),
(277,245,l),
(54,128,ls),
(24,113,o),
(16,92,o),
(25,70,cs),
(34,46,o),
(63,34,o),
(91,48,cs)
);
},
{
closed = 1;
nodes = (
(278,148,o),
(308,155,o),
(320,176,cs),
(334,196,o),
(331,216,o),
(307,234,c),
(138,341,ls),
(112,356,o),
(82,352,o),
(68,331,cs),
(55,311,o),
(61,288,o),
(85,270,c),
(254,163,ls)
);
}
);
width = 360;
}
);
metricLeft = n;
metricRight = o;
unicode = 62;
},
{
glyphname = less;
lastChange = "2022-02-23 22:38:54 +0000";
layers = (
{
layerId = m01;
shapes = (
{
closed = 1;
nodes = (
(306,290,ls),
(326,300,o),
(329,312,o),
(325,323,cs),
(321,333,o),
(310,343,o),
(291,333,cs),
(65,214,l),
(91,177,l)
);
},
{
closed = 1;
nodes = (
(259,53,o),
(272,54,o),
(280,64,cs),
(288,75,o),
(285,89,o),
(270,99,cs),
(92,212,ls),
(77,222,o),
(66,217,o),
(59,207,cs),
(51,196,o),
(51,186,o),
(66,176,cs),
(243,63,ls)
);
}
);
width = 357;
},
{
layerId = m002;
shapes = (
{
closed = 1;
nodes = (
(311,265,ls),
(341,280,o),
(349,301,o),
(340,323,cs),
(331,347,o),
(302,359,o),
(274,345,cs),
(39,221,l),
(88,148,l)
);
},
{
closed = 1;
nodes = (
(253,37,o),
(283,41,o),
(297,62,cs),
(310,82,o),
(304,105,o),
(280,123,c),
(111,230,ls),
(87,245,o),
(57,238,o),
(45,217,cs),
(31,197,o),
(34,177,o),
(58,159,c),
(227,52,ls)
);
}
);
width = 357;
}
);
metricLeft = o;
metricRight = n;
unicode = 60;
},
{
glyphname = greaterequal;
lastChange = "2022-02-23 22:38:54 +0000";
layers = (
{
layerId = m01;
shapes = (
{
closed = 1;
nodes = (
(299,198,o),
(310,202,o),
(317,212,cs),
(325,223,o),
(325,233,o),
(310,243,cs),
(127,360,ls),
(111,370,o),
(98,369,o),
(90,359,cs),
(82,348,o),
(85,334,o),
(100,324,cs),
(284,207,ls)
);
},
{
closed = 1;
nodes = (
(279,97,ls),
(297,97,o),
(306,108,o),
(306,120,cs),
(306,131,o),
(297,142,o),
(279,142,cs),
(75,142,ls),
(57,142,o),
(48,131,o),
(48,120,cs),
(48,109,o),
(57,97,o),
(75,97,cs)
);
},
{
closed = 1;
nodes = (
(303,202,l),
(302,248,l),
(96,248,ls),
(74,248,o),
(66,239,o),
(64,227,cs),
(63,216,o),
(68,202,o),
(90,202,cs)
);
}
);
width = 371;
},
{
layerId = m002;
shapes = (
{
closed = 1;
nodes = (
(289,175,o),
(317,182,o),
(330,200,cs),
(346,223,o),
(343,244,o),
(316,261,cs),
(144,370,ls),
(118,388,o),
(88,383,o),
(75,362,cs),
(58,339,o),
(68,316,o),
(90,300,c),
(265,190,ls)
);
},
{
closed = 1;
nodes = (
(273,83,ls),
(303,83,o),
(324,102,o),
(324,127,cs),
(324,150,o),
(303,169,o),
(273,169,cs),
(82,169,ls),
(52,169,o),
(31,150,o),
(31,127,cs),
(31,103,o),
(52,83,o),
(82,83,cs)
);
},
{
closed = 1;
nodes = (
(322,182,l),
(319,269,l),
(101,269,ls),
(69,269,o),
(49,253,o),
(46,229,cs),
(44,205,o),
(61,182,o),
(96,182,cs)
);
}
);
width = 371;
}
);
metricLeft = n;
metricRight = n;
unicode = 8805;
},
{
glyphname = lessequal;
lastChange = "2022-02-23 22:38:54 +0000";
layers = (
{
layerId = m01;
shapes = (
{
closed = 1;
nodes = (
(330,324,ls),
(346,332,o),
(348,348,o),
(340,359,cs),
(332,369,o),
(320,369,o),
(303,360,cs),
(77,243,ls),
(62,235,o),
(62,223,o),
(70,212,cs),
(77,202,o),
(88,199,o),
(103,207,cs)
);
},
{
closed = 1;
nodes = (
(278,97,ls),
(296,97,o),
(305,109,o),
(305,120,cs),
(305,131,o),
(296,142,o),
(278,142,cs),
(74,142,ls),
(56,142,o),
(47,131,o),
(47,120,cs),
(47,108,o),
(56,97,o),
(74,97,cs)
);
},
{
closed = 1;
nodes = (
(297,202,ls),
(313,202,o),
(323,213,o),
(323,225,cs),
(324,236,o),
(314,248,o),
(291,248,cs),
(85,248,l),
(84,202,l)
);
}
);
width = 370;
},
{
layerId = m002;
shapes = (
{
closed = 1;
nodes = (
(334,299,ls),
(362,313,o),
(368,340,o),
(352,362,cs),
(341,380,o),
(314,388,o),
(285,371,c),
(73,262,ls),
(47,249,o),
(39,226,o),
(57,200,cs),
(69,183,o),
(95,176,o),
(120,188,cs)
);
},
{
closed = 1;
nodes = (
(273,83,ls),
(303,83,o),
(323,103,o),
(323,127,cs),
(323,150,o),
(303,169,o),
(273,169,cs),
(81,169,ls),
(51,169,o),
(31,150,o),
(31,127,cs),
(31,102,o),
(51,83,o),
(81,83,cs)
);
},
{
closed = 1;
nodes = (
(291,182,ls),
(319,182,o),
(340,201,o),
(340,224,cs),
(342,251,o),
(317,269,o),
(285,269,cs),
(68,269,l),
(65,182,l)
);
}
);
width = 370;
}
);
metricLeft = n;
metricRight = n;
unicode = 8804;
},
{
glyphname = plusminus;
lastChange = "2022-02-23 22:54:24 +0000";
layers = (
{
layerId = m01;
shapes = (
{
closed = 1;
nodes = (
(139,166,o),
(149,173,o),
(152,189,cs),
(180,345,ls),
(183,364,o),
(171,375,o),
(159,375,cs),
(149,375,o),
(139,368,o),
(136,352,cs),
(108,196,ls),
(105,177,o),
(117,166,o),
(129,166,cs)
);
},
{
closed = 1;
nodes = (
(215,97,ls),
(233,97,o),
(242,108,o),
(242,120,cs),
(242,131,o),
(233,142,o),
(215,142,cs),
(18,142,ls),
(0,142,o),
(-9,131,o),
(-9,120,cs),
(-9,109,o),
(0,97,o),
(18,97,cs)
);
},
{
closed = 1;
nodes = (
(241,248,ls),
(259,248,o),
(268,260,o),
(268,271,cs),
(268,282,o),
(259,293,o),
(241,293,cs),
(44,293,ls),
(26,293,o),
(17,282,o),
(17,271,cs),
(17,260,o),
(26,248,o),
(44,248,cs)
);
}
);
width = 252;
},
{
layerId = m002;
shapes = (
{
closed = 1;
nodes = (
(149,171,o),
(171,185,o),
(176,211,cs),
(202,357,ls),
(208,390,o),
(184,412,o),
(157,412,cs),
(136,412,o),
(116,398,o),
(111,371,cs),
(84,225,ls),
(78,193,o),
(103,171,o),
(129,171,cs)
);
},
{
closed = 1;
nodes = (
(210,67,ls),
(240,67,o),
(260,87,o),
(260,111,cs),
(260,134,o),
(240,154,o),
(210,154,cs),
(25,154,ls),
(-5,154,o),
(-26,134,o),
(-26,111,cs),
(-26,88,o),
(-5,67,o),
(25,67,cs)
);
},
{
closed = 1;
nodes = (
(234,248,ls),
(264,248,o),
(285,269,o),
(285,292,cs),
(285,315,o),
(264,335,o),
(234,335,cs),
(49,335,ls),
(19,335,o),
(-1,315,o),
(-1,292,cs),
(-1,269,o),
(19,248,o),
(49,248,cs)
);
}
);
width = 252;
}
);
unicode = 177;
},
{
glyphname = approxequal;
lastChange = "2022-02-23 22:38:54 +0000";
layers = (
{
layerId = m01;
shapes = (
{
closed = 1;
nodes = (
(231,227,o),
(251,237,o),
(272,246,cs),
(290,254,o),
(298,260,o),
(298,271,cs),
(298,282,o),
(286,302,o),
(269,294,cs),
(250,285,o),
(237,272,o),
(207,272,cs),
(179,272,o),
(136,310,o),
(105,310,cs),
(79,310,o),
(62,301,o),
(44,294,cs),
(26,287,o),
(17,282,o),
(17,271,cs),
(17,259,o),
(27,238,o),
(45,246,cs),
(60,253,o),
(74,265,o),
(97,265,cs),
(128,265,o),
(171,227,o),
(199,227,cs)
);
},
{
closed = 1;
nodes = (
(205,76,o),
(225,86,o),
(246,95,cs),
(264,103,o),
(272,109,o),
(272,120,cs),
(272,131,o),
(260,151,o),
(243,143,cs),
(224,134,o),
(211,121,o),
(181,121,cs),
(153,121,o),
(110,159,o),
(79,159,cs),
(53,159,o),
(36,150,o),
(18,143,cs),
(0,136,o),
(-9,131,o),
(-9,120,cs),
(-9,108,o),
(1,87,o),
(19,95,cs),
(34,102,o),
(48,114,o),
(71,114,cs),
(102,114,o),
(145,76,o),
(173,76,cs)
);
}
);
width = 282;
},
{
layerId = m002;
shapes = (
{
closed = 1;
nodes = (
(233,203,o),
(256,214,o),
(275,223,cs),
(303,235,o),
(314,248,o),
(314,266,cs),
(314,295,o),
(282,323,o),
(250,307,cs),
(227,296,o),
(222,289,o),
(203,289,cs),
(187,289,o),
(147,325,o),
(107,325,cs),
(76,325,o),
(56,315,o),
(40,308,cs),
(14,297,o),
(0,287,o),
(0,266,cs),
(0,235,o),
(30,208,o),
(61,223,cs),
(82,232,o),
(86,239,o),
(100,239,cs),
(119,239,o),
(159,203,o),
(196,203,cs)
);
},
{
closed = 1;
nodes = (
(207,61,o),
(232,73,o),
(250,81,cs),
(278,92,o),
(289,105,o),
(289,124,cs),
(289,153,o),
(257,182,o),
(225,165,cs),
(200,154,o),
(198,147,o),
(179,147,cs),
(162,147,o),
(122,183,o),
(83,183,cs),
(51,183,o),
(31,172,o),
(16,166,cs),
(-11,155,o),
(-25,145,o),
(-25,124,cs),
(-25,95,o),
(5,66,o),
(37,81,cs),
(58,90,o),
(63,97,o),
(75,97,cs),
(95,97,o),
(135,61,o),
(171,61,cs)
);
}
);
width = 282;
}
);
unicode = 8776;
},
{
glyphname = asciicircum;
lastChange = "2022-02-23 22:38:54 +0000";
layers = (
{
layerId = m01;
shapes = (
{
closed = 1;
nodes = (
(131,488,o),
(146,484,o),
(162,497,cs),
(293,607,ls),
(307,619,o),
(305,634,o),
(296,642,cs),
(287,651,o),
(271,654,o),
(257,642,cs),
(124,531,ls),
(112,521,o),
(114,506,o),
(122,497,cs)
);
},
{
closed = 1;
nodes = (
(396,504,o),
(399,520,o),
(389,532,cs),
(297,641,l),
(258,609,l),
(351,499,ls),
(362,486,o),
(377,488,o),
(386,496,cs)
);
}
);
width = 391;
},
{
layerId = m002;
shapes = (
{
closed = 1;
nodes = (
(126,470,o),
(159,464,o),
(184,484,cs),
(307,588,ls),
(331,609,o),
(330,635,o),
(312,653,cs),
(296,669,o),
(263,673,o),
(241,655,cs),
(116,550,ls),
(92,530,o),
(96,504,o),
(111,487,cs)
);
},
{
closed = 1;
nodes = (
(415,501,o),
(418,527,o),
(400,548,cs),
(297,670,l),
(225,610,l),
(325,490,ls),
(346,467,o),
(379,469,o),
(396,484,cs)
);
}
);
width = 391;
}
);
metricLeft = N;
metricRight = N;
unicode = 94;
},
{
glyphname = infinity;
lastChange = "2022-02-23 22:53:50 +0000";
layers = (
{
layerId = m01;
shapes = (
{
closed = 1;
nodes = (
(484,136,o),
(581,176,o),
(599,278,cs),
(616,374,o),
(544,416,o),
(487,426,cs),
(435,435,o),
(357,423,o),
(277,346,c),
(269,280,l),
(280,263,ls),
(313,213,o),
(362,157,o),
(420,147,cs)
);
},
{
closed = 1;
nodes = (
(132,138,o),
(209,207,o),
(278,277,c),
(280,347,l),
(221,281,o),
(110,190,o),
(85,194,cs),
(66,197,o),
(65,258,o),
(72,294,cs),
(79,334,o),
(103,389,o),
(159,379,cs),
(200,372,o),
(228,334,o),
(246,308,c),
(279,346,l),
(257,376,o),
(228,419,o),
(173,428,cs),
(87,444,o),
(33,365,o),
(21,293,cs),
(10,235,o),
(23,157,o),
(76,148,cs)
);
},
{
closed = 1;
nodes = (
(389,204,o),
(349,253,o),
(320,294,cs),
(311,308,l),
(377,374,o),
(433,386,o),
(471,379,cs),
(520,370,o),
(558,330,o),
(550,281,cs),
(540,225,o),
(473,190,o),
(429,197,cs)
);
}
);
width = 581;
},
{
layerId = m002;
shapes = (
{
closed = 1;
nodes = (
(481,121,o),
(587,166,o),
(607,275,cs),
(626,382,o),
(542,428,o),
(480,440,cs),
(424,449,o),
(338,436,o),
(255,351,c),
(245,275,l),
(261,252,ls),
(294,205,o),
(344,145,o),
(409,133,cs)
);
},
{
closed = 1;
nodes = (
(156,122,o),
(239,202,o),
(305,270,c),
(299,388,l),
(190,289,o),
(119,224,o),
(103,222,c),
(124,222,o),
(105,260,o),
(111,290,cs),
(117,325,o),
(131,358,o),
(164,352,cs),
(202,345,o),
(225,296,o),
(248,269,c),
(312,341,l),
(293,362,o),
(262,428,o),
(185,442,cs),
(86,460,o),
(26,370,o),
(13,297,cs),
(2,235,o),
(15,147,o),
(86,134,cs)
);
},
{
closed = 1;
nodes = (
(399,229,o),
(369,266,o),
(341,305,c),
(341,304,l),
(392,350,o),
(429,357,o),
(456,352,cs),
(493,345,o),
(517,320,o),
(511,285,cs),
(503,243,o),
(458,219,o),
(426,224,cs)
);
}
);
width = 581;
}
);
unicode = 8734;
},
{
glyphname = percent;
lastChange = "2022-02-23 22:53:09 +0000";
layers = (
{
layerId = m01;
shapes = (
{
closed = 1;
nodes = (
(414,534,ls),
(423,555,o),
(408,568,o),
(393,568,cs),
(382,568,o),
(371,562,o),
(364,545,cs),
(142,31,ls),
(129,0,o),
(177,-15,o),
(192,20,cs)
);
},
{
closed = 1;
nodes = (
(426,0,o),
(516,136,o),
(516,223,cs),
(516,273,o),
(486,300,o),
(427,300,cs),
(377,300,o),
(344,268,o),
(323,232,cs),
(309,203,o),
(284,147,o),
(284,83,cs),
(284,20,o),
(305,0,o),
(339,0,cs)
);
},
{
closed = 1;
nodes = (
(326,42,o),
(326,69,o),
(326,92,cs),
(326,132,o),
(343,175,o),
(363,215,cs),
(380,245,o),
(398,257,o),
(424,257,cs),
(458,257,o),
(473,245,o),
(473,212,cs),
(473,157,o),
(398,42,o),
(349,42,cs)
);
},
{
closed = 1;
nodes = (
(196,268,o),
(286,404,o),
(286,491,cs),
(286,541,o),
(256,568,o),
(197,568,cs),
(147,568,o),
(114,536,o),
(93,500,cs),
(79,471,o),
(54,415,o),
(54,351,cs),
(54,288,o),
(75,268,o),
(109,268,cs)
);
},
{
closed = 1;
nodes = (
(96,310,o),
(96,337,o),
(96,360,cs),
(96,400,o),
(113,443,o),
(133,483,cs),
(150,513,o),
(168,525,o),
(194,525,cs),
(228,525,o),
(243,513,o),
(243,480,cs),
(243,425,o),
(168,310,o),
(119,310,cs)
);
}
);
width = 552;
},
{
layerId = m002;
shapes = (
{
closed = 1;
nodes = (
(429,510,ls),
(445,547,o),
(418,573,o),
(387,573,cs),
(369,573,o),
(347,564,o),
(336,538,cs),
(128,55,ls),
(103,-3,o),
(196,-31,o),
(221,27,cs)
);
},
{
closed = 1;
nodes = (
(497,-5,o),
(588,137,o),
(588,227,cs),
(588,286,o),
(549,321,o),
(479,321,cs),
(419,321,o),
(380,281,o),
(359,244,cs),
(345,215,o),
(320,159,o),
(320,95,cs),
(320,22,o),
(352,-5,o),
(397,-5,cs)
);
},
{
closed = 1;
nodes = (
(410,79,o),
(410,79,o),
(410,104,cs),
(410,138,o),
(424,174,o),
(442,210,cs),
(455,233,o),
(461,237,o),
(477,237,cs),
(498,237,o),
(498,237,o),
(498,216,cs),
(498,171,o),
(438,79,o),
(406,79,cs)
);
},
{
closed = 1;
nodes = (
(159,247,o),
(251,389,o),
(251,479,cs),
(251,538,o),
(212,573,o),
(142,573,cs),
(83,573,o),
(44,535,o),
(23,497,cs),
(8,468,o),
(-17,411,o),
(-17,347,cs),
(-17,274,o),
(15,247,o),
(60,247,cs)
);
},
{
closed = 1;
nodes = (
(72,330,o),
(72,330,o),
(72,355,cs),
(72,389,o),
(86,425,o),
(105,462,cs),
(118,485,o),
(124,489,o),
(139,489,cs),
(161,489,o),
(161,489,o),
(161,468,cs),
(161,423,o),
(101,330,o),
(69,330,cs)
);
}
);
width = 552;
}
);
unicode = 37;
},
{
glyphname = grave;
lastChange = "2022-02-23 22:39:29 +0000";
layers = (
{
layerId = m01;
shapes = (
{
closed = 1;
nodes = (
(216,563,o),
(220,573,o),
(214,587,cs),
(170,683,ls),
(164,696,o),
(152,701,o),
(141,701,cs),
(125,700,o),
(112,686,o),
(124,664,cs),
(176,572,ls),
(185,557,o),
(199,554,o),
(208,559,cs)
);
}
);
width = 177;
},
{
layerId = m002;
shapes = (
{
closed = 1;
nodes = (
(237,554,o),
(245,573,o),
(234,599,cs),
(193,689,ls),
(182,710,o),
(161,719,o),
(142,719,cs),
(110,717,o),
(84,689,o),
(105,651,cs),
(154,564,ls),
(168,540,o),
(199,533,o),
(218,544,cs)
);
}
);
width = 177;
}
);
unicode = 96;
},
{
glyphname = tilde;
lastChange = "2022-02-23 22:39:29 +0000";
layers = (
{
layerId = m01;
shapes = (
{
closed = 1;
nodes = (
(274,158,o),
(294,168,o),
(315,177,cs),
(333,185,o),
(341,191,o),
(341,202,cs),
(341,213,o),
(329,233,o),
(312,225,cs),
(293,216,o),
(280,203,o),
(250,203,cs),
(222,203,o),
(179,241,o),
(148,241,cs),
(122,241,o),
(105,232,o),
(87,225,cs),
(69,218,o),
(60,213,o),
(60,202,cs),
(60,190,o),
(70,169,o),
(88,177,cs),
(103,184,o),
(117,196,o),
(140,196,cs),
(171,196,o),
(214,158,o),
(242,158,cs)
);
}
